<mxfile modified="2020-10-30T03:23:57.712Z" host="app.diagrams.net" agent="5.0 (Windows NT 10.0; Win64; x64) AppleWebKit/537.36 (KHTML, like Gecko) Chrome/86.0.4240.111 Safari/537.36" etag="AyGfdIJ6n0DgIq_tyR1F" version="13.7.9" type="github" pages="3">
  <diagram id="B4h1iAgGutounkVAhYRp" name="history">
    <mxGraphModel dx="4530" dy="1365" grid="1" gridSize="10" guides="1" tooltips="1" connect="1" arrows="1" fold="1" page="1" pageScale="1" pageWidth="827" pageHeight="1169" math="0" shadow="0">
      <root>
        <mxCell id="0" />
        <mxCell id="BBm1sS53cPZoSCzeiZzq-1" value="年代" style="" parent="0" />
        <mxCell id="BBm1sS53cPZoSCzeiZzq-2" value="前1000年" style="text;html=1;strokeColor=none;fillColor=none;align=center;verticalAlign=middle;whiteSpace=wrap;rounded=0;fontSize=150;" parent="BBm1sS53cPZoSCzeiZzq-1" vertex="1">
          <mxGeometry x="-1980" y="33.5" width="810" height="140" as="geometry" />
        </mxCell>
        <mxCell id="BBm1sS53cPZoSCzeiZzq-4" value="1000年" style="text;html=1;strokeColor=none;fillColor=none;align=center;verticalAlign=middle;whiteSpace=wrap;rounded=0;fontSize=150;" parent="BBm1sS53cPZoSCzeiZzq-1" vertex="1">
          <mxGeometry x="8840" y="46.5" width="560" height="114" as="geometry" />
        </mxCell>
        <mxCell id="BBm1sS53cPZoSCzeiZzq-6" value="前2000年" style="text;html=1;strokeColor=none;fillColor=none;align=center;verticalAlign=middle;whiteSpace=wrap;rounded=0;fontSize=150;" parent="BBm1sS53cPZoSCzeiZzq-1" vertex="1">
          <mxGeometry x="-3590" y="46.5" width="810" height="140" as="geometry" />
        </mxCell>
        <mxCell id="7VUQlQrSEYM7tF7wroQr-1" value="隋&lt;br&gt;（&amp;nbsp;&lt;span&gt;581年—618年&lt;/span&gt;）&lt;br&gt;" style="rounded=1;whiteSpace=wrap;html=1;fontSize=16;fillColor=#f8cecc;strokeColor=#b85450;" parent="BBm1sS53cPZoSCzeiZzq-1" vertex="1">
          <mxGeometry x="6910" y="590" width="280" height="40" as="geometry" />
        </mxCell>
        <mxCell id="7VUQlQrSEYM7tF7wroQr-2" style="edgeStyle=orthogonalEdgeStyle;rounded=0;orthogonalLoop=1;jettySize=auto;html=1;exitX=1;exitY=0.25;exitDx=0;exitDy=0;entryX=0.079;entryY=-0.069;entryDx=0;entryDy=0;entryPerimeter=0;fontSize=16;curved=1;" parent="BBm1sS53cPZoSCzeiZzq-1" source="zDtLxDJx-mtVt5FpkuiB-14" target="7VUQlQrSEYM7tF7wroQr-1" edge="1">
          <mxGeometry relative="1" as="geometry" />
        </mxCell>
        <mxCell id="7VUQlQrSEYM7tF7wroQr-8" value="西晋&lt;br&gt;（&lt;span&gt;266年—316年)&lt;/span&gt;&lt;br&gt;" style="rounded=1;whiteSpace=wrap;html=1;fontSize=16;fillColor=#f8cecc;strokeColor=#b85450;" parent="BBm1sS53cPZoSCzeiZzq-1" vertex="1">
          <mxGeometry x="5680" y="577" width="250" height="43" as="geometry" />
        </mxCell>
        <mxCell id="7VUQlQrSEYM7tF7wroQr-10" value="&lt;span style=&quot;font-size: 21px;&quot;&gt;东晋十六国&lt;/span&gt;" style="text;html=1;strokeColor=none;fillColor=none;align=center;verticalAlign=middle;whiteSpace=wrap;rounded=0;fontSize=21;" parent="BBm1sS53cPZoSCzeiZzq-1" vertex="1">
          <mxGeometry x="6009" y="244.5" width="120" height="20" as="geometry" />
        </mxCell>
        <mxCell id="zd5HpNO3gBWObnxmA2Tq-62" style="edgeStyle=orthogonalEdgeStyle;curved=1;rounded=0;orthogonalLoop=1;jettySize=auto;html=1;exitX=0.5;exitY=1;exitDx=0;exitDy=0;entryX=0.5;entryY=0;entryDx=0;entryDy=0;" parent="BBm1sS53cPZoSCzeiZzq-1" source="9OOkJJ60_f5lkiLz93e9-11" target="zd5HpNO3gBWObnxmA2Tq-56" edge="1">
          <mxGeometry relative="1" as="geometry" />
        </mxCell>
        <mxCell id="zd5HpNO3gBWObnxmA2Tq-63" style="edgeStyle=orthogonalEdgeStyle;curved=1;rounded=0;orthogonalLoop=1;jettySize=auto;html=1;exitX=0;exitY=0.75;exitDx=0;exitDy=0;entryX=0.75;entryY=0;entryDx=0;entryDy=0;" parent="BBm1sS53cPZoSCzeiZzq-1" source="9OOkJJ60_f5lkiLz93e9-11" target="zd5HpNO3gBWObnxmA2Tq-55" edge="1">
          <mxGeometry relative="1" as="geometry" />
        </mxCell>
        <mxCell id="9OOkJJ60_f5lkiLz93e9-11" value="独孤氏&lt;br&gt;妹妹&lt;br&gt;" style="text;html=1;strokeColor=none;fillColor=none;align=center;verticalAlign=middle;whiteSpace=wrap;rounded=0;" parent="BBm1sS53cPZoSCzeiZzq-1" vertex="1">
          <mxGeometry x="7089" y="274" width="40" height="20" as="geometry" />
        </mxCell>
        <mxCell id="9OOkJJ60_f5lkiLz93e9-24" style="edgeStyle=orthogonalEdgeStyle;curved=1;rounded=0;orthogonalLoop=1;jettySize=auto;html=1;exitX=1;exitY=0.5;exitDx=0;exitDy=0;" parent="BBm1sS53cPZoSCzeiZzq-1" source="9OOkJJ60_f5lkiLz93e9-9" edge="1">
          <mxGeometry relative="1" as="geometry">
            <mxPoint x="7410" y="210" as="targetPoint" />
            <Array as="points">
              <mxPoint x="7130" y="210" />
            </Array>
          </mxGeometry>
        </mxCell>
        <mxCell id="zd5HpNO3gBWObnxmA2Tq-64" style="edgeStyle=orthogonalEdgeStyle;curved=1;rounded=0;orthogonalLoop=1;jettySize=auto;html=1;exitX=0.5;exitY=0;exitDx=0;exitDy=0;entryX=0.407;entryY=1.131;entryDx=0;entryDy=0;entryPerimeter=0;" parent="BBm1sS53cPZoSCzeiZzq-1" source="9OOkJJ60_f5lkiLz93e9-9" target="9OOkJJ60_f5lkiLz93e9-38" edge="1">
          <mxGeometry relative="1" as="geometry" />
        </mxCell>
        <mxCell id="9OOkJJ60_f5lkiLz93e9-9" value="独孤氏姐姐" style="text;html=1;strokeColor=none;fillColor=none;align=center;verticalAlign=middle;whiteSpace=wrap;rounded=0;" parent="BBm1sS53cPZoSCzeiZzq-1" vertex="1">
          <mxGeometry x="7090" y="220" width="40" height="20" as="geometry" />
        </mxCell>
        <mxCell id="9OOkJJ60_f5lkiLz93e9-25" value="母子" style="text;html=1;align=center;verticalAlign=middle;whiteSpace=wrap;rounded=0;labelBackgroundColor=#ffffff;" parent="BBm1sS53cPZoSCzeiZzq-1" vertex="1">
          <mxGeometry x="7190" y="222" width="40" height="20" as="geometry" />
        </mxCell>
        <mxCell id="9OOkJJ60_f5lkiLz93e9-31" value="母子" style="text;html=1;align=center;verticalAlign=middle;whiteSpace=wrap;rounded=0;labelBackgroundColor=#ffffff;" parent="BBm1sS53cPZoSCzeiZzq-1" vertex="1">
          <mxGeometry x="7090" y="350" width="40" height="20" as="geometry" />
        </mxCell>
        <mxCell id="9OOkJJ60_f5lkiLz93e9-38" value="李昞" style="text;html=1;" parent="BBm1sS53cPZoSCzeiZzq-1" vertex="1">
          <mxGeometry x="7091" y="146" width="50" height="25" as="geometry" />
        </mxCell>
        <mxCell id="9OOkJJ60_f5lkiLz93e9-40" style="edgeStyle=orthogonalEdgeStyle;curved=1;rounded=0;orthogonalLoop=1;jettySize=auto;html=1;entryX=0.369;entryY=0.057;entryDx=0;entryDy=0;entryPerimeter=0;" parent="BBm1sS53cPZoSCzeiZzq-1" source="9OOkJJ60_f5lkiLz93e9-39" target="zd5HpNO3gBWObnxmA2Tq-55" edge="1">
          <mxGeometry relative="1" as="geometry">
            <mxPoint x="7009" y="375" as="targetPoint" />
          </mxGeometry>
        </mxCell>
        <mxCell id="9OOkJJ60_f5lkiLz93e9-39" value="父亲&lt;br&gt;杨忠&lt;br&gt;&lt;font style=&quot;font-size: 11px&quot;&gt;西魏和北周军事贵族&lt;/font&gt;" style="text;html=1;strokeColor=none;fillColor=none;align=center;verticalAlign=middle;whiteSpace=wrap;rounded=0;labelBackgroundColor=#ffffff;" parent="BBm1sS53cPZoSCzeiZzq-1" vertex="1">
          <mxGeometry x="6770" y="310" width="110" height="50" as="geometry" />
        </mxCell>
        <mxCell id="9OOkJJ60_f5lkiLz93e9-41" style="edgeStyle=orthogonalEdgeStyle;curved=1;rounded=0;orthogonalLoop=1;jettySize=auto;html=1;exitX=1;exitY=0.5;exitDx=0;exitDy=0;" parent="BBm1sS53cPZoSCzeiZzq-1" source="zDtLxDJx-mtVt5FpkuiB-10" target="zDtLxDJx-mtVt5FpkuiB-11" edge="1">
          <mxGeometry relative="1" as="geometry" />
        </mxCell>
        <mxCell id="9OOkJJ60_f5lkiLz93e9-42" style="edgeStyle=orthogonalEdgeStyle;curved=1;rounded=0;orthogonalLoop=1;jettySize=auto;html=1;exitX=1;exitY=0.75;exitDx=0;exitDy=0;entryX=0;entryY=0.75;entryDx=0;entryDy=0;" parent="BBm1sS53cPZoSCzeiZzq-1" source="zDtLxDJx-mtVt5FpkuiB-10" target="zDtLxDJx-mtVt5FpkuiB-12" edge="1">
          <mxGeometry relative="1" as="geometry" />
        </mxCell>
        <mxCell id="9OOkJJ60_f5lkiLz93e9-44" value="五凉 （前凉、北凉、西凉、后凉、南凉&amp;nbsp;)&lt;br&gt;四燕&amp;nbsp; &amp;nbsp;(前燕、后燕、南燕、北燕)&lt;br&gt;三秦&amp;nbsp; &amp;nbsp;(前秦、西秦、后秦)&lt;br&gt;二赵（前赵、后赵）&lt;br&gt;一汉&amp;nbsp; (成汉)&lt;br&gt;胡夏" style="text;html=1;" parent="BBm1sS53cPZoSCzeiZzq-1" vertex="1">
          <mxGeometry x="6019" y="264.5" width="210" height="130" as="geometry" />
        </mxCell>
        <mxCell id="9OOkJJ60_f5lkiLz93e9-45" value="五胡乱华" style="text;html=1;strokeColor=none;fillColor=none;align=center;verticalAlign=middle;whiteSpace=wrap;rounded=0;labelBackgroundColor=#ffffff;fontSize=21;" parent="BBm1sS53cPZoSCzeiZzq-1" vertex="1">
          <mxGeometry x="5940" y="430" width="100" height="30" as="geometry" />
        </mxCell>
        <mxCell id="9OOkJJ60_f5lkiLz93e9-47" value="匈奴、鲜卑、羯、氐、羌" style="text;html=1;fontSize=13;" parent="BBm1sS53cPZoSCzeiZzq-1" vertex="1">
          <mxGeometry x="5950" y="460" width="170" height="30" as="geometry" />
        </mxCell>
        <mxCell id="9OOkJJ60_f5lkiLz93e9-48" value="新莽" style="rounded=1;whiteSpace=wrap;html=1;labelBackgroundColor=#ffffff;fontSize=13;" parent="BBm1sS53cPZoSCzeiZzq-1" vertex="1">
          <mxGeometry x="4140" y="500" width="120" height="60" as="geometry" />
        </mxCell>
        <mxCell id="9OOkJJ60_f5lkiLz93e9-51" value="" style="edgeStyle=orthogonalEdgeStyle;curved=1;rounded=0;orthogonalLoop=1;jettySize=auto;html=1;fontSize=13;fillColor=#d5e8d4;strokeColor=#82b366;" parent="BBm1sS53cPZoSCzeiZzq-1" source="9OOkJJ60_f5lkiLz93e9-49" target="9OOkJJ60_f5lkiLz93e9-50" edge="1">
          <mxGeometry relative="1" as="geometry" />
        </mxCell>
        <mxCell id="9OOkJJ60_f5lkiLz93e9-49" value="清太祖" style="text;html=1;align=center;verticalAlign=middle;whiteSpace=wrap;rounded=0;labelBackgroundColor=#ffffff;fontSize=13;fillColor=#d5e8d4;strokeColor=#82b366;" parent="BBm1sS53cPZoSCzeiZzq-1" vertex="1">
          <mxGeometry x="12060" y="500" width="50" height="20" as="geometry" />
        </mxCell>
        <mxCell id="9OOkJJ60_f5lkiLz93e9-53" value="" style="edgeStyle=orthogonalEdgeStyle;curved=1;rounded=0;orthogonalLoop=1;jettySize=auto;html=1;fontSize=13;fillColor=#d5e8d4;strokeColor=#82b366;" parent="BBm1sS53cPZoSCzeiZzq-1" source="9OOkJJ60_f5lkiLz93e9-50" target="9OOkJJ60_f5lkiLz93e9-52" edge="1">
          <mxGeometry relative="1" as="geometry" />
        </mxCell>
        <mxCell id="9OOkJJ60_f5lkiLz93e9-50" value="皇太极" style="text;html=1;align=center;verticalAlign=middle;whiteSpace=wrap;rounded=0;labelBackgroundColor=#ffffff;fontSize=13;fillColor=#d5e8d4;strokeColor=#82b366;" parent="BBm1sS53cPZoSCzeiZzq-1" vertex="1">
          <mxGeometry x="12190" y="500" width="50" height="20" as="geometry" />
        </mxCell>
        <mxCell id="9OOkJJ60_f5lkiLz93e9-55" value="" style="edgeStyle=orthogonalEdgeStyle;curved=1;rounded=0;orthogonalLoop=1;jettySize=auto;html=1;fontSize=13;fillColor=#d5e8d4;strokeColor=#82b366;" parent="BBm1sS53cPZoSCzeiZzq-1" source="9OOkJJ60_f5lkiLz93e9-52" target="9OOkJJ60_f5lkiLz93e9-54" edge="1">
          <mxGeometry relative="1" as="geometry" />
        </mxCell>
        <mxCell id="9OOkJJ60_f5lkiLz93e9-52" value="顺治" style="text;html=1;align=center;verticalAlign=middle;whiteSpace=wrap;rounded=0;labelBackgroundColor=#ffffff;fontSize=13;fillColor=#d5e8d4;strokeColor=#82b366;" parent="BBm1sS53cPZoSCzeiZzq-1" vertex="1">
          <mxGeometry x="12320" y="500" width="50" height="20" as="geometry" />
        </mxCell>
        <mxCell id="9OOkJJ60_f5lkiLz93e9-57" value="" style="edgeStyle=orthogonalEdgeStyle;curved=1;rounded=0;orthogonalLoop=1;jettySize=auto;html=1;fontSize=13;fillColor=#d5e8d4;strokeColor=#82b366;" parent="BBm1sS53cPZoSCzeiZzq-1" source="9OOkJJ60_f5lkiLz93e9-54" target="9OOkJJ60_f5lkiLz93e9-56" edge="1">
          <mxGeometry relative="1" as="geometry" />
        </mxCell>
        <mxCell id="9OOkJJ60_f5lkiLz93e9-54" value="康熙" style="text;html=1;align=center;verticalAlign=middle;whiteSpace=wrap;rounded=0;labelBackgroundColor=#ffffff;fontSize=13;fillColor=#d5e8d4;strokeColor=#82b366;" parent="BBm1sS53cPZoSCzeiZzq-1" vertex="1">
          <mxGeometry x="12450" y="500" width="50" height="20" as="geometry" />
        </mxCell>
        <mxCell id="9OOkJJ60_f5lkiLz93e9-59" value="" style="edgeStyle=orthogonalEdgeStyle;curved=1;rounded=0;orthogonalLoop=1;jettySize=auto;html=1;fontSize=13;fillColor=#d5e8d4;strokeColor=#82b366;" parent="BBm1sS53cPZoSCzeiZzq-1" source="9OOkJJ60_f5lkiLz93e9-56" target="9OOkJJ60_f5lkiLz93e9-58" edge="1">
          <mxGeometry relative="1" as="geometry" />
        </mxCell>
        <mxCell id="9OOkJJ60_f5lkiLz93e9-56" value="雍正" style="text;html=1;align=center;verticalAlign=middle;whiteSpace=wrap;rounded=0;labelBackgroundColor=#ffffff;fontSize=13;fillColor=#d5e8d4;strokeColor=#82b366;" parent="BBm1sS53cPZoSCzeiZzq-1" vertex="1">
          <mxGeometry x="12580" y="500" width="50" height="20" as="geometry" />
        </mxCell>
        <mxCell id="9OOkJJ60_f5lkiLz93e9-61" value="" style="edgeStyle=orthogonalEdgeStyle;curved=1;rounded=0;orthogonalLoop=1;jettySize=auto;html=1;fontSize=13;fillColor=#d5e8d4;strokeColor=#82b366;" parent="BBm1sS53cPZoSCzeiZzq-1" source="9OOkJJ60_f5lkiLz93e9-58" target="9OOkJJ60_f5lkiLz93e9-60" edge="1">
          <mxGeometry relative="1" as="geometry" />
        </mxCell>
        <mxCell id="9OOkJJ60_f5lkiLz93e9-58" value="乾隆" style="text;html=1;align=center;verticalAlign=middle;whiteSpace=wrap;rounded=0;labelBackgroundColor=#ffffff;fontSize=13;fillColor=#d5e8d4;strokeColor=#82b366;" parent="BBm1sS53cPZoSCzeiZzq-1" vertex="1">
          <mxGeometry x="12710" y="500" width="50" height="20" as="geometry" />
        </mxCell>
        <mxCell id="9OOkJJ60_f5lkiLz93e9-63" value="" style="edgeStyle=orthogonalEdgeStyle;curved=1;rounded=0;orthogonalLoop=1;jettySize=auto;html=1;fontSize=13;fillColor=#d5e8d4;strokeColor=#82b366;" parent="BBm1sS53cPZoSCzeiZzq-1" source="9OOkJJ60_f5lkiLz93e9-60" target="9OOkJJ60_f5lkiLz93e9-62" edge="1">
          <mxGeometry relative="1" as="geometry" />
        </mxCell>
        <mxCell id="9OOkJJ60_f5lkiLz93e9-60" value="嘉庆" style="text;html=1;align=center;verticalAlign=middle;whiteSpace=wrap;rounded=0;labelBackgroundColor=#ffffff;fontSize=13;fillColor=#d5e8d4;strokeColor=#82b366;" parent="BBm1sS53cPZoSCzeiZzq-1" vertex="1">
          <mxGeometry x="12840" y="500" width="50" height="20" as="geometry" />
        </mxCell>
        <mxCell id="9OOkJJ60_f5lkiLz93e9-65" value="" style="edgeStyle=orthogonalEdgeStyle;curved=1;rounded=0;orthogonalLoop=1;jettySize=auto;html=1;fontSize=13;fillColor=#d5e8d4;strokeColor=#82b366;" parent="BBm1sS53cPZoSCzeiZzq-1" source="9OOkJJ60_f5lkiLz93e9-62" target="9OOkJJ60_f5lkiLz93e9-64" edge="1">
          <mxGeometry relative="1" as="geometry" />
        </mxCell>
        <mxCell id="9OOkJJ60_f5lkiLz93e9-62" value="道光" style="text;html=1;align=center;verticalAlign=middle;whiteSpace=wrap;rounded=0;labelBackgroundColor=#ffffff;fontSize=13;fillColor=#d5e8d4;strokeColor=#82b366;" parent="BBm1sS53cPZoSCzeiZzq-1" vertex="1">
          <mxGeometry x="12970" y="500" width="50" height="20" as="geometry" />
        </mxCell>
        <mxCell id="9OOkJJ60_f5lkiLz93e9-67" value="" style="edgeStyle=orthogonalEdgeStyle;curved=1;rounded=0;orthogonalLoop=1;jettySize=auto;html=1;fontSize=13;fillColor=#d5e8d4;strokeColor=#82b366;" parent="BBm1sS53cPZoSCzeiZzq-1" source="9OOkJJ60_f5lkiLz93e9-64" target="9OOkJJ60_f5lkiLz93e9-66" edge="1">
          <mxGeometry relative="1" as="geometry" />
        </mxCell>
        <mxCell id="9OOkJJ60_f5lkiLz93e9-64" value="咸丰" style="text;html=1;align=center;verticalAlign=middle;whiteSpace=wrap;rounded=0;labelBackgroundColor=#ffffff;fontSize=13;fillColor=#d5e8d4;strokeColor=#82b366;" parent="BBm1sS53cPZoSCzeiZzq-1" vertex="1">
          <mxGeometry x="13100" y="500" width="50" height="20" as="geometry" />
        </mxCell>
        <mxCell id="9OOkJJ60_f5lkiLz93e9-69" value="" style="edgeStyle=orthogonalEdgeStyle;curved=1;rounded=0;orthogonalLoop=1;jettySize=auto;html=1;fontSize=13;fillColor=#d5e8d4;strokeColor=#82b366;" parent="BBm1sS53cPZoSCzeiZzq-1" source="9OOkJJ60_f5lkiLz93e9-66" target="9OOkJJ60_f5lkiLz93e9-68" edge="1">
          <mxGeometry relative="1" as="geometry" />
        </mxCell>
        <mxCell id="9OOkJJ60_f5lkiLz93e9-66" value="同治" style="text;html=1;align=center;verticalAlign=middle;whiteSpace=wrap;rounded=0;labelBackgroundColor=#ffffff;fontSize=13;fillColor=#d5e8d4;strokeColor=#82b366;" parent="BBm1sS53cPZoSCzeiZzq-1" vertex="1">
          <mxGeometry x="13230" y="500" width="50" height="20" as="geometry" />
        </mxCell>
        <mxCell id="9OOkJJ60_f5lkiLz93e9-71" value="" style="edgeStyle=orthogonalEdgeStyle;curved=1;rounded=0;orthogonalLoop=1;jettySize=auto;html=1;fontSize=13;fillColor=#d5e8d4;strokeColor=#82b366;" parent="BBm1sS53cPZoSCzeiZzq-1" source="9OOkJJ60_f5lkiLz93e9-68" target="9OOkJJ60_f5lkiLz93e9-70" edge="1">
          <mxGeometry relative="1" as="geometry" />
        </mxCell>
        <mxCell id="9OOkJJ60_f5lkiLz93e9-68" value="光绪" style="text;html=1;align=center;verticalAlign=middle;whiteSpace=wrap;rounded=0;labelBackgroundColor=#ffffff;fontSize=13;fillColor=#d5e8d4;strokeColor=#82b366;" parent="BBm1sS53cPZoSCzeiZzq-1" vertex="1">
          <mxGeometry x="13360" y="500" width="50" height="20" as="geometry" />
        </mxCell>
        <mxCell id="9OOkJJ60_f5lkiLz93e9-70" value="宣统" style="text;html=1;align=center;verticalAlign=middle;whiteSpace=wrap;rounded=0;labelBackgroundColor=#ffffff;fontSize=13;fillColor=#d5e8d4;strokeColor=#82b366;" parent="BBm1sS53cPZoSCzeiZzq-1" vertex="1">
          <mxGeometry x="13490" y="500" width="50" height="20" as="geometry" />
        </mxCell>
        <mxCell id="9OOkJJ60_f5lkiLz93e9-74" value="元十五帝&lt;br&gt;" style="text;html=1;strokeColor=none;fillColor=none;align=center;verticalAlign=middle;whiteSpace=wrap;rounded=0;labelBackgroundColor=#ffffff;fontSize=24;" parent="BBm1sS53cPZoSCzeiZzq-1" vertex="1">
          <mxGeometry x="9960" y="430" width="160" height="70" as="geometry" />
        </mxCell>
        <mxCell id="9OOkJJ60_f5lkiLz93e9-75" value="东汉十四帝" style="text;html=1;strokeColor=none;fillColor=none;align=center;verticalAlign=middle;whiteSpace=wrap;rounded=0;labelBackgroundColor=#ffffff;fontSize=24;" parent="BBm1sS53cPZoSCzeiZzq-1" vertex="1">
          <mxGeometry x="4260" y="244.5" width="170" height="45" as="geometry" />
        </mxCell>
        <mxCell id="mkLbTUoJTqNUCXqjL3VC-3" value="" style="edgeStyle=orthogonalEdgeStyle;rounded=0;orthogonalLoop=1;jettySize=auto;html=1;fontSize=11;curved=1;entryX=0;entryY=0.75;entryDx=0;entryDy=0;" parent="BBm1sS53cPZoSCzeiZzq-1" source="mkLbTUoJTqNUCXqjL3VC-1" target="mkLbTUoJTqNUCXqjL3VC-2" edge="1">
          <mxGeometry relative="1" as="geometry">
            <mxPoint x="-1590" y="262" as="targetPoint" />
            <Array as="points">
              <mxPoint x="-1607" y="261" />
            </Array>
          </mxGeometry>
        </mxCell>
        <mxCell id="mkLbTUoJTqNUCXqjL3VC-1" value="1.周文王&lt;br style=&quot;font-size: 11px;&quot;&gt;" style="text;html=1;strokeColor=none;fillColor=none;align=center;verticalAlign=middle;whiteSpace=wrap;rounded=0;fontSize=11;" parent="BBm1sS53cPZoSCzeiZzq-1" vertex="1">
          <mxGeometry x="-1634.5" y="227.5" width="55" height="15" as="geometry" />
        </mxCell>
        <mxCell id="mkLbTUoJTqNUCXqjL3VC-26" style="edgeStyle=orthogonalEdgeStyle;curved=1;rounded=0;orthogonalLoop=1;jettySize=auto;html=1;exitX=0.5;exitY=1;exitDx=0;exitDy=0;entryX=0;entryY=0.5;entryDx=0;entryDy=0;fontSize=11;" parent="BBm1sS53cPZoSCzeiZzq-1" source="mkLbTUoJTqNUCXqjL3VC-2" target="mkLbTUoJTqNUCXqjL3VC-4" edge="1">
          <mxGeometry relative="1" as="geometry" />
        </mxCell>
        <mxCell id="mkLbTUoJTqNUCXqjL3VC-2" value="2. 周武王&lt;br style=&quot;font-size: 11px;&quot;&gt;" style="text;html=1;strokeColor=none;fillColor=none;align=center;verticalAlign=middle;whiteSpace=wrap;rounded=0;fontSize=11;" parent="BBm1sS53cPZoSCzeiZzq-1" vertex="1">
          <mxGeometry x="-1579.5" y="250" width="70" height="15" as="geometry" />
        </mxCell>
        <mxCell id="mkLbTUoJTqNUCXqjL3VC-27" style="edgeStyle=orthogonalEdgeStyle;curved=1;rounded=0;orthogonalLoop=1;jettySize=auto;html=1;exitX=0.5;exitY=1;exitDx=0;exitDy=0;entryX=-0.013;entryY=0.644;entryDx=0;entryDy=0;entryPerimeter=0;fontSize=11;" parent="BBm1sS53cPZoSCzeiZzq-1" source="mkLbTUoJTqNUCXqjL3VC-4" target="mkLbTUoJTqNUCXqjL3VC-6" edge="1">
          <mxGeometry relative="1" as="geometry" />
        </mxCell>
        <mxCell id="mkLbTUoJTqNUCXqjL3VC-4" value="3.周成王&lt;br style=&quot;font-size: 11px;&quot;&gt;" style="text;html=1;strokeColor=none;fillColor=none;align=center;verticalAlign=middle;whiteSpace=wrap;rounded=0;fontSize=11;" parent="BBm1sS53cPZoSCzeiZzq-1" vertex="1">
          <mxGeometry x="-1530" y="285" width="70" height="15" as="geometry" />
        </mxCell>
        <mxCell id="mkLbTUoJTqNUCXqjL3VC-9" value="" style="edgeStyle=orthogonalEdgeStyle;rounded=0;orthogonalLoop=1;jettySize=auto;html=1;fontSize=11;curved=1;" parent="BBm1sS53cPZoSCzeiZzq-1" source="mkLbTUoJTqNUCXqjL3VC-6" target="mkLbTUoJTqNUCXqjL3VC-8" edge="1">
          <mxGeometry relative="1" as="geometry" />
        </mxCell>
        <mxCell id="mkLbTUoJTqNUCXqjL3VC-6" value="4.周康王&lt;br style=&quot;font-size: 11px;&quot;&gt;" style="text;html=1;strokeColor=none;fillColor=none;align=center;verticalAlign=middle;whiteSpace=wrap;rounded=0;fontSize=11;" parent="BBm1sS53cPZoSCzeiZzq-1" vertex="1">
          <mxGeometry x="-1495" y="315" width="70" height="15" as="geometry" />
        </mxCell>
        <mxCell id="mkLbTUoJTqNUCXqjL3VC-11" value="" style="edgeStyle=orthogonalEdgeStyle;rounded=0;orthogonalLoop=1;jettySize=auto;html=1;fontSize=11;curved=1;" parent="BBm1sS53cPZoSCzeiZzq-1" source="mkLbTUoJTqNUCXqjL3VC-8" target="mkLbTUoJTqNUCXqjL3VC-10" edge="1">
          <mxGeometry relative="1" as="geometry" />
        </mxCell>
        <mxCell id="mkLbTUoJTqNUCXqjL3VC-8" value="5.周昭王&lt;br style=&quot;font-size: 11px&quot;&gt;" style="text;html=1;strokeColor=none;fillColor=none;align=center;verticalAlign=middle;whiteSpace=wrap;rounded=0;fontSize=11;" parent="BBm1sS53cPZoSCzeiZzq-1" vertex="1">
          <mxGeometry x="-1460" y="350" width="70" height="15" as="geometry" />
        </mxCell>
        <mxCell id="mkLbTUoJTqNUCXqjL3VC-28" style="edgeStyle=orthogonalEdgeStyle;curved=1;rounded=0;orthogonalLoop=1;jettySize=auto;html=1;exitX=0.25;exitY=1;exitDx=0;exitDy=0;entryX=0;entryY=0.5;entryDx=0;entryDy=0;fontSize=11;" parent="BBm1sS53cPZoSCzeiZzq-1" source="mkLbTUoJTqNUCXqjL3VC-10" target="mkLbTUoJTqNUCXqjL3VC-12" edge="1">
          <mxGeometry relative="1" as="geometry" />
        </mxCell>
        <mxCell id="mkLbTUoJTqNUCXqjL3VC-10" value="6.周穆王&lt;br style=&quot;font-size: 11px&quot;&gt;" style="text;html=1;strokeColor=none;fillColor=none;align=center;verticalAlign=middle;whiteSpace=wrap;rounded=0;fontSize=11;" parent="BBm1sS53cPZoSCzeiZzq-1" vertex="1">
          <mxGeometry x="-1425" y="390" width="70" height="15" as="geometry" />
        </mxCell>
        <mxCell id="mkLbTUoJTqNUCXqjL3VC-29" style="edgeStyle=orthogonalEdgeStyle;curved=1;rounded=0;orthogonalLoop=1;jettySize=auto;html=1;exitX=0.25;exitY=1;exitDx=0;exitDy=0;entryX=0;entryY=0.5;entryDx=0;entryDy=0;fontSize=11;" parent="BBm1sS53cPZoSCzeiZzq-1" source="mkLbTUoJTqNUCXqjL3VC-12" target="mkLbTUoJTqNUCXqjL3VC-15" edge="1">
          <mxGeometry relative="1" as="geometry" />
        </mxCell>
        <mxCell id="mkLbTUoJTqNUCXqjL3VC-12" value="7. 周共王&lt;br style=&quot;font-size: 11px&quot;&gt;" style="text;html=1;strokeColor=none;fillColor=none;align=center;verticalAlign=middle;whiteSpace=wrap;rounded=0;fontSize=11;" parent="BBm1sS53cPZoSCzeiZzq-1" vertex="1">
          <mxGeometry x="-1360" y="422.5" width="70" height="15" as="geometry" />
        </mxCell>
        <mxCell id="mkLbTUoJTqNUCXqjL3VC-30" style="edgeStyle=orthogonalEdgeStyle;curved=1;rounded=0;orthogonalLoop=1;jettySize=auto;html=1;exitX=0.25;exitY=1;exitDx=0;exitDy=0;entryX=0;entryY=0.5;entryDx=0;entryDy=0;fontSize=11;" parent="BBm1sS53cPZoSCzeiZzq-1" source="mkLbTUoJTqNUCXqjL3VC-15" target="mkLbTUoJTqNUCXqjL3VC-18" edge="1">
          <mxGeometry relative="1" as="geometry" />
        </mxCell>
        <mxCell id="mkLbTUoJTqNUCXqjL3VC-15" value="8.周懿王&lt;br style=&quot;font-size: 11px&quot;&gt;" style="text;html=1;strokeColor=none;fillColor=none;align=center;verticalAlign=middle;whiteSpace=wrap;rounded=0;fontSize=11;" parent="BBm1sS53cPZoSCzeiZzq-1" vertex="1">
          <mxGeometry x="-1300" y="452.5" width="70" height="15" as="geometry" />
        </mxCell>
        <mxCell id="mkLbTUoJTqNUCXqjL3VC-33" style="edgeStyle=orthogonalEdgeStyle;curved=1;rounded=0;orthogonalLoop=1;jettySize=auto;html=1;exitX=0.25;exitY=1;exitDx=0;exitDy=0;entryX=0;entryY=0.5;entryDx=0;entryDy=0;fontSize=11;" parent="BBm1sS53cPZoSCzeiZzq-1" source="mkLbTUoJTqNUCXqjL3VC-18" target="mkLbTUoJTqNUCXqjL3VC-22" edge="1">
          <mxGeometry relative="1" as="geometry">
            <Array as="points">
              <mxPoint x="-1223" y="512" />
              <mxPoint x="-1180" y="512" />
            </Array>
          </mxGeometry>
        </mxCell>
        <mxCell id="mkLbTUoJTqNUCXqjL3VC-18" value="9.周孝王&lt;br style=&quot;font-size: 11px&quot;&gt;" style="text;html=1;strokeColor=none;fillColor=none;align=center;verticalAlign=middle;whiteSpace=wrap;rounded=0;fontSize=11;" parent="BBm1sS53cPZoSCzeiZzq-1" vertex="1">
          <mxGeometry x="-1241" y="482.5" width="70" height="15" as="geometry" />
        </mxCell>
        <mxCell id="mkLbTUoJTqNUCXqjL3VC-32" style="edgeStyle=orthogonalEdgeStyle;curved=1;rounded=0;orthogonalLoop=1;jettySize=auto;html=1;exitX=0.5;exitY=1;exitDx=0;exitDy=0;entryX=0;entryY=0.75;entryDx=0;entryDy=0;fontSize=11;" parent="BBm1sS53cPZoSCzeiZzq-1" source="mkLbTUoJTqNUCXqjL3VC-22" target="mkLbTUoJTqNUCXqjL3VC-24" edge="1">
          <mxGeometry relative="1" as="geometry" />
        </mxCell>
        <mxCell id="mkLbTUoJTqNUCXqjL3VC-22" value="10.周夷王&lt;br style=&quot;font-size: 11px&quot;&gt;" style="text;html=1;strokeColor=none;fillColor=none;align=center;verticalAlign=middle;whiteSpace=wrap;rounded=0;fontSize=11;" parent="BBm1sS53cPZoSCzeiZzq-1" vertex="1">
          <mxGeometry x="-1160" y="505" width="70" height="15" as="geometry" />
        </mxCell>
        <mxCell id="TpZhf29solArRKw6YtfV-93" value="" style="edgeStyle=orthogonalEdgeStyle;rounded=0;orthogonalLoop=1;jettySize=auto;html=1;dashed=1;fontSize=12;" parent="BBm1sS53cPZoSCzeiZzq-1" source="mkLbTUoJTqNUCXqjL3VC-24" target="TpZhf29solArRKw6YtfV-92" edge="1">
          <mxGeometry relative="1" as="geometry" />
        </mxCell>
        <mxCell id="mkLbTUoJTqNUCXqjL3VC-24" value="11.周厉王&lt;br style=&quot;font-size: 11px&quot;&gt;" style="text;html=1;strokeColor=none;fillColor=none;align=center;verticalAlign=middle;whiteSpace=wrap;rounded=0;fontSize=11;" parent="BBm1sS53cPZoSCzeiZzq-1" vertex="1">
          <mxGeometry x="-1090" y="534" width="70" height="15" as="geometry" />
        </mxCell>
        <mxCell id="TpZhf29solArRKw6YtfV-95" value="" style="edgeStyle=orthogonalEdgeStyle;rounded=0;orthogonalLoop=1;jettySize=auto;html=1;dashed=1;fontSize=12;" parent="BBm1sS53cPZoSCzeiZzq-1" source="TpZhf29solArRKw6YtfV-92" target="TpZhf29solArRKw6YtfV-94" edge="1">
          <mxGeometry relative="1" as="geometry" />
        </mxCell>
        <mxCell id="TpZhf29solArRKw6YtfV-92" value="12.周宣王&lt;br style=&quot;font-size: 11px&quot;&gt;" style="text;html=1;strokeColor=none;fillColor=none;align=center;verticalAlign=middle;whiteSpace=wrap;rounded=0;fontSize=11;" parent="BBm1sS53cPZoSCzeiZzq-1" vertex="1">
          <mxGeometry x="-990" y="535" width="70" height="15" as="geometry" />
        </mxCell>
        <mxCell id="TpZhf29solArRKw6YtfV-94" value="13.周幽王&lt;br style=&quot;font-size: 11px&quot;&gt;" style="text;html=1;strokeColor=none;fillColor=none;align=center;verticalAlign=middle;whiteSpace=wrap;rounded=0;fontSize=11;" parent="BBm1sS53cPZoSCzeiZzq-1" vertex="1">
          <mxGeometry x="-900" y="535" width="70" height="15" as="geometry" />
        </mxCell>
        <mxCell id="mkLbTUoJTqNUCXqjL3VC-34" value="丰京&lt;br&gt;镐京&lt;br&gt;" style="rounded=1;whiteSpace=wrap;html=1;fontSize=11;fillColor=#e1d5e7;strokeColor=#9673a6;" parent="BBm1sS53cPZoSCzeiZzq-1" vertex="1">
          <mxGeometry x="-1629" y="485" width="59" height="35" as="geometry" />
        </mxCell>
        <mxCell id="mkLbTUoJTqNUCXqjL3VC-35" value="洛邑&lt;br&gt;" style="rounded=1;whiteSpace=wrap;html=1;fontSize=11;fillColor=#e1d5e7;strokeColor=#9673a6;" parent="BBm1sS53cPZoSCzeiZzq-1" vertex="1">
          <mxGeometry x="-1530" y="485" width="59" height="35" as="geometry" />
        </mxCell>
        <mxCell id="mkLbTUoJTqNUCXqjL3VC-36" value="洛邑&lt;br&gt;" style="rounded=1;whiteSpace=wrap;html=1;fontSize=11;fillColor=#e1d5e7;strokeColor=#9673a6;" parent="BBm1sS53cPZoSCzeiZzq-1" vertex="1">
          <mxGeometry x="-810" y="492.5" width="59" height="35" as="geometry" />
        </mxCell>
        <mxCell id="mkLbTUoJTqNUCXqjL3VC-37" value="&lt;a href=&quot;http://www.baidu.com/link?url=76q2UDPfSxzPTE1Mu0Wg75S7NPzDqXegIcsCEhIgDwE2rgqp0p_rTrg9P3lgl5f5bU5ZxPcVjd9F250gaG32z8Ggh8OfIpqLy_AelFm7E1m&quot; target=&quot;_blank&quot;&gt;咸阳&lt;/a&gt;&lt;br&gt;" style="rounded=1;whiteSpace=wrap;html=1;fontSize=11;fillColor=#e1d5e7;strokeColor=#9673a6;" parent="BBm1sS53cPZoSCzeiZzq-1" vertex="1">
          <mxGeometry x="2500" y="510" width="59" height="35" as="geometry" />
        </mxCell>
        <mxCell id="mkLbTUoJTqNUCXqjL3VC-38" value="长安&lt;br&gt;" style="rounded=1;whiteSpace=wrap;html=1;fontSize=11;fillColor=#e1d5e7;strokeColor=#9673a6;" parent="BBm1sS53cPZoSCzeiZzq-1" vertex="1">
          <mxGeometry x="2960" y="520" width="59" height="35" as="geometry" />
        </mxCell>
        <mxCell id="mkLbTUoJTqNUCXqjL3VC-39" value="洛阳&lt;br&gt;" style="rounded=1;whiteSpace=wrap;html=1;fontSize=11;fillColor=#e1d5e7;strokeColor=#9673a6;" parent="BBm1sS53cPZoSCzeiZzq-1" vertex="1">
          <mxGeometry x="4290" y="520" width="59" height="35" as="geometry" />
        </mxCell>
        <mxCell id="mkLbTUoJTqNUCXqjL3VC-40" value="洛阳&lt;br&gt;" style="rounded=1;whiteSpace=wrap;html=1;fontSize=11;fillColor=#e1d5e7;strokeColor=#9673a6;" parent="BBm1sS53cPZoSCzeiZzq-1" vertex="1">
          <mxGeometry x="5360" y="106" width="59" height="35" as="geometry" />
        </mxCell>
        <mxCell id="mkLbTUoJTqNUCXqjL3VC-41" value="成都&lt;br&gt;" style="rounded=1;whiteSpace=wrap;html=1;fontSize=11;fillColor=#e1d5e7;strokeColor=#9673a6;" parent="BBm1sS53cPZoSCzeiZzq-1" vertex="1">
          <mxGeometry x="5361" y="340.5" width="59" height="35" as="geometry" />
        </mxCell>
        <mxCell id="mkLbTUoJTqNUCXqjL3VC-44" value="&lt;span&gt;建邺&lt;/span&gt;&lt;br&gt;" style="rounded=1;whiteSpace=wrap;html=1;fontSize=11;fillColor=#e1d5e7;strokeColor=#9673a6;" parent="BBm1sS53cPZoSCzeiZzq-1" vertex="1">
          <mxGeometry x="5360" y="420" width="59" height="35" as="geometry" />
        </mxCell>
        <mxCell id="mkLbTUoJTqNUCXqjL3VC-45" value="洛阳&lt;br&gt;" style="rounded=1;whiteSpace=wrap;html=1;fontSize=11;fillColor=#e1d5e7;strokeColor=#9673a6;" parent="BBm1sS53cPZoSCzeiZzq-1" vertex="1">
          <mxGeometry x="5690" y="485" width="59" height="35" as="geometry" />
        </mxCell>
        <mxCell id="mkLbTUoJTqNUCXqjL3VC-46" value="&lt;span&gt;建康&lt;/span&gt;&lt;br&gt;" style="rounded=1;whiteSpace=wrap;html=1;fontSize=11;fillColor=#e1d5e7;strokeColor=#9673a6;" parent="BBm1sS53cPZoSCzeiZzq-1" vertex="1">
          <mxGeometry x="5950" y="492.5" width="59" height="35" as="geometry" />
        </mxCell>
        <mxCell id="mkLbTUoJTqNUCXqjL3VC-47" value="&lt;span&gt;建康&lt;/span&gt;&lt;br&gt;" style="rounded=1;whiteSpace=wrap;html=1;fontSize=11;fillColor=#e1d5e7;strokeColor=#9673a6;" parent="BBm1sS53cPZoSCzeiZzq-1" vertex="1">
          <mxGeometry x="6400" y="502.5" width="59" height="35" as="geometry" />
        </mxCell>
        <mxCell id="mkLbTUoJTqNUCXqjL3VC-51" value="&lt;span&gt;大兴城&lt;br&gt;&lt;/span&gt;洛阳城&lt;br&gt;" style="rounded=1;whiteSpace=wrap;html=1;fontSize=11;fillColor=#e1d5e7;strokeColor=#9673a6;" parent="BBm1sS53cPZoSCzeiZzq-1" vertex="1">
          <mxGeometry x="6951" y="525" width="59" height="35" as="geometry" />
        </mxCell>
        <mxCell id="mkLbTUoJTqNUCXqjL3VC-52" value="长安&lt;br&gt;" style="rounded=1;whiteSpace=wrap;html=1;fontSize=11;fillColor=#e1d5e7;strokeColor=#9673a6;" parent="BBm1sS53cPZoSCzeiZzq-1" vertex="1">
          <mxGeometry x="7200.5" y="530" width="59" height="35" as="geometry" />
        </mxCell>
        <mxCell id="mkLbTUoJTqNUCXqjL3VC-53" value="开封&lt;br&gt;" style="rounded=1;whiteSpace=wrap;html=1;fontSize=11;fillColor=#e1d5e7;strokeColor=#9673a6;" parent="BBm1sS53cPZoSCzeiZzq-1" vertex="1">
          <mxGeometry x="8440" y="487.5" width="30" height="15" as="geometry" />
        </mxCell>
        <mxCell id="mkLbTUoJTqNUCXqjL3VC-54" value="洛阳&lt;br&gt;" style="rounded=1;whiteSpace=wrap;html=1;fontSize=11;fillColor=#e1d5e7;strokeColor=#9673a6;" parent="BBm1sS53cPZoSCzeiZzq-1" vertex="1">
          <mxGeometry x="8490" y="487.5" width="30" height="15" as="geometry" />
        </mxCell>
        <mxCell id="mkLbTUoJTqNUCXqjL3VC-55" value="开封&lt;br&gt;" style="rounded=1;whiteSpace=wrap;html=1;fontSize=11;fillColor=#e1d5e7;strokeColor=#9673a6;" parent="BBm1sS53cPZoSCzeiZzq-1" vertex="1">
          <mxGeometry x="8550" y="487.5" width="30" height="15" as="geometry" />
        </mxCell>
        <mxCell id="mkLbTUoJTqNUCXqjL3VC-56" value="开封&lt;br&gt;" style="rounded=1;whiteSpace=wrap;html=1;fontSize=11;fillColor=#e1d5e7;strokeColor=#9673a6;" parent="BBm1sS53cPZoSCzeiZzq-1" vertex="1">
          <mxGeometry x="8600" y="487.5" width="30" height="15" as="geometry" />
        </mxCell>
        <mxCell id="mkLbTUoJTqNUCXqjL3VC-57" value="开封&lt;br&gt;" style="rounded=1;whiteSpace=wrap;html=1;fontSize=11;fillColor=#e1d5e7;strokeColor=#9673a6;" parent="BBm1sS53cPZoSCzeiZzq-1" vertex="1">
          <mxGeometry x="8668.5" y="487.5" width="30" height="15" as="geometry" />
        </mxCell>
        <mxCell id="mkLbTUoJTqNUCXqjL3VC-63" value="&lt;span&gt;大都（北京)&lt;/span&gt;&lt;br&gt;" style="rounded=1;whiteSpace=wrap;html=1;fontSize=11;fillColor=#e1d5e7;strokeColor=#9673a6;" parent="BBm1sS53cPZoSCzeiZzq-1" vertex="1">
          <mxGeometry x="9945" y="545" width="85" height="15" as="geometry" />
        </mxCell>
        <mxCell id="mkLbTUoJTqNUCXqjL3VC-64" value="&lt;span&gt;顺天府(北京）&lt;/span&gt;&lt;br&gt;" style="rounded=1;whiteSpace=wrap;html=1;fontSize=11;fillColor=#e1d5e7;strokeColor=#9673a6;" parent="BBm1sS53cPZoSCzeiZzq-1" vertex="1">
          <mxGeometry x="10470" y="558" width="90" height="15" as="geometry" />
        </mxCell>
        <mxCell id="mkLbTUoJTqNUCXqjL3VC-66" value="&lt;span&gt;顺天府(北京）&lt;/span&gt;&lt;br&gt;" style="rounded=1;whiteSpace=wrap;html=1;fontSize=11;fillColor=#e1d5e7;strokeColor=#9673a6;" parent="BBm1sS53cPZoSCzeiZzq-1" vertex="1">
          <mxGeometry x="11995" y="557.5" width="90" height="15" as="geometry" />
        </mxCell>
        <mxCell id="q0YfwvbicKMwDBuohbKJ-3" value="" style="edgeStyle=orthogonalEdgeStyle;curved=1;rounded=0;orthogonalLoop=1;jettySize=auto;html=1;fontSize=28;" parent="BBm1sS53cPZoSCzeiZzq-1" source="q0YfwvbicKMwDBuohbKJ-1" target="q0YfwvbicKMwDBuohbKJ-2" edge="1">
          <mxGeometry relative="1" as="geometry" />
        </mxCell>
        <mxCell id="q0YfwvbicKMwDBuohbKJ-5" value="" style="edgeStyle=orthogonalEdgeStyle;curved=1;rounded=0;orthogonalLoop=1;jettySize=auto;html=1;fontSize=28;" parent="BBm1sS53cPZoSCzeiZzq-1" source="q0YfwvbicKMwDBuohbKJ-1" target="q0YfwvbicKMwDBuohbKJ-4" edge="1">
          <mxGeometry relative="1" as="geometry" />
        </mxCell>
        <mxCell id="q0YfwvbicKMwDBuohbKJ-1" value="&lt;font style=&quot;font-size: 12px&quot;&gt;前秦&lt;/font&gt;" style="text;html=1;strokeColor=none;fillColor=none;align=center;verticalAlign=middle;whiteSpace=wrap;rounded=0;fontSize=28;" parent="BBm1sS53cPZoSCzeiZzq-1" vertex="1">
          <mxGeometry x="6041" y="169.5" width="40" height="20" as="geometry" />
        </mxCell>
        <mxCell id="q0YfwvbicKMwDBuohbKJ-7" value="" style="edgeStyle=orthogonalEdgeStyle;curved=1;rounded=0;orthogonalLoop=1;jettySize=auto;html=1;fontSize=28;" parent="BBm1sS53cPZoSCzeiZzq-1" source="q0YfwvbicKMwDBuohbKJ-4" target="q0YfwvbicKMwDBuohbKJ-6" edge="1">
          <mxGeometry relative="1" as="geometry" />
        </mxCell>
        <mxCell id="q0YfwvbicKMwDBuohbKJ-4" value="&lt;font style=&quot;font-size: 12px&quot;&gt;苻坚&lt;/font&gt;" style="text;html=1;strokeColor=none;fillColor=none;align=center;verticalAlign=middle;whiteSpace=wrap;rounded=0;fontSize=28;" parent="BBm1sS53cPZoSCzeiZzq-1" vertex="1">
          <mxGeometry x="6041" y="134.5" width="40" height="20" as="geometry" />
        </mxCell>
        <mxCell id="q0YfwvbicKMwDBuohbKJ-6" value="&lt;font style=&quot;font-size: 12px&quot;&gt;淝水之战&lt;/font&gt;" style="text;html=1;strokeColor=none;fillColor=none;align=center;verticalAlign=middle;whiteSpace=wrap;rounded=0;fontSize=28;" parent="BBm1sS53cPZoSCzeiZzq-1" vertex="1">
          <mxGeometry x="6119" y="118" width="50" height="30" as="geometry" />
        </mxCell>
        <mxCell id="q0YfwvbicKMwDBuohbKJ-9" value="" style="edgeStyle=orthogonalEdgeStyle;curved=1;rounded=0;orthogonalLoop=1;jettySize=auto;html=1;fontSize=28;" parent="BBm1sS53cPZoSCzeiZzq-1" source="q0YfwvbicKMwDBuohbKJ-2" target="q0YfwvbicKMwDBuohbKJ-8" edge="1">
          <mxGeometry relative="1" as="geometry" />
        </mxCell>
        <mxCell id="q0YfwvbicKMwDBuohbKJ-2" value="&lt;span style=&quot;font-size: 12px&quot;&gt;后秦（姚秦）&lt;/span&gt;" style="text;html=1;strokeColor=none;fillColor=none;align=center;verticalAlign=middle;whiteSpace=wrap;rounded=0;fontSize=28;" parent="BBm1sS53cPZoSCzeiZzq-1" vertex="1">
          <mxGeometry x="6161" y="169.5" width="78" height="15" as="geometry" />
        </mxCell>
        <mxCell id="q0YfwvbicKMwDBuohbKJ-8" value="&lt;span style=&quot;font-size: 12px&quot;&gt;姚苌&lt;/span&gt;" style="text;html=1;strokeColor=none;fillColor=none;align=center;verticalAlign=middle;whiteSpace=wrap;rounded=0;fontSize=28;" parent="BBm1sS53cPZoSCzeiZzq-1" vertex="1">
          <mxGeometry x="6201" y="116" width="78" height="15" as="geometry" />
        </mxCell>
        <mxCell id="YR14hARBbSJiE14njBP5-3" value="道武帝拓跋珪" style="whiteSpace=wrap;html=1;rounded=1;shadow=1;glass=0;comic=0;labelBackgroundColor=none;fontSize=9;fontColor=#000000;align=center;" parent="BBm1sS53cPZoSCzeiZzq-1" vertex="1">
          <mxGeometry x="6334.5" y="-87.5" width="90" height="30" as="geometry" />
        </mxCell>
        <mxCell id="YR14hARBbSJiE14njBP5-4" value="明元帝拓跋嗣" style="whiteSpace=wrap;html=1;rounded=1;shadow=1;glass=0;comic=0;labelBackgroundColor=none;fontSize=9;fontColor=#000000;align=center;" parent="BBm1sS53cPZoSCzeiZzq-1" vertex="1">
          <mxGeometry x="6334.5" y="-17" width="90" height="30" as="geometry" />
        </mxCell>
        <mxCell id="YR14hARBbSJiE14njBP5-5" value="" style="dashed=1;startArrow=none;startFill=0;fontSize=9;fontColor=#000000;" parent="BBm1sS53cPZoSCzeiZzq-1" source="YR14hARBbSJiE14njBP5-3" target="YR14hARBbSJiE14njBP5-4" edge="1">
          <mxGeometry x="5384.5" y="-988.5" as="geometry" />
        </mxCell>
        <mxCell id="YR14hARBbSJiE14njBP5-6" value="太武帝拓跋焘" style="whiteSpace=wrap;html=1;rounded=1;shadow=1;glass=0;comic=0;labelBackgroundColor=none;fontSize=9;fontColor=#000000;align=center;" parent="BBm1sS53cPZoSCzeiZzq-1" vertex="1">
          <mxGeometry x="6334.5" y="53.5" width="90" height="30" as="geometry" />
        </mxCell>
        <mxCell id="YR14hARBbSJiE14njBP5-7" value="" style="dashed=1;startArrow=none;startFill=0;fontSize=9;fontColor=#000000;" parent="BBm1sS53cPZoSCzeiZzq-1" source="YR14hARBbSJiE14njBP5-4" target="YR14hARBbSJiE14njBP5-6" edge="1">
          <mxGeometry x="5384.5" y="-988.5" as="geometry" />
        </mxCell>
        <mxCell id="YR14hARBbSJiE14njBP5-8" value="敬寿帝拓跋余" style="whiteSpace=wrap;html=1;rounded=1;shadow=1;glass=0;comic=0;labelBackgroundColor=none;fontSize=9;fontColor=#000000;align=center;" parent="BBm1sS53cPZoSCzeiZzq-1" vertex="1">
          <mxGeometry x="6334.5" y="122.5" width="90" height="30" as="geometry" />
        </mxCell>
        <mxCell id="YR14hARBbSJiE14njBP5-9" value="" style="dashed=1;startArrow=none;startFill=0;fontSize=9;fontColor=#000000;" parent="BBm1sS53cPZoSCzeiZzq-1" source="YR14hARBbSJiE14njBP5-6" target="YR14hARBbSJiE14njBP5-8" edge="1">
          <mxGeometry x="5384.5" y="-988.5" as="geometry" />
        </mxCell>
        <mxCell id="YR14hARBbSJiE14njBP5-10" value="景穆帝拓跋晃" style="whiteSpace=wrap;html=1;rounded=1;shadow=1;glass=0;comic=0;labelBackgroundColor=none;fontSize=9;fontColor=#000000;align=center;" parent="BBm1sS53cPZoSCzeiZzq-1" vertex="1">
          <mxGeometry x="6334.5" y="185" width="90" height="30" as="geometry" />
        </mxCell>
        <mxCell id="YR14hARBbSJiE14njBP5-11" value="" style="dashed=1;startArrow=none;startFill=0;fontSize=9;fontColor=#000000;" parent="BBm1sS53cPZoSCzeiZzq-1" source="YR14hARBbSJiE14njBP5-8" target="YR14hARBbSJiE14njBP5-10" edge="1">
          <mxGeometry x="5384.5" y="-988.5" as="geometry" />
        </mxCell>
        <mxCell id="YR14hARBbSJiE14njBP5-12" value="文成帝拓跋濬(浚)" style="whiteSpace=wrap;html=1;rounded=1;shadow=1;glass=0;comic=0;labelBackgroundColor=none;fontSize=9;fontColor=#000000;align=center;" parent="BBm1sS53cPZoSCzeiZzq-1" vertex="1">
          <mxGeometry x="6453.5" y="184.5" width="110" height="30" as="geometry" />
        </mxCell>
        <mxCell id="YR14hARBbSJiE14njBP5-13" value="" style="dashed=1;startArrow=none;startFill=0;fontSize=9;fontColor=#000000;" parent="BBm1sS53cPZoSCzeiZzq-1" source="YR14hARBbSJiE14njBP5-10" target="YR14hARBbSJiE14njBP5-12" edge="1">
          <mxGeometry x="5353.5" y="-994" as="geometry" />
        </mxCell>
        <mxCell id="YR14hARBbSJiE14njBP5-14" value="献文帝拓跋弘" style="whiteSpace=wrap;html=1;rounded=1;shadow=1;glass=0;comic=0;labelBackgroundColor=none;fontSize=9;fontColor=#000000;align=center;" parent="BBm1sS53cPZoSCzeiZzq-1" vertex="1">
          <mxGeometry x="6463.5" y="109.5" width="90" height="30" as="geometry" />
        </mxCell>
        <mxCell id="YR14hARBbSJiE14njBP5-15" value="" style="dashed=1;startArrow=none;startFill=0;fontSize=9;fontColor=#000000;" parent="BBm1sS53cPZoSCzeiZzq-1" source="YR14hARBbSJiE14njBP5-12" target="YR14hARBbSJiE14njBP5-14" edge="1">
          <mxGeometry x="5323.5" y="-995.5" as="geometry" />
        </mxCell>
        <mxCell id="YR14hARBbSJiE14njBP5-16" value="孝文帝拓跋宏" style="whiteSpace=wrap;html=1;rounded=1;shadow=1;glass=0;comic=0;labelBackgroundColor=none;fontSize=9;align=center;fillColor=#ffe6cc;strokeColor=#d79b00;" parent="BBm1sS53cPZoSCzeiZzq-1" vertex="1">
          <mxGeometry x="6463.5" y="32" width="90" height="30" as="geometry" />
        </mxCell>
        <mxCell id="YR14hARBbSJiE14njBP5-17" value="" style="dashed=1;startArrow=none;startFill=0;fontSize=9;fontColor=#000000;" parent="BBm1sS53cPZoSCzeiZzq-1" source="YR14hARBbSJiE14njBP5-14" target="YR14hARBbSJiE14njBP5-16" edge="1">
          <mxGeometry x="5323.5" y="-995.5" as="geometry" />
        </mxCell>
        <mxCell id="YR14hARBbSJiE14njBP5-18" value="宣武帝元恪" style="whiteSpace=wrap;html=1;rounded=1;shadow=1;glass=0;comic=0;labelBackgroundColor=none;fontSize=9;fontColor=#000000;align=center;" parent="BBm1sS53cPZoSCzeiZzq-1" vertex="1">
          <mxGeometry x="6465.5" y="-32" width="80" height="30" as="geometry" />
        </mxCell>
        <mxCell id="YR14hARBbSJiE14njBP5-19" value="" style="dashed=1;startArrow=none;startFill=0;fontSize=9;fontColor=#000000;" parent="BBm1sS53cPZoSCzeiZzq-1" source="YR14hARBbSJiE14njBP5-16" target="YR14hARBbSJiE14njBP5-18" edge="1">
          <mxGeometry x="5323.5" y="-995.5" as="geometry" />
        </mxCell>
        <mxCell id="YR14hARBbSJiE14njBP5-20" value="文景帝元愉" style="whiteSpace=wrap;html=1;rounded=1;shadow=1;glass=0;comic=0;labelBackgroundColor=none;fontSize=9;fontColor=#000000;align=center;" parent="BBm1sS53cPZoSCzeiZzq-1" vertex="1">
          <mxGeometry x="6465.5" y="-85" width="80" height="30" as="geometry" />
        </mxCell>
        <mxCell id="YR14hARBbSJiE14njBP5-21" value="" style="dashed=1;startArrow=none;startFill=0;fontSize=9;fontColor=#000000;" parent="BBm1sS53cPZoSCzeiZzq-1" source="YR14hARBbSJiE14njBP5-18" target="YR14hARBbSJiE14njBP5-20" edge="1">
          <mxGeometry x="5323.5" y="-995.5" as="geometry" />
        </mxCell>
        <mxCell id="YR14hARBbSJiE14njBP5-22" value="孝明帝元诩" style="whiteSpace=wrap;html=1;rounded=1;shadow=1;glass=0;comic=0;labelBackgroundColor=none;fontSize=9;fontColor=#000000;align=center;" parent="BBm1sS53cPZoSCzeiZzq-1" vertex="1">
          <mxGeometry x="6587" y="-84.5" width="80" height="30" as="geometry" />
        </mxCell>
        <mxCell id="YR14hARBbSJiE14njBP5-23" value="" style="dashed=1;startArrow=none;startFill=0;fontSize=9;fontColor=#000000;" parent="BBm1sS53cPZoSCzeiZzq-1" source="YR14hARBbSJiE14njBP5-20" target="YR14hARBbSJiE14njBP5-22" edge="1">
          <mxGeometry x="5288.5" y="-990" as="geometry" />
        </mxCell>
        <mxCell id="YR14hARBbSJiE14njBP5-24" value="隐帝元法僧" style="whiteSpace=wrap;html=1;rounded=1;shadow=1;glass=0;comic=0;labelBackgroundColor=none;fontSize=9;fontColor=#000000;align=center;" parent="BBm1sS53cPZoSCzeiZzq-1" vertex="1">
          <mxGeometry x="6587" y="-25" width="80" height="30" as="geometry" />
        </mxCell>
        <mxCell id="YR14hARBbSJiE14njBP5-25" value="" style="dashed=1;startArrow=none;startFill=0;fontSize=9;fontColor=#000000;" parent="BBm1sS53cPZoSCzeiZzq-1" source="YR14hARBbSJiE14njBP5-22" target="YR14hARBbSJiE14njBP5-24" edge="1">
          <mxGeometry x="5288.5" y="-990" as="geometry" />
        </mxCell>
        <mxCell id="YR14hARBbSJiE14njBP5-26" value="少帝元钊" style="whiteSpace=wrap;html=1;rounded=1;shadow=1;glass=0;comic=0;labelBackgroundColor=none;fontSize=9;fontColor=#000000;align=center;" parent="BBm1sS53cPZoSCzeiZzq-1" vertex="1">
          <mxGeometry x="6587" y="34.5" width="80" height="30" as="geometry" />
        </mxCell>
        <mxCell id="YR14hARBbSJiE14njBP5-27" value="" style="dashed=1;startArrow=none;startFill=0;fontSize=9;fontColor=#000000;" parent="BBm1sS53cPZoSCzeiZzq-1" source="YR14hARBbSJiE14njBP5-24" target="YR14hARBbSJiE14njBP5-26" edge="1">
          <mxGeometry x="5288.5" y="-990" as="geometry" />
        </mxCell>
        <mxCell id="YR14hARBbSJiE14njBP5-28" value="文穆帝元勰" style="whiteSpace=wrap;html=1;rounded=1;shadow=1;glass=0;comic=0;labelBackgroundColor=none;fontSize=9;fontColor=#000000;align=center;" parent="BBm1sS53cPZoSCzeiZzq-1" vertex="1">
          <mxGeometry x="6587" y="106.5" width="80" height="30" as="geometry" />
        </mxCell>
        <mxCell id="YR14hARBbSJiE14njBP5-29" value="" style="dashed=1;startArrow=none;startFill=0;fontSize=9;fontColor=#000000;" parent="BBm1sS53cPZoSCzeiZzq-1" source="YR14hARBbSJiE14njBP5-26" target="YR14hARBbSJiE14njBP5-28" edge="1">
          <mxGeometry x="5288.5" y="-990" as="geometry" />
        </mxCell>
        <mxCell id="YR14hARBbSJiE14njBP5-30" value="孝宣帝元劭" style="whiteSpace=wrap;html=1;rounded=1;shadow=1;glass=0;comic=0;labelBackgroundColor=none;fontSize=9;fontColor=#000000;align=center;" parent="BBm1sS53cPZoSCzeiZzq-1" vertex="1">
          <mxGeometry x="6587" y="182.5" width="80" height="30" as="geometry" />
        </mxCell>
        <mxCell id="YR14hARBbSJiE14njBP5-31" value="" style="dashed=1;startArrow=none;startFill=0;fontSize=9;fontColor=#000000;" parent="BBm1sS53cPZoSCzeiZzq-1" source="YR14hARBbSJiE14njBP5-28" target="YR14hARBbSJiE14njBP5-30" edge="1">
          <mxGeometry x="5258.5" y="-988.5" as="geometry" />
        </mxCell>
        <mxCell id="YR14hARBbSJiE14njBP5-32" value="孝庄帝元子攸" style="whiteSpace=wrap;html=1;rounded=1;shadow=1;glass=0;comic=0;labelBackgroundColor=none;fontSize=9;fontColor=#000000;align=center;" parent="BBm1sS53cPZoSCzeiZzq-1" vertex="1">
          <mxGeometry x="6706" y="177" width="90" height="30" as="geometry" />
        </mxCell>
        <mxCell id="YR14hARBbSJiE14njBP5-33" value="" style="dashed=1;startArrow=none;startFill=0;fontSize=9;fontColor=#000000;" parent="BBm1sS53cPZoSCzeiZzq-1" source="YR14hARBbSJiE14njBP5-30" target="YR14hARBbSJiE14njBP5-32" edge="1">
          <mxGeometry x="5258.5" y="-988.5" as="geometry" />
        </mxCell>
        <mxCell id="YR14hARBbSJiE14njBP5-34" value="顺帝元颢" style="whiteSpace=wrap;html=1;rounded=1;shadow=1;glass=0;comic=0;labelBackgroundColor=none;fontSize=9;fontColor=#000000;align=center;" parent="BBm1sS53cPZoSCzeiZzq-1" vertex="1">
          <mxGeometry x="6711" y="108.5" width="80" height="30" as="geometry" />
        </mxCell>
        <mxCell id="YR14hARBbSJiE14njBP5-35" value="" style="dashed=1;startArrow=none;startFill=0;fontSize=9;fontColor=#000000;" parent="BBm1sS53cPZoSCzeiZzq-1" source="YR14hARBbSJiE14njBP5-32" target="YR14hARBbSJiE14njBP5-34" edge="1">
          <mxGeometry x="6763" y="-938.5" as="geometry" />
        </mxCell>
        <mxCell id="YR14hARBbSJiE14njBP5-36" value="惠哀帝元晔" style="whiteSpace=wrap;html=1;rounded=1;shadow=1;glass=0;comic=0;labelBackgroundColor=none;fontSize=9;fontColor=#000000;align=center;" parent="BBm1sS53cPZoSCzeiZzq-1" vertex="1">
          <mxGeometry x="6710.5" y="34.5" width="80" height="30" as="geometry" />
        </mxCell>
        <mxCell id="YR14hARBbSJiE14njBP5-37" value="" style="dashed=1;startArrow=none;startFill=0;fontSize=9;fontColor=#000000;" parent="BBm1sS53cPZoSCzeiZzq-1" source="YR14hARBbSJiE14njBP5-34" target="YR14hARBbSJiE14njBP5-36" edge="1">
          <mxGeometry x="6763" y="-938.5" as="geometry" />
        </mxCell>
        <mxCell id="YR14hARBbSJiE14njBP5-38" value="节闵帝元恭" style="whiteSpace=wrap;html=1;rounded=1;shadow=1;glass=0;comic=0;labelBackgroundColor=none;fontSize=9;fontColor=#000000;align=center;" parent="BBm1sS53cPZoSCzeiZzq-1" vertex="1">
          <mxGeometry x="6706" y="-26" width="80" height="30" as="geometry" />
        </mxCell>
        <mxCell id="YR14hARBbSJiE14njBP5-39" value="" style="dashed=1;startArrow=none;startFill=0;fontSize=9;fontColor=#000000;" parent="BBm1sS53cPZoSCzeiZzq-1" source="YR14hARBbSJiE14njBP5-36" target="YR14hARBbSJiE14njBP5-38" edge="1">
          <mxGeometry x="6763" y="-938.5" as="geometry" />
        </mxCell>
        <mxCell id="YR14hARBbSJiE14njBP5-40" value="顺文帝元朗" style="whiteSpace=wrap;html=1;rounded=1;shadow=1;glass=0;comic=0;labelBackgroundColor=none;fontSize=9;fontColor=#000000;align=center;" parent="BBm1sS53cPZoSCzeiZzq-1" vertex="1">
          <mxGeometry x="6705.5" y="-85" width="80" height="30" as="geometry" />
        </mxCell>
        <mxCell id="YR14hARBbSJiE14njBP5-41" value="" style="dashed=1;startArrow=none;startFill=0;fontSize=9;fontColor=#000000;" parent="BBm1sS53cPZoSCzeiZzq-1" source="YR14hARBbSJiE14njBP5-38" target="YR14hARBbSJiE14njBP5-40" edge="1">
          <mxGeometry x="5238.5" y="-987" as="geometry" />
        </mxCell>
        <mxCell id="YR14hARBbSJiE14njBP5-42" value="武穆帝元怀" style="whiteSpace=wrap;html=1;rounded=1;shadow=1;glass=0;comic=0;labelBackgroundColor=none;fontSize=9;fontColor=#000000;align=center;" parent="BBm1sS53cPZoSCzeiZzq-1" vertex="1">
          <mxGeometry x="6815.5" y="-84.5" width="80" height="30" as="geometry" />
        </mxCell>
        <mxCell id="YR14hARBbSJiE14njBP5-43" value="" style="dashed=1;startArrow=none;startFill=0;fontSize=9;fontColor=#000000;" parent="BBm1sS53cPZoSCzeiZzq-1" source="YR14hARBbSJiE14njBP5-40" target="YR14hARBbSJiE14njBP5-42" edge="1">
          <mxGeometry x="6857.5" y="-387" as="geometry" />
        </mxCell>
        <mxCell id="YR14hARBbSJiE14njBP5-44" value="出帝元修" style="whiteSpace=wrap;html=1;rounded=1;shadow=1;glass=0;comic=0;labelBackgroundColor=none;fontSize=9;fontColor=#000000;align=center;" parent="BBm1sS53cPZoSCzeiZzq-1" vertex="1">
          <mxGeometry x="6815.5" y="-32" width="80" height="30" as="geometry" />
        </mxCell>
        <mxCell id="YR14hARBbSJiE14njBP5-45" value="" style="dashed=1;startArrow=none;startFill=0;fontSize=9;fontColor=#000000;" parent="BBm1sS53cPZoSCzeiZzq-1" source="YR14hARBbSJiE14njBP5-42" target="YR14hARBbSJiE14njBP5-44" edge="1">
          <mxGeometry x="6857.5" y="-387" as="geometry" />
        </mxCell>
        <mxCell id="YR14hARBbSJiE14njBP5-50" value="唐高祖—李渊" style="whiteSpace=wrap;html=1;" parent="BBm1sS53cPZoSCzeiZzq-1" vertex="1">
          <mxGeometry x="7415" y="192" width="90" height="30" as="geometry" />
        </mxCell>
        <mxCell id="YR14hARBbSJiE14njBP5-51" value="唐太宗—李世民" style="whiteSpace=wrap;html=1;" parent="BBm1sS53cPZoSCzeiZzq-1" vertex="1">
          <mxGeometry x="7410" y="259.5" width="100" height="30" as="geometry" />
        </mxCell>
        <mxCell id="YR14hARBbSJiE14njBP5-52" value="" parent="BBm1sS53cPZoSCzeiZzq-1" source="YR14hARBbSJiE14njBP5-50" target="YR14hARBbSJiE14njBP5-51" edge="1">
          <mxGeometry x="6445" y="-1403" as="geometry" />
        </mxCell>
        <mxCell id="YR14hARBbSJiE14njBP5-53" value="唐高宗—李治 " style="whiteSpace=wrap;html=1;" parent="BBm1sS53cPZoSCzeiZzq-1" vertex="1">
          <mxGeometry x="7415" y="320" width="90" height="30" as="geometry" />
        </mxCell>
        <mxCell id="YR14hARBbSJiE14njBP5-54" value="" parent="BBm1sS53cPZoSCzeiZzq-1" source="YR14hARBbSJiE14njBP5-51" target="YR14hARBbSJiE14njBP5-53" edge="1">
          <mxGeometry x="6445" y="-1403" as="geometry" />
        </mxCell>
        <mxCell id="YR14hARBbSJiE14njBP5-55" value="圣神皇帝—武则天" style="whiteSpace=wrap;html=1;" parent="BBm1sS53cPZoSCzeiZzq-1" vertex="1">
          <mxGeometry x="7405" y="397" width="110" height="30" as="geometry" />
        </mxCell>
        <mxCell id="YR14hARBbSJiE14njBP5-56" value="" parent="BBm1sS53cPZoSCzeiZzq-1" source="YR14hARBbSJiE14njBP5-53" target="YR14hARBbSJiE14njBP5-55" edge="1">
          <mxGeometry x="6445" y="-1403" as="geometry" />
        </mxCell>
        <mxCell id="YR14hARBbSJiE14njBP5-57" value="唐中宗—李显" style="whiteSpace=wrap;html=1;" parent="BBm1sS53cPZoSCzeiZzq-1" vertex="1">
          <mxGeometry x="7415" y="462.5" width="90" height="30" as="geometry" />
        </mxCell>
        <mxCell id="YR14hARBbSJiE14njBP5-58" value="" parent="BBm1sS53cPZoSCzeiZzq-1" source="YR14hARBbSJiE14njBP5-55" target="YR14hARBbSJiE14njBP5-57" edge="1">
          <mxGeometry x="6664" y="-844" as="geometry" />
        </mxCell>
        <mxCell id="YR14hARBbSJiE14njBP5-59" value="唐睿宗—李旦" style="whiteSpace=wrap;html=1;" parent="BBm1sS53cPZoSCzeiZzq-1" vertex="1">
          <mxGeometry x="7580" y="462" width="90" height="30" as="geometry" />
        </mxCell>
        <mxCell id="YR14hARBbSJiE14njBP5-60" value="" parent="BBm1sS53cPZoSCzeiZzq-1" source="YR14hARBbSJiE14njBP5-57" target="YR14hARBbSJiE14njBP5-59" edge="1">
          <mxGeometry x="6664" y="-844" as="geometry" />
        </mxCell>
        <mxCell id="YR14hARBbSJiE14njBP5-61" value="唐玄宗—李隆" style="whiteSpace=wrap;html=1;" parent="BBm1sS53cPZoSCzeiZzq-1" vertex="1">
          <mxGeometry x="7580" y="387" width="90" height="30" as="geometry" />
        </mxCell>
        <mxCell id="YR14hARBbSJiE14njBP5-62" value="" parent="BBm1sS53cPZoSCzeiZzq-1" source="YR14hARBbSJiE14njBP5-59" target="YR14hARBbSJiE14njBP5-61" edge="1">
          <mxGeometry x="6480" y="-1398" as="geometry" />
        </mxCell>
        <mxCell id="YR14hARBbSJiE14njBP5-63" value="唐肃宗—李亨" style="whiteSpace=wrap;html=1;" parent="BBm1sS53cPZoSCzeiZzq-1" vertex="1">
          <mxGeometry x="7580" y="317" width="90" height="30" as="geometry" />
        </mxCell>
        <mxCell id="YR14hARBbSJiE14njBP5-64" value="" parent="BBm1sS53cPZoSCzeiZzq-1" source="YR14hARBbSJiE14njBP5-61" target="YR14hARBbSJiE14njBP5-63" edge="1">
          <mxGeometry x="6775" y="-679" as="geometry" />
        </mxCell>
        <mxCell id="YR14hARBbSJiE14njBP5-65" value="唐代宗—李豫" style="whiteSpace=wrap;html=1;" parent="BBm1sS53cPZoSCzeiZzq-1" vertex="1">
          <mxGeometry x="7580" y="252" width="90" height="30" as="geometry" />
        </mxCell>
        <mxCell id="YR14hARBbSJiE14njBP5-66" value="" parent="BBm1sS53cPZoSCzeiZzq-1" source="YR14hARBbSJiE14njBP5-63" target="YR14hARBbSJiE14njBP5-65" edge="1">
          <mxGeometry x="6775" y="-679" as="geometry" />
        </mxCell>
        <mxCell id="YR14hARBbSJiE14njBP5-67" value="唐德宗—李适" style="whiteSpace=wrap;html=1;" parent="BBm1sS53cPZoSCzeiZzq-1" vertex="1">
          <mxGeometry x="7580" y="192" width="90" height="30" as="geometry" />
        </mxCell>
        <mxCell id="YR14hARBbSJiE14njBP5-68" value="" parent="BBm1sS53cPZoSCzeiZzq-1" source="YR14hARBbSJiE14njBP5-65" target="YR14hARBbSJiE14njBP5-67" edge="1">
          <mxGeometry x="6775" y="-679" as="geometry" />
        </mxCell>
        <mxCell id="YR14hARBbSJiE14njBP5-69" value="唐顺宗—李诵 " style="whiteSpace=wrap;html=1;" parent="BBm1sS53cPZoSCzeiZzq-1" vertex="1">
          <mxGeometry x="7740" y="194" width="90" height="30" as="geometry" />
        </mxCell>
        <mxCell id="YR14hARBbSJiE14njBP5-70" value="" parent="BBm1sS53cPZoSCzeiZzq-1" source="YR14hARBbSJiE14njBP5-67" target="YR14hARBbSJiE14njBP5-69" edge="1">
          <mxGeometry x="6740" y="-684" as="geometry" />
        </mxCell>
        <mxCell id="YR14hARBbSJiE14njBP5-71" value="唐宪宗—李纯" style="whiteSpace=wrap;html=1;" parent="BBm1sS53cPZoSCzeiZzq-1" vertex="1">
          <mxGeometry x="7740" y="254" width="90" height="30" as="geometry" />
        </mxCell>
        <mxCell id="YR14hARBbSJiE14njBP5-72" value="" parent="BBm1sS53cPZoSCzeiZzq-1" source="YR14hARBbSJiE14njBP5-69" target="YR14hARBbSJiE14njBP5-71" edge="1">
          <mxGeometry x="6760" y="-682" as="geometry" />
        </mxCell>
        <mxCell id="YR14hARBbSJiE14njBP5-73" value="唐穆宗—李恒 " style="whiteSpace=wrap;html=1;" parent="BBm1sS53cPZoSCzeiZzq-1" vertex="1">
          <mxGeometry x="7740" y="314" width="90" height="30" as="geometry" />
        </mxCell>
        <mxCell id="YR14hARBbSJiE14njBP5-74" value="" parent="BBm1sS53cPZoSCzeiZzq-1" source="YR14hARBbSJiE14njBP5-71" target="YR14hARBbSJiE14njBP5-73" edge="1">
          <mxGeometry x="6760" y="-682" as="geometry" />
        </mxCell>
        <mxCell id="YR14hARBbSJiE14njBP5-75" value="唐敬宗—李湛 " style="whiteSpace=wrap;html=1;" parent="BBm1sS53cPZoSCzeiZzq-1" vertex="1">
          <mxGeometry x="7740" y="389" width="90" height="30" as="geometry" />
        </mxCell>
        <mxCell id="YR14hARBbSJiE14njBP5-76" value="" parent="BBm1sS53cPZoSCzeiZzq-1" source="YR14hARBbSJiE14njBP5-73" target="YR14hARBbSJiE14njBP5-75" edge="1">
          <mxGeometry x="6760" y="-682" as="geometry" />
        </mxCell>
        <mxCell id="YR14hARBbSJiE14njBP5-77" value="唐文宗—李昂" style="whiteSpace=wrap;html=1;" parent="BBm1sS53cPZoSCzeiZzq-1" vertex="1">
          <mxGeometry x="7740" y="459" width="90" height="30" as="geometry" />
        </mxCell>
        <mxCell id="YR14hARBbSJiE14njBP5-78" value="" parent="BBm1sS53cPZoSCzeiZzq-1" source="YR14hARBbSJiE14njBP5-75" target="YR14hARBbSJiE14njBP5-77" edge="1">
          <mxGeometry x="7959" y="-247" as="geometry" />
        </mxCell>
        <mxCell id="YR14hARBbSJiE14njBP5-79" value="唐武宗—李炎" style="whiteSpace=wrap;html=1;" parent="BBm1sS53cPZoSCzeiZzq-1" vertex="1">
          <mxGeometry x="7900" y="459" width="90" height="30" as="geometry" />
        </mxCell>
        <mxCell id="YR14hARBbSJiE14njBP5-80" value="" parent="BBm1sS53cPZoSCzeiZzq-1" source="YR14hARBbSJiE14njBP5-77" target="YR14hARBbSJiE14njBP5-79" edge="1">
          <mxGeometry x="7959" y="-247" as="geometry" />
        </mxCell>
        <mxCell id="YR14hARBbSJiE14njBP5-81" value="唐宣宗—李忱" style="whiteSpace=wrap;html=1;" parent="BBm1sS53cPZoSCzeiZzq-1" vertex="1">
          <mxGeometry x="7900" y="384" width="90" height="30" as="geometry" />
        </mxCell>
        <mxCell id="YR14hARBbSJiE14njBP5-82" value="" parent="BBm1sS53cPZoSCzeiZzq-1" source="YR14hARBbSJiE14njBP5-79" target="YR14hARBbSJiE14njBP5-81" edge="1">
          <mxGeometry x="7959" y="-247" as="geometry" />
        </mxCell>
        <mxCell id="YR14hARBbSJiE14njBP5-83" value="唐懿宗—李凗" style="whiteSpace=wrap;html=1;" parent="BBm1sS53cPZoSCzeiZzq-1" vertex="1">
          <mxGeometry x="7900" y="311.5" width="90" height="30" as="geometry" />
        </mxCell>
        <mxCell id="YR14hARBbSJiE14njBP5-84" value="" parent="BBm1sS53cPZoSCzeiZzq-1" source="YR14hARBbSJiE14njBP5-81" target="YR14hARBbSJiE14njBP5-83" edge="1">
          <mxGeometry x="7959" y="-247" as="geometry" />
        </mxCell>
        <mxCell id="YR14hARBbSJiE14njBP5-85" value="唐僖宗—李儇 " style="whiteSpace=wrap;html=1;" parent="BBm1sS53cPZoSCzeiZzq-1" vertex="1">
          <mxGeometry x="7900" y="253" width="90" height="30" as="geometry" />
        </mxCell>
        <mxCell id="YR14hARBbSJiE14njBP5-86" value="" parent="BBm1sS53cPZoSCzeiZzq-1" source="YR14hARBbSJiE14njBP5-83" target="YR14hARBbSJiE14njBP5-85" edge="1">
          <mxGeometry x="7959" y="-247" as="geometry" />
        </mxCell>
        <mxCell id="YR14hARBbSJiE14njBP5-87" value="唐昭宗—李晔 " style="whiteSpace=wrap;html=1;" parent="BBm1sS53cPZoSCzeiZzq-1" vertex="1">
          <mxGeometry x="7900" y="194" width="90" height="30" as="geometry" />
        </mxCell>
        <mxCell id="YR14hARBbSJiE14njBP5-88" value="" parent="BBm1sS53cPZoSCzeiZzq-1" source="YR14hARBbSJiE14njBP5-85" target="YR14hARBbSJiE14njBP5-87" edge="1">
          <mxGeometry x="6760" y="-682" as="geometry" />
        </mxCell>
        <mxCell id="YR14hARBbSJiE14njBP5-89" value="唐哀帝—李祝" style="whiteSpace=wrap;html=1;" parent="BBm1sS53cPZoSCzeiZzq-1" vertex="1">
          <mxGeometry x="8050" y="194" width="90" height="30" as="geometry" />
        </mxCell>
        <mxCell id="YR14hARBbSJiE14njBP5-90" value="" parent="BBm1sS53cPZoSCzeiZzq-1" source="YR14hARBbSJiE14njBP5-87" target="YR14hARBbSJiE14njBP5-89" edge="1">
          <mxGeometry x="7909" y="290" as="geometry" />
        </mxCell>
        <mxCell id="YR14hARBbSJiE14njBP5-95" value="明朝十六帝" style="text;html=1;strokeColor=none;fillColor=none;align=center;verticalAlign=middle;whiteSpace=wrap;rounded=0;labelBackgroundColor=#ffffff;fontSize=24;" parent="BBm1sS53cPZoSCzeiZzq-1" vertex="1">
          <mxGeometry x="10603" y="290" width="160" height="60" as="geometry" />
        </mxCell>
        <mxCell id="YR14hARBbSJiE14njBP5-96" value="明太祖朱元璋" style="whiteSpace=wrap;html=1;" parent="BBm1sS53cPZoSCzeiZzq-1" vertex="1">
          <mxGeometry x="10673" y="365" width="90" height="30" as="geometry" />
        </mxCell>
        <mxCell id="YR14hARBbSJiE14njBP5-97" value="明惠帝朱允炆" style="whiteSpace=wrap;html=1;" parent="BBm1sS53cPZoSCzeiZzq-1" vertex="1">
          <mxGeometry x="10674" y="465" width="90" height="30" as="geometry" />
        </mxCell>
        <mxCell id="YR14hARBbSJiE14njBP5-98" value="" parent="BBm1sS53cPZoSCzeiZzq-1" source="YR14hARBbSJiE14njBP5-96" target="YR14hARBbSJiE14njBP5-97" edge="1">
          <mxGeometry x="9809" y="-95" as="geometry" />
        </mxCell>
        <mxCell id="YR14hARBbSJiE14njBP5-99" value="明成祖朱棣" style="whiteSpace=wrap;html=1;" parent="BBm1sS53cPZoSCzeiZzq-1" vertex="1">
          <mxGeometry x="10825" y="465" width="80" height="30" as="geometry" />
        </mxCell>
        <mxCell id="YR14hARBbSJiE14njBP5-100" value="" parent="BBm1sS53cPZoSCzeiZzq-1" source="YR14hARBbSJiE14njBP5-97" target="YR14hARBbSJiE14njBP5-99" edge="1">
          <mxGeometry x="9809" y="-95" as="geometry" />
        </mxCell>
        <mxCell id="YR14hARBbSJiE14njBP5-101" value="明仁宗朱高炽" style="whiteSpace=wrap;html=1;" parent="BBm1sS53cPZoSCzeiZzq-1" vertex="1">
          <mxGeometry x="10820" y="365" width="90" height="30" as="geometry" />
        </mxCell>
        <mxCell id="YR14hARBbSJiE14njBP5-102" value="" parent="BBm1sS53cPZoSCzeiZzq-1" source="YR14hARBbSJiE14njBP5-99" target="YR14hARBbSJiE14njBP5-101" edge="1">
          <mxGeometry x="9809" y="-95" as="geometry" />
        </mxCell>
        <mxCell id="YR14hARBbSJiE14njBP5-103" value="明宣宗朱瞻基" style="whiteSpace=wrap;html=1;" parent="BBm1sS53cPZoSCzeiZzq-1" vertex="1">
          <mxGeometry x="10960" y="365" width="90" height="30" as="geometry" />
        </mxCell>
        <mxCell id="YR14hARBbSJiE14njBP5-104" value="" parent="BBm1sS53cPZoSCzeiZzq-1" source="YR14hARBbSJiE14njBP5-101" target="YR14hARBbSJiE14njBP5-103" edge="1">
          <mxGeometry x="9809" y="-95" as="geometry" />
        </mxCell>
        <mxCell id="YR14hARBbSJiE14njBP5-105" value="明英宗朱祁镇" style="whiteSpace=wrap;html=1;" parent="BBm1sS53cPZoSCzeiZzq-1" vertex="1">
          <mxGeometry x="10960" y="465" width="90" height="30" as="geometry" />
        </mxCell>
        <mxCell id="YR14hARBbSJiE14njBP5-106" value="" parent="BBm1sS53cPZoSCzeiZzq-1" source="YR14hARBbSJiE14njBP5-103" target="YR14hARBbSJiE14njBP5-105" edge="1">
          <mxGeometry x="9809" y="-95" as="geometry" />
        </mxCell>
        <mxCell id="YR14hARBbSJiE14njBP5-107" value="明代宗朱祁钰" style="whiteSpace=wrap;html=1;" parent="BBm1sS53cPZoSCzeiZzq-1" vertex="1">
          <mxGeometry x="11112" y="465" width="90" height="30" as="geometry" />
        </mxCell>
        <mxCell id="YR14hARBbSJiE14njBP5-108" value="" parent="BBm1sS53cPZoSCzeiZzq-1" source="YR14hARBbSJiE14njBP5-105" target="YR14hARBbSJiE14njBP5-107" edge="1">
          <mxGeometry x="9809" y="-95" as="geometry" />
        </mxCell>
        <mxCell id="YR14hARBbSJiE14njBP5-109" value="明宪宗朱见深" style="whiteSpace=wrap;html=1;" parent="BBm1sS53cPZoSCzeiZzq-1" vertex="1">
          <mxGeometry x="11110" y="365" width="90" height="30" as="geometry" />
        </mxCell>
        <mxCell id="YR14hARBbSJiE14njBP5-110" value="" parent="BBm1sS53cPZoSCzeiZzq-1" source="YR14hARBbSJiE14njBP5-107" target="YR14hARBbSJiE14njBP5-109" edge="1">
          <mxGeometry x="9809" y="-95" as="geometry" />
        </mxCell>
        <mxCell id="YR14hARBbSJiE14njBP5-111" value="明孝宗朱佑樘" style="whiteSpace=wrap;html=1;fillColor=#dae8fc;strokeColor=#6c8ebf;" parent="BBm1sS53cPZoSCzeiZzq-1" vertex="1">
          <mxGeometry x="11260" y="364.5" width="90" height="30" as="geometry" />
        </mxCell>
        <mxCell id="YR14hARBbSJiE14njBP5-112" value="" parent="BBm1sS53cPZoSCzeiZzq-1" source="YR14hARBbSJiE14njBP5-109" target="YR14hARBbSJiE14njBP5-111" edge="1">
          <mxGeometry x="10660.5" y="5" as="geometry" />
        </mxCell>
        <mxCell id="YR14hARBbSJiE14njBP5-113" value="明武宗朱厚照" style="whiteSpace=wrap;html=1;" parent="BBm1sS53cPZoSCzeiZzq-1" vertex="1">
          <mxGeometry x="11261.5" y="465" width="90" height="30" as="geometry" />
        </mxCell>
        <mxCell id="YR14hARBbSJiE14njBP5-114" value="" parent="BBm1sS53cPZoSCzeiZzq-1" source="YR14hARBbSJiE14njBP5-111" target="YR14hARBbSJiE14njBP5-113" edge="1">
          <mxGeometry x="10660.5" y="5" as="geometry" />
        </mxCell>
        <mxCell id="YR14hARBbSJiE14njBP5-115" value="明世宗朱厚熜" style="whiteSpace=wrap;html=1;" parent="BBm1sS53cPZoSCzeiZzq-1" vertex="1">
          <mxGeometry x="11391.5" y="465" width="90" height="30" as="geometry" />
        </mxCell>
        <mxCell id="YR14hARBbSJiE14njBP5-116" value="" parent="BBm1sS53cPZoSCzeiZzq-1" source="YR14hARBbSJiE14njBP5-113" target="YR14hARBbSJiE14njBP5-115" edge="1">
          <mxGeometry x="10660.5" y="5" as="geometry" />
        </mxCell>
        <mxCell id="YR14hARBbSJiE14njBP5-117" value="明穆宗朱载垕" style="whiteSpace=wrap;html=1;" parent="BBm1sS53cPZoSCzeiZzq-1" vertex="1">
          <mxGeometry x="11391.5" y="365" width="90" height="30" as="geometry" />
        </mxCell>
        <mxCell id="YR14hARBbSJiE14njBP5-118" value="" parent="BBm1sS53cPZoSCzeiZzq-1" source="YR14hARBbSJiE14njBP5-115" target="YR14hARBbSJiE14njBP5-117" edge="1">
          <mxGeometry x="10660.5" y="5" as="geometry" />
        </mxCell>
        <mxCell id="YR14hARBbSJiE14njBP5-119" value="明神宗朱翊钧" style="whiteSpace=wrap;html=1;" parent="BBm1sS53cPZoSCzeiZzq-1" vertex="1">
          <mxGeometry x="11541.5" y="365" width="90" height="30" as="geometry" />
        </mxCell>
        <mxCell id="YR14hARBbSJiE14njBP5-120" value="" parent="BBm1sS53cPZoSCzeiZzq-1" source="YR14hARBbSJiE14njBP5-117" target="YR14hARBbSJiE14njBP5-119" edge="1">
          <mxGeometry x="10660.5" y="5" as="geometry" />
        </mxCell>
        <mxCell id="YR14hARBbSJiE14njBP5-121" value="明光宗朱常洛" style="whiteSpace=wrap;html=1;" parent="BBm1sS53cPZoSCzeiZzq-1" vertex="1">
          <mxGeometry x="11541.5" y="465" width="90" height="30" as="geometry" />
        </mxCell>
        <mxCell id="YR14hARBbSJiE14njBP5-122" value="" parent="BBm1sS53cPZoSCzeiZzq-1" source="YR14hARBbSJiE14njBP5-119" target="YR14hARBbSJiE14njBP5-121" edge="1">
          <mxGeometry x="10660.5" y="5" as="geometry" />
        </mxCell>
        <mxCell id="YR14hARBbSJiE14njBP5-123" value="明熹宗朱由校" style="whiteSpace=wrap;html=1;" parent="BBm1sS53cPZoSCzeiZzq-1" vertex="1">
          <mxGeometry x="11691.5" y="465" width="90" height="30" as="geometry" />
        </mxCell>
        <mxCell id="YR14hARBbSJiE14njBP5-124" value="" parent="BBm1sS53cPZoSCzeiZzq-1" source="YR14hARBbSJiE14njBP5-121" target="YR14hARBbSJiE14njBP5-123" edge="1">
          <mxGeometry x="10660.5" y="5" as="geometry" />
        </mxCell>
        <mxCell id="YR14hARBbSJiE14njBP5-125" value="明思宗朱由检" style="whiteSpace=wrap;html=1;" parent="BBm1sS53cPZoSCzeiZzq-1" vertex="1">
          <mxGeometry x="11691.5" y="365" width="90" height="30" as="geometry" />
        </mxCell>
        <mxCell id="YR14hARBbSJiE14njBP5-126" value="" parent="BBm1sS53cPZoSCzeiZzq-1" source="YR14hARBbSJiE14njBP5-123" target="YR14hARBbSJiE14njBP5-125" edge="1">
          <mxGeometry x="10660.5" y="5" as="geometry" />
        </mxCell>
        <mxCell id="YR14hARBbSJiE14njBP5-127" style="edgeStyle=orthogonalEdgeStyle;rounded=0;orthogonalLoop=1;jettySize=auto;html=1;exitX=0.5;exitY=1;exitDx=0;exitDy=0;" parent="BBm1sS53cPZoSCzeiZzq-1" source="YR14hARBbSJiE14njBP5-125" target="YR14hARBbSJiE14njBP5-125" edge="1">
          <mxGeometry relative="1" as="geometry" />
        </mxCell>
        <mxCell id="YR14hARBbSJiE14njBP5-128" value="北宋九帝&lt;br&gt;" style="text;html=1;strokeColor=none;fillColor=none;align=center;verticalAlign=middle;whiteSpace=wrap;rounded=0;labelBackgroundColor=#ffffff;fontSize=24;" parent="BBm1sS53cPZoSCzeiZzq-1" vertex="1">
          <mxGeometry x="8743" y="235" width="104" height="30" as="geometry" />
        </mxCell>
        <mxCell id="YR14hARBbSJiE14njBP5-129" value="" style="edgeStyle=orthogonalEdgeStyle;curved=1;rounded=0;orthogonalLoop=1;jettySize=auto;html=1;fontSize=11;" parent="BBm1sS53cPZoSCzeiZzq-1" source="YR14hARBbSJiE14njBP5-130" target="YR14hARBbSJiE14njBP5-132" edge="1">
          <mxGeometry relative="1" as="geometry" />
        </mxCell>
        <mxCell id="YR14hARBbSJiE14njBP5-130" value="开封&lt;br&gt;" style="rounded=1;whiteSpace=wrap;html=1;fontSize=11;fillColor=#e1d5e7;strokeColor=#9673a6;" parent="BBm1sS53cPZoSCzeiZzq-1" vertex="1">
          <mxGeometry x="8795" y="530" width="30" height="15" as="geometry" />
        </mxCell>
        <mxCell id="YR14hARBbSJiE14njBP5-131" value="" style="edgeStyle=orthogonalEdgeStyle;curved=1;rounded=0;orthogonalLoop=1;jettySize=auto;html=1;fontSize=11;" parent="BBm1sS53cPZoSCzeiZzq-1" source="YR14hARBbSJiE14njBP5-132" target="YR14hARBbSJiE14njBP5-133" edge="1">
          <mxGeometry relative="1" as="geometry" />
        </mxCell>
        <mxCell id="YR14hARBbSJiE14njBP5-132" value="建康府" style="rounded=1;whiteSpace=wrap;html=1;fontSize=11;fillColor=#e1d5e7;strokeColor=#9673a6;" parent="BBm1sS53cPZoSCzeiZzq-1" vertex="1">
          <mxGeometry x="8900" y="720" width="46" height="15" as="geometry" />
        </mxCell>
        <mxCell id="YR14hARBbSJiE14njBP5-133" value="临安府" style="rounded=1;whiteSpace=wrap;html=1;fontSize=11;fillColor=#e1d5e7;strokeColor=#9673a6;" parent="BBm1sS53cPZoSCzeiZzq-1" vertex="1">
          <mxGeometry x="9026" y="720" width="46" height="15" as="geometry" />
        </mxCell>
        <mxCell id="YR14hARBbSJiE14njBP5-134" value="宋太祖赵匡胤" style="whiteSpace=wrap;html=1;" parent="BBm1sS53cPZoSCzeiZzq-1" vertex="1">
          <mxGeometry x="8743" y="328" width="90" height="30" as="geometry" />
        </mxCell>
        <mxCell id="YR14hARBbSJiE14njBP5-135" value="宋太宗赵光义" style="whiteSpace=wrap;html=1;" parent="BBm1sS53cPZoSCzeiZzq-1" vertex="1">
          <mxGeometry x="8743" y="429" width="90" height="30" as="geometry" />
        </mxCell>
        <mxCell id="YR14hARBbSJiE14njBP5-136" value="" parent="BBm1sS53cPZoSCzeiZzq-1" source="YR14hARBbSJiE14njBP5-134" target="YR14hARBbSJiE14njBP5-135" edge="1">
          <mxGeometry x="7612" y="318" as="geometry" />
        </mxCell>
        <mxCell id="YR14hARBbSJiE14njBP5-137" value="宋真宗赵恒" style="whiteSpace=wrap;html=1;" parent="BBm1sS53cPZoSCzeiZzq-1" vertex="1">
          <mxGeometry x="8883.5" y="429.5" width="80" height="30" as="geometry" />
        </mxCell>
        <mxCell id="YR14hARBbSJiE14njBP5-138" value="" parent="BBm1sS53cPZoSCzeiZzq-1" source="YR14hARBbSJiE14njBP5-135" target="YR14hARBbSJiE14njBP5-137" edge="1">
          <mxGeometry x="7612" y="318" as="geometry" />
        </mxCell>
        <mxCell id="YR14hARBbSJiE14njBP5-139" value="宋仁宗赵祯" style="whiteSpace=wrap;html=1;" parent="BBm1sS53cPZoSCzeiZzq-1" vertex="1">
          <mxGeometry x="8880.5" y="328" width="80" height="30" as="geometry" />
        </mxCell>
        <mxCell id="YR14hARBbSJiE14njBP5-140" value="" parent="BBm1sS53cPZoSCzeiZzq-1" source="YR14hARBbSJiE14njBP5-137" target="YR14hARBbSJiE14njBP5-139" edge="1">
          <mxGeometry x="8302" y="-92" as="geometry" />
        </mxCell>
        <mxCell id="YR14hARBbSJiE14njBP5-141" value="宋英宗赵曙" style="whiteSpace=wrap;html=1;" parent="BBm1sS53cPZoSCzeiZzq-1" vertex="1">
          <mxGeometry x="9013.5" y="329.5" width="80" height="30" as="geometry" />
        </mxCell>
        <mxCell id="YR14hARBbSJiE14njBP5-142" value="" style="exitX=1;exitY=0.5;exitDx=0;exitDy=0;" parent="BBm1sS53cPZoSCzeiZzq-1" source="YR14hARBbSJiE14njBP5-139" target="YR14hARBbSJiE14njBP5-141" edge="1">
          <mxGeometry x="8302" y="-92" as="geometry">
            <mxPoint x="8983.5" y="341.5" as="sourcePoint" />
          </mxGeometry>
        </mxCell>
        <mxCell id="YR14hARBbSJiE14njBP5-143" value="宋神宗赵顼" style="whiteSpace=wrap;html=1;" parent="BBm1sS53cPZoSCzeiZzq-1" vertex="1">
          <mxGeometry x="9013.5" y="429.5" width="80" height="30" as="geometry" />
        </mxCell>
        <mxCell id="YR14hARBbSJiE14njBP5-144" value="" parent="BBm1sS53cPZoSCzeiZzq-1" source="YR14hARBbSJiE14njBP5-141" target="YR14hARBbSJiE14njBP5-143" edge="1">
          <mxGeometry x="8302" y="-92" as="geometry" />
        </mxCell>
        <mxCell id="YR14hARBbSJiE14njBP5-145" value="宋哲宗赵煦" style="whiteSpace=wrap;html=1;" parent="BBm1sS53cPZoSCzeiZzq-1" vertex="1">
          <mxGeometry x="9143.5" y="432" width="80" height="30" as="geometry" />
        </mxCell>
        <mxCell id="YR14hARBbSJiE14njBP5-146" value="" parent="BBm1sS53cPZoSCzeiZzq-1" source="YR14hARBbSJiE14njBP5-143" target="YR14hARBbSJiE14njBP5-145" edge="1">
          <mxGeometry x="8302" y="-92" as="geometry" />
        </mxCell>
        <mxCell id="YR14hARBbSJiE14njBP5-147" value="宋徽宗赵佶" style="whiteSpace=wrap;html=1;" parent="BBm1sS53cPZoSCzeiZzq-1" vertex="1">
          <mxGeometry x="9138.5" y="327.5" width="80" height="30" as="geometry" />
        </mxCell>
        <mxCell id="YR14hARBbSJiE14njBP5-148" value="" parent="BBm1sS53cPZoSCzeiZzq-1" source="YR14hARBbSJiE14njBP5-145" target="YR14hARBbSJiE14njBP5-147" edge="1">
          <mxGeometry x="8302" y="-92" as="geometry" />
        </mxCell>
        <mxCell id="YR14hARBbSJiE14njBP5-149" value="宋钦宗赵桓" style="whiteSpace=wrap;html=1;" parent="BBm1sS53cPZoSCzeiZzq-1" vertex="1">
          <mxGeometry x="9263.5" y="332" width="80" height="30" as="geometry" />
        </mxCell>
        <mxCell id="YR14hARBbSJiE14njBP5-150" value="" parent="BBm1sS53cPZoSCzeiZzq-1" source="YR14hARBbSJiE14njBP5-147" target="YR14hARBbSJiE14njBP5-149" edge="1">
          <mxGeometry x="8302" y="-92" as="geometry" />
        </mxCell>
        <mxCell id="YR14hARBbSJiE14njBP5-151" value="宋高宗赵构" style="whiteSpace=wrap;html=1;" parent="BBm1sS53cPZoSCzeiZzq-1" vertex="1">
          <mxGeometry x="9238" y="858" width="80" height="30" as="geometry" />
        </mxCell>
        <mxCell id="YR14hARBbSJiE14njBP5-152" value="" parent="BBm1sS53cPZoSCzeiZzq-1" source="YR14hARBbSJiE14njBP5-149" target="YR14hARBbSJiE14njBP5-151" edge="1">
          <mxGeometry x="8298.5" y="-196.5" as="geometry" />
        </mxCell>
        <mxCell id="YR14hARBbSJiE14njBP5-153" value="宋孝宗赵昚" style="whiteSpace=wrap;html=1;" parent="BBm1sS53cPZoSCzeiZzq-1" vertex="1">
          <mxGeometry x="9378" y="858" width="80" height="30" as="geometry" />
        </mxCell>
        <mxCell id="YR14hARBbSJiE14njBP5-154" value="" parent="BBm1sS53cPZoSCzeiZzq-1" source="YR14hARBbSJiE14njBP5-151" target="YR14hARBbSJiE14njBP5-153" edge="1">
          <mxGeometry x="8593.5" y="-106.5" as="geometry" />
        </mxCell>
        <mxCell id="YR14hARBbSJiE14njBP5-155" value="宋光宗赵惇" style="whiteSpace=wrap;html=1;" parent="BBm1sS53cPZoSCzeiZzq-1" vertex="1">
          <mxGeometry x="9378" y="750" width="80" height="30" as="geometry" />
        </mxCell>
        <mxCell id="YR14hARBbSJiE14njBP5-156" value="" parent="BBm1sS53cPZoSCzeiZzq-1" source="YR14hARBbSJiE14njBP5-153" target="YR14hARBbSJiE14njBP5-155" edge="1">
          <mxGeometry x="8498" y="424" as="geometry" />
        </mxCell>
        <mxCell id="YR14hARBbSJiE14njBP5-157" value="宋宁宗赵扩" style="whiteSpace=wrap;html=1;" parent="BBm1sS53cPZoSCzeiZzq-1" vertex="1">
          <mxGeometry x="9508" y="754" width="80" height="30" as="geometry" />
        </mxCell>
        <mxCell id="YR14hARBbSJiE14njBP5-158" value="" parent="BBm1sS53cPZoSCzeiZzq-1" source="YR14hARBbSJiE14njBP5-155" target="YR14hARBbSJiE14njBP5-157" edge="1">
          <mxGeometry x="8498" y="424" as="geometry" />
        </mxCell>
        <mxCell id="YR14hARBbSJiE14njBP5-159" value="宋理宗赵昀" style="whiteSpace=wrap;html=1;" parent="BBm1sS53cPZoSCzeiZzq-1" vertex="1">
          <mxGeometry x="9518" y="858" width="80" height="30" as="geometry" />
        </mxCell>
        <mxCell id="YR14hARBbSJiE14njBP5-160" value="" parent="BBm1sS53cPZoSCzeiZzq-1" source="YR14hARBbSJiE14njBP5-157" target="YR14hARBbSJiE14njBP5-159" edge="1">
          <mxGeometry x="8498" y="424" as="geometry" />
        </mxCell>
        <mxCell id="YR14hARBbSJiE14njBP5-161" value="宋度宗赵禥" style="whiteSpace=wrap;html=1;" parent="BBm1sS53cPZoSCzeiZzq-1" vertex="1">
          <mxGeometry x="9640.5" y="853" width="80" height="30" as="geometry" />
        </mxCell>
        <mxCell id="YR14hARBbSJiE14njBP5-162" value="" parent="BBm1sS53cPZoSCzeiZzq-1" source="YR14hARBbSJiE14njBP5-159" target="YR14hARBbSJiE14njBP5-161" edge="1">
          <mxGeometry x="8498" y="424" as="geometry" />
        </mxCell>
        <mxCell id="YR14hARBbSJiE14njBP5-163" value="宋恭帝赵隰" style="whiteSpace=wrap;html=1;" parent="BBm1sS53cPZoSCzeiZzq-1" vertex="1">
          <mxGeometry x="9628" y="752" width="80" height="30" as="geometry" />
        </mxCell>
        <mxCell id="YR14hARBbSJiE14njBP5-164" value="" parent="BBm1sS53cPZoSCzeiZzq-1" source="YR14hARBbSJiE14njBP5-161" target="YR14hARBbSJiE14njBP5-163" edge="1">
          <mxGeometry x="9669.5" y="523" as="geometry" />
        </mxCell>
        <mxCell id="YR14hARBbSJiE14njBP5-165" value="宋端宗赵昰" style="whiteSpace=wrap;html=1;" parent="BBm1sS53cPZoSCzeiZzq-1" vertex="1">
          <mxGeometry x="9769.5" y="752" width="80" height="30" as="geometry" />
        </mxCell>
        <mxCell id="YR14hARBbSJiE14njBP5-166" value="" parent="BBm1sS53cPZoSCzeiZzq-1" source="YR14hARBbSJiE14njBP5-163" target="YR14hARBbSJiE14njBP5-165" edge="1">
          <mxGeometry x="8498" y="424" as="geometry" />
        </mxCell>
        <mxCell id="YR14hARBbSJiE14njBP5-167" value="宋卫王赵昺" style="whiteSpace=wrap;html=1;" parent="BBm1sS53cPZoSCzeiZzq-1" vertex="1">
          <mxGeometry x="9769.5" y="853" width="80" height="30" as="geometry" />
        </mxCell>
        <mxCell id="YR14hARBbSJiE14njBP5-168" value="" parent="BBm1sS53cPZoSCzeiZzq-1" source="YR14hARBbSJiE14njBP5-165" target="YR14hARBbSJiE14njBP5-167" edge="1">
          <mxGeometry x="9563.5" y="554" as="geometry" />
        </mxCell>
        <mxCell id="YR14hARBbSJiE14njBP5-169" value="南宋九帝&lt;br&gt;" style="text;html=1;strokeColor=none;fillColor=none;align=center;verticalAlign=middle;whiteSpace=wrap;rounded=0;labelBackgroundColor=#ffffff;fontSize=24;" parent="BBm1sS53cPZoSCzeiZzq-1" vertex="1">
          <mxGeometry x="9090" y="850" width="120" height="40" as="geometry" />
        </mxCell>
        <mxCell id="YR14hARBbSJiE14njBP5-170" value="包拯" style="text;html=1;strokeColor=#82b366;fillColor=#d5e8d4;align=center;verticalAlign=middle;whiteSpace=wrap;rounded=0;" parent="BBm1sS53cPZoSCzeiZzq-1" vertex="1">
          <mxGeometry x="8917" y="270" width="40" height="20" as="geometry" />
        </mxCell>
        <mxCell id="YR14hARBbSJiE14njBP5-171" value="五国城" style="text;html=1;strokeColor=#b85450;fillColor=#f8cecc;align=center;verticalAlign=middle;whiteSpace=wrap;rounded=1;comic=0;shadow=0;" parent="BBm1sS53cPZoSCzeiZzq-1" vertex="1">
          <mxGeometry x="9204" y="275" width="106" height="25" as="geometry" />
        </mxCell>
        <mxCell id="zd5HpNO3gBWObnxmA2Tq-1" value="光武帝刘秀" style="whiteSpace=wrap;html=1;" parent="BBm1sS53cPZoSCzeiZzq-1" vertex="1">
          <mxGeometry x="4310" y="369.5" width="80" height="30" as="geometry" />
        </mxCell>
        <mxCell id="zd5HpNO3gBWObnxmA2Tq-2" value="汉明帝刘庄" style="whiteSpace=wrap;html=1;" parent="BBm1sS53cPZoSCzeiZzq-1" vertex="1">
          <mxGeometry x="4310" y="458.5" width="80" height="30" as="geometry" />
        </mxCell>
        <mxCell id="zd5HpNO3gBWObnxmA2Tq-3" value="" parent="BBm1sS53cPZoSCzeiZzq-1" source="zd5HpNO3gBWObnxmA2Tq-1" target="zd5HpNO3gBWObnxmA2Tq-2" edge="1">
          <mxGeometry x="3900.5" y="-111.5" as="geometry" />
        </mxCell>
        <mxCell id="zd5HpNO3gBWObnxmA2Tq-4" value="汉章帝刘炟" style="whiteSpace=wrap;html=1;" parent="BBm1sS53cPZoSCzeiZzq-1" vertex="1">
          <mxGeometry x="4460.5" y="458.5" width="80" height="30" as="geometry" />
        </mxCell>
        <mxCell id="zd5HpNO3gBWObnxmA2Tq-5" value="" parent="BBm1sS53cPZoSCzeiZzq-1" source="zd5HpNO3gBWObnxmA2Tq-2" target="zd5HpNO3gBWObnxmA2Tq-4" edge="1">
          <mxGeometry x="3900.5" y="-111.5" as="geometry" />
        </mxCell>
        <mxCell id="zd5HpNO3gBWObnxmA2Tq-6" value="汉和帝刘肇" style="whiteSpace=wrap;html=1;" parent="BBm1sS53cPZoSCzeiZzq-1" vertex="1">
          <mxGeometry x="4461" y="369.5" width="80" height="30" as="geometry" />
        </mxCell>
        <mxCell id="zd5HpNO3gBWObnxmA2Tq-7" value="" parent="BBm1sS53cPZoSCzeiZzq-1" source="zd5HpNO3gBWObnxmA2Tq-4" target="zd5HpNO3gBWObnxmA2Tq-6" edge="1">
          <mxGeometry x="3900.5" y="-111.5" as="geometry" />
        </mxCell>
        <mxCell id="zd5HpNO3gBWObnxmA2Tq-8" value="汉殇帝刘隆" style="whiteSpace=wrap;html=1;" parent="BBm1sS53cPZoSCzeiZzq-1" vertex="1">
          <mxGeometry x="4611.5" y="369.5" width="80" height="30" as="geometry" />
        </mxCell>
        <mxCell id="zd5HpNO3gBWObnxmA2Tq-9" value="" parent="BBm1sS53cPZoSCzeiZzq-1" source="zd5HpNO3gBWObnxmA2Tq-6" target="zd5HpNO3gBWObnxmA2Tq-8" edge="1">
          <mxGeometry x="3900.5" y="-111.5" as="geometry" />
        </mxCell>
        <mxCell id="zd5HpNO3gBWObnxmA2Tq-10" value="汉安帝刘祜" style="whiteSpace=wrap;html=1;" parent="BBm1sS53cPZoSCzeiZzq-1" vertex="1">
          <mxGeometry x="4611.5" y="458.5" width="80" height="30" as="geometry" />
        </mxCell>
        <mxCell id="zd5HpNO3gBWObnxmA2Tq-11" value="" parent="BBm1sS53cPZoSCzeiZzq-1" source="zd5HpNO3gBWObnxmA2Tq-8" target="zd5HpNO3gBWObnxmA2Tq-10" edge="1">
          <mxGeometry x="3900.5" y="-111.5" as="geometry" />
        </mxCell>
        <mxCell id="zd5HpNO3gBWObnxmA2Tq-12" value="汉少帝刘懿" style="whiteSpace=wrap;html=1;" parent="BBm1sS53cPZoSCzeiZzq-1" vertex="1">
          <mxGeometry x="4750.5" y="458.5" width="80" height="30" as="geometry" />
        </mxCell>
        <mxCell id="zd5HpNO3gBWObnxmA2Tq-13" value="" parent="BBm1sS53cPZoSCzeiZzq-1" source="zd5HpNO3gBWObnxmA2Tq-10" target="zd5HpNO3gBWObnxmA2Tq-12" edge="1">
          <mxGeometry x="3900.5" y="-111.5" as="geometry" />
        </mxCell>
        <mxCell id="zd5HpNO3gBWObnxmA2Tq-14" value="汉顺帝刘保" style="whiteSpace=wrap;html=1;" parent="BBm1sS53cPZoSCzeiZzq-1" vertex="1">
          <mxGeometry x="4751.5" y="369.5" width="80" height="30" as="geometry" />
        </mxCell>
        <mxCell id="zd5HpNO3gBWObnxmA2Tq-15" value="" parent="BBm1sS53cPZoSCzeiZzq-1" source="zd5HpNO3gBWObnxmA2Tq-12" target="zd5HpNO3gBWObnxmA2Tq-14" edge="1">
          <mxGeometry x="3900.5" y="-111.5" as="geometry" />
        </mxCell>
        <mxCell id="zd5HpNO3gBWObnxmA2Tq-16" value="汉冲帝刘炳" style="whiteSpace=wrap;html=1;" parent="BBm1sS53cPZoSCzeiZzq-1" vertex="1">
          <mxGeometry x="4891.5" y="369.5" width="80" height="30" as="geometry" />
        </mxCell>
        <mxCell id="zd5HpNO3gBWObnxmA2Tq-17" value="" parent="BBm1sS53cPZoSCzeiZzq-1" source="zd5HpNO3gBWObnxmA2Tq-14" target="zd5HpNO3gBWObnxmA2Tq-16" edge="1">
          <mxGeometry x="3900.5" y="-111.5" as="geometry" />
        </mxCell>
        <mxCell id="zd5HpNO3gBWObnxmA2Tq-18" value="汉质帝刘缵" style="whiteSpace=wrap;html=1;" parent="BBm1sS53cPZoSCzeiZzq-1" vertex="1">
          <mxGeometry x="4889.5" y="458.5" width="80" height="30" as="geometry" />
        </mxCell>
        <mxCell id="zd5HpNO3gBWObnxmA2Tq-19" value="" parent="BBm1sS53cPZoSCzeiZzq-1" source="zd5HpNO3gBWObnxmA2Tq-16" target="zd5HpNO3gBWObnxmA2Tq-18" edge="1">
          <mxGeometry x="3900.5" y="-111.5" as="geometry" />
        </mxCell>
        <mxCell id="zd5HpNO3gBWObnxmA2Tq-20" value="汉桓帝刘志" style="whiteSpace=wrap;html=1;" parent="BBm1sS53cPZoSCzeiZzq-1" vertex="1">
          <mxGeometry x="5021.5" y="458.5" width="80" height="30" as="geometry" />
        </mxCell>
        <mxCell id="zd5HpNO3gBWObnxmA2Tq-21" value="" parent="BBm1sS53cPZoSCzeiZzq-1" source="zd5HpNO3gBWObnxmA2Tq-18" target="zd5HpNO3gBWObnxmA2Tq-20" edge="1">
          <mxGeometry x="4411.5" y="69.5" as="geometry" />
        </mxCell>
        <mxCell id="zd5HpNO3gBWObnxmA2Tq-22" value="汉灵帝刘宏" style="whiteSpace=wrap;html=1;" parent="BBm1sS53cPZoSCzeiZzq-1" vertex="1">
          <mxGeometry x="5021.5" y="369.5" width="80" height="30" as="geometry" />
        </mxCell>
        <mxCell id="zd5HpNO3gBWObnxmA2Tq-23" value="" parent="BBm1sS53cPZoSCzeiZzq-1" source="zd5HpNO3gBWObnxmA2Tq-20" target="zd5HpNO3gBWObnxmA2Tq-22" edge="1">
          <mxGeometry x="4411.5" y="69.5" as="geometry" />
        </mxCell>
        <mxCell id="zd5HpNO3gBWObnxmA2Tq-24" value="汉少帝刘辩" style="whiteSpace=wrap;html=1;" parent="BBm1sS53cPZoSCzeiZzq-1" vertex="1">
          <mxGeometry x="5171.5" y="369.5" width="80" height="30" as="geometry" />
        </mxCell>
        <mxCell id="zd5HpNO3gBWObnxmA2Tq-25" value="" parent="BBm1sS53cPZoSCzeiZzq-1" source="zd5HpNO3gBWObnxmA2Tq-22" target="zd5HpNO3gBWObnxmA2Tq-24" edge="1">
          <mxGeometry x="4411.5" y="69.5" as="geometry" />
        </mxCell>
        <mxCell id="zd5HpNO3gBWObnxmA2Tq-26" value="汉献帝刘协" style="whiteSpace=wrap;html=1;" parent="BBm1sS53cPZoSCzeiZzq-1" vertex="1">
          <mxGeometry x="5171.5" y="449.5" width="80" height="30" as="geometry" />
        </mxCell>
        <mxCell id="zd5HpNO3gBWObnxmA2Tq-27" value="" parent="BBm1sS53cPZoSCzeiZzq-1" source="zd5HpNO3gBWObnxmA2Tq-24" target="zd5HpNO3gBWObnxmA2Tq-26" edge="1">
          <mxGeometry x="4411.5" y="69.5" as="geometry" />
        </mxCell>
        <mxCell id="zd5HpNO3gBWObnxmA2Tq-30" value="魏文帝曹丕" style="whiteSpace=wrap;html=1;" parent="BBm1sS53cPZoSCzeiZzq-1" vertex="1">
          <mxGeometry x="5360" y="172" width="80" height="30" as="geometry" />
        </mxCell>
        <mxCell id="zd5HpNO3gBWObnxmA2Tq-31" value="魏明帝曹叡" style="whiteSpace=wrap;html=1;" parent="BBm1sS53cPZoSCzeiZzq-1" vertex="1">
          <mxGeometry x="5360" y="256" width="80" height="30" as="geometry" />
        </mxCell>
        <mxCell id="zd5HpNO3gBWObnxmA2Tq-32" value="" style="exitX=0.5;exitY=1;exitDx=0;exitDy=0;" parent="BBm1sS53cPZoSCzeiZzq-1" source="zd5HpNO3gBWObnxmA2Tq-30" target="zd5HpNO3gBWObnxmA2Tq-31" edge="1">
          <mxGeometry x="4929" y="-189" as="geometry" />
        </mxCell>
        <mxCell id="zd5HpNO3gBWObnxmA2Tq-33" value="魏哀帝曹芳" style="whiteSpace=wrap;html=1;" parent="BBm1sS53cPZoSCzeiZzq-1" vertex="1">
          <mxGeometry x="5490" y="256" width="80" height="30" as="geometry" />
        </mxCell>
        <mxCell id="zd5HpNO3gBWObnxmA2Tq-34" value="" style="exitX=1;exitY=0.5;exitDx=0;exitDy=0;" parent="BBm1sS53cPZoSCzeiZzq-1" source="zd5HpNO3gBWObnxmA2Tq-31" target="zd5HpNO3gBWObnxmA2Tq-33" edge="1">
          <mxGeometry x="4929" y="-189" as="geometry" />
        </mxCell>
        <mxCell id="zd5HpNO3gBWObnxmA2Tq-35" value="魏废帝曹髦" style="whiteSpace=wrap;html=1;" parent="BBm1sS53cPZoSCzeiZzq-1" vertex="1">
          <mxGeometry x="5490" y="172" width="80" height="30" as="geometry" />
        </mxCell>
        <mxCell id="zd5HpNO3gBWObnxmA2Tq-36" value="" parent="BBm1sS53cPZoSCzeiZzq-1" source="zd5HpNO3gBWObnxmA2Tq-33" target="zd5HpNO3gBWObnxmA2Tq-35" edge="1">
          <mxGeometry x="4929" y="-189" as="geometry" />
        </mxCell>
        <mxCell id="zd5HpNO3gBWObnxmA2Tq-37" value="魏元帝曹奂" style="whiteSpace=wrap;html=1;" parent="BBm1sS53cPZoSCzeiZzq-1" vertex="1">
          <mxGeometry x="5620" y="172" width="80" height="30" as="geometry" />
        </mxCell>
        <mxCell id="zd5HpNO3gBWObnxmA2Tq-38" value="" style="" parent="BBm1sS53cPZoSCzeiZzq-1" target="zd5HpNO3gBWObnxmA2Tq-37" edge="1">
          <mxGeometry x="4929" y="-189" as="geometry">
            <mxPoint x="5570" y="190" as="sourcePoint" />
          </mxGeometry>
        </mxCell>
        <mxCell id="zd5HpNO3gBWObnxmA2Tq-39" value="先主刘备" style="whiteSpace=wrap;html=1;" parent="BBm1sS53cPZoSCzeiZzq-1" vertex="1">
          <mxGeometry x="5440" y="347" width="80" height="30" as="geometry" />
        </mxCell>
        <mxCell id="zd5HpNO3gBWObnxmA2Tq-40" value="汉怀帝刘禅" style="whiteSpace=wrap;html=1;" parent="BBm1sS53cPZoSCzeiZzq-1" vertex="1">
          <mxGeometry x="5561.5" y="347" width="80" height="30" as="geometry" />
        </mxCell>
        <mxCell id="zd5HpNO3gBWObnxmA2Tq-41" value="" parent="BBm1sS53cPZoSCzeiZzq-1" source="zd5HpNO3gBWObnxmA2Tq-39" target="zd5HpNO3gBWObnxmA2Tq-40" edge="1">
          <mxGeometry x="5379" y="246" as="geometry" />
        </mxCell>
        <mxCell id="zd5HpNO3gBWObnxmA2Tq-45" value="太祖大皇帝孙权" style="whiteSpace=wrap;html=1;" parent="BBm1sS53cPZoSCzeiZzq-1" vertex="1">
          <mxGeometry x="5425.5" y="422.5" width="100" height="30" as="geometry" />
        </mxCell>
        <mxCell id="zd5HpNO3gBWObnxmA2Tq-46" value="会稽王孙亮" style="whiteSpace=wrap;html=1;" parent="BBm1sS53cPZoSCzeiZzq-1" vertex="1">
          <mxGeometry x="5435.5" y="511.5" width="80" height="30" as="geometry" />
        </mxCell>
        <mxCell id="zd5HpNO3gBWObnxmA2Tq-47" value="" parent="BBm1sS53cPZoSCzeiZzq-1" source="zd5HpNO3gBWObnxmA2Tq-45" target="zd5HpNO3gBWObnxmA2Tq-46" edge="1">
          <mxGeometry x="5424.5" y="421.5" as="geometry" />
        </mxCell>
        <mxCell id="zd5HpNO3gBWObnxmA2Tq-48" value="吴景帝孙休" style="whiteSpace=wrap;html=1;" parent="BBm1sS53cPZoSCzeiZzq-1" vertex="1">
          <mxGeometry x="5554.5" y="511.5" width="80" height="30" as="geometry" />
        </mxCell>
        <mxCell id="zd5HpNO3gBWObnxmA2Tq-49" value="" parent="BBm1sS53cPZoSCzeiZzq-1" source="zd5HpNO3gBWObnxmA2Tq-46" target="zd5HpNO3gBWObnxmA2Tq-48" edge="1">
          <mxGeometry x="5424.5" y="421.5" as="geometry" />
        </mxCell>
        <mxCell id="zd5HpNO3gBWObnxmA2Tq-50" value="归命侯孙皓" style="whiteSpace=wrap;html=1;" parent="BBm1sS53cPZoSCzeiZzq-1" vertex="1">
          <mxGeometry x="5554.5" y="422.5" width="80" height="30" as="geometry" />
        </mxCell>
        <mxCell id="zd5HpNO3gBWObnxmA2Tq-51" value="" parent="BBm1sS53cPZoSCzeiZzq-1" source="zd5HpNO3gBWObnxmA2Tq-48" target="zd5HpNO3gBWObnxmA2Tq-50" edge="1">
          <mxGeometry x="5424.5" y="421.5" as="geometry" />
        </mxCell>
        <mxCell id="zd5HpNO3gBWObnxmA2Tq-55" value="隋文帝" style="whiteSpace=wrap;html=1;" parent="BBm1sS53cPZoSCzeiZzq-1" vertex="1">
          <mxGeometry x="6944.5" y="455" width="80" height="35" as="geometry" />
        </mxCell>
        <mxCell id="zd5HpNO3gBWObnxmA2Tq-56" value="隋炀帝" style="whiteSpace=wrap;html=1;" parent="BBm1sS53cPZoSCzeiZzq-1" vertex="1">
          <mxGeometry x="7075.5" y="455" width="80" height="30" as="geometry" />
        </mxCell>
        <mxCell id="zd5HpNO3gBWObnxmA2Tq-57" value="" parent="BBm1sS53cPZoSCzeiZzq-1" source="zd5HpNO3gBWObnxmA2Tq-55" target="zd5HpNO3gBWObnxmA2Tq-56" edge="1">
          <mxGeometry x="6943.5" y="454" as="geometry" />
        </mxCell>
        <mxCell id="zd5HpNO3gBWObnxmA2Tq-66" style="edgeStyle=orthogonalEdgeStyle;curved=1;rounded=0;orthogonalLoop=1;jettySize=auto;html=1;exitX=1;exitY=0.5;exitDx=0;exitDy=0;entryX=0;entryY=0.75;entryDx=0;entryDy=0;" parent="BBm1sS53cPZoSCzeiZzq-1" source="zd5HpNO3gBWObnxmA2Tq-65" target="9OOkJJ60_f5lkiLz93e9-9" edge="1">
          <mxGeometry relative="1" as="geometry" />
        </mxCell>
        <mxCell id="zd5HpNO3gBWObnxmA2Tq-67" style="edgeStyle=orthogonalEdgeStyle;curved=1;rounded=0;orthogonalLoop=1;jettySize=auto;html=1;exitX=1;exitY=0.75;exitDx=0;exitDy=0;entryX=0;entryY=0.25;entryDx=0;entryDy=0;" parent="BBm1sS53cPZoSCzeiZzq-1" source="zd5HpNO3gBWObnxmA2Tq-65" target="9OOkJJ60_f5lkiLz93e9-11" edge="1">
          <mxGeometry relative="1" as="geometry" />
        </mxCell>
        <mxCell id="zd5HpNO3gBWObnxmA2Tq-65" value="独孤信" style="text;html=1;strokeColor=none;fillColor=none;align=center;verticalAlign=middle;whiteSpace=wrap;rounded=0;" parent="BBm1sS53cPZoSCzeiZzq-1" vertex="1">
          <mxGeometry x="6980" y="242" width="40" height="20" as="geometry" />
        </mxCell>
        <mxCell id="zd5HpNO3gBWObnxmA2Tq-68" value="父女" style="text;html=1;align=center;verticalAlign=middle;whiteSpace=wrap;rounded=0;labelBackgroundColor=#ffffff;" parent="BBm1sS53cPZoSCzeiZzq-1" vertex="1">
          <mxGeometry x="7030" y="232" width="40" height="20" as="geometry" />
        </mxCell>
        <mxCell id="zd5HpNO3gBWObnxmA2Tq-69" value="父女" style="text;html=1;align=center;verticalAlign=middle;whiteSpace=wrap;rounded=0;labelBackgroundColor=#ffffff;" parent="BBm1sS53cPZoSCzeiZzq-1" vertex="1">
          <mxGeometry x="7030" y="256" width="40" height="20" as="geometry" />
        </mxCell>
        <mxCell id="TpZhf29solArRKw6YtfV-1" value="牧野之战" style="text;html=1;strokeColor=#b85450;fillColor=#f8cecc;align=center;verticalAlign=middle;whiteSpace=wrap;rounded=1;shadow=1;" parent="BBm1sS53cPZoSCzeiZzq-1" vertex="1">
          <mxGeometry x="-1719" y="427.5" width="90" height="20" as="geometry" />
        </mxCell>
        <mxCell id="TpZhf29solArRKw6YtfV-2" value="鸣条之战" style="text;html=1;strokeColor=#b85450;fillColor=#f8cecc;align=center;verticalAlign=middle;whiteSpace=wrap;rounded=1;shadow=1;" parent="BBm1sS53cPZoSCzeiZzq-1" vertex="1">
          <mxGeometry x="-2670" y="429.5" width="90" height="20" as="geometry" />
        </mxCell>
        <mxCell id="TpZhf29solArRKw6YtfV-5" value="" style="edgeStyle=orthogonalEdgeStyle;rounded=0;orthogonalLoop=1;jettySize=auto;html=1;fontSize=16;" parent="BBm1sS53cPZoSCzeiZzq-1" source="TpZhf29solArRKw6YtfV-3" edge="1">
          <mxGeometry relative="1" as="geometry">
            <mxPoint x="-2430" y="397" as="targetPoint" />
          </mxGeometry>
        </mxCell>
        <mxCell id="TpZhf29solArRKw6YtfV-3" value="汤" style="text;html=1;strokeColor=none;fillColor=none;align=center;verticalAlign=middle;whiteSpace=wrap;rounded=0;shadow=1;fontSize=16;" parent="BBm1sS53cPZoSCzeiZzq-1" vertex="1">
          <mxGeometry x="-2550" y="387" width="40" height="20" as="geometry" />
        </mxCell>
        <mxCell id="TpZhf29solArRKw6YtfV-6" value="武丁中兴" style="text;html=1;strokeColor=none;fillColor=none;align=center;verticalAlign=middle;whiteSpace=wrap;rounded=0;shadow=1;fontSize=16;" parent="BBm1sS53cPZoSCzeiZzq-1" vertex="1">
          <mxGeometry x="-2180" y="389.5" width="40" height="20" as="geometry" />
        </mxCell>
        <mxCell id="TpZhf29solArRKw6YtfV-7" value="酒池肉林" style="text;html=1;strokeColor=none;fillColor=none;align=center;verticalAlign=middle;whiteSpace=wrap;rounded=0;shadow=1;fontSize=16;" parent="BBm1sS53cPZoSCzeiZzq-1" vertex="1">
          <mxGeometry x="-1800" y="405" width="40" height="20" as="geometry" />
        </mxCell>
        <mxCell id="TpZhf29solArRKw6YtfV-8" value="宗法制" style="text;html=1;strokeColor=none;fillColor=none;align=center;verticalAlign=middle;whiteSpace=wrap;rounded=0;shadow=1;fontSize=16;" parent="BBm1sS53cPZoSCzeiZzq-1" vertex="1">
          <mxGeometry x="-2120" y="392" width="50" height="28" as="geometry" />
        </mxCell>
        <mxCell id="TpZhf29solArRKw6YtfV-9" value="分封制" style="text;html=1;strokeColor=none;fillColor=none;align=center;verticalAlign=middle;whiteSpace=wrap;rounded=0;shadow=1;fontSize=16;" parent="BBm1sS53cPZoSCzeiZzq-1" vertex="1">
          <mxGeometry x="-2050" y="392" width="60" height="28" as="geometry" />
        </mxCell>
        <mxCell id="TpZhf29solArRKw6YtfV-10" value="井田制" style="text;html=1;strokeColor=none;fillColor=none;align=center;verticalAlign=middle;whiteSpace=wrap;rounded=0;shadow=1;fontSize=16;" parent="BBm1sS53cPZoSCzeiZzq-1" vertex="1">
          <mxGeometry x="-1960" y="392" width="60" height="28" as="geometry" />
        </mxCell>
        <mxCell id="TpZhf29solArRKw6YtfV-11" value="盘庚迁殷" style="text;html=1;strokeColor=none;fillColor=none;align=center;verticalAlign=middle;whiteSpace=wrap;rounded=0;shadow=1;fontSize=16;" parent="BBm1sS53cPZoSCzeiZzq-1" vertex="1">
          <mxGeometry x="-2240" y="379.5" width="40" height="37" as="geometry" />
        </mxCell>
        <mxCell id="TpZhf29solArRKw6YtfV-12" value="伊尹放太甲" style="text;html=1;strokeColor=none;fillColor=none;align=center;verticalAlign=middle;whiteSpace=wrap;rounded=0;shadow=1;fontSize=16;" parent="BBm1sS53cPZoSCzeiZzq-1" vertex="1">
          <mxGeometry x="-2430" y="290" width="90" height="28" as="geometry" />
        </mxCell>
        <mxCell id="TpZhf29solArRKw6YtfV-13" value="伊尹辅政" style="text;html=1;strokeColor=none;fillColor=none;align=center;verticalAlign=middle;whiteSpace=wrap;rounded=0;shadow=1;fontSize=16;" parent="BBm1sS53cPZoSCzeiZzq-1" vertex="1">
          <mxGeometry x="-2420" y="321" width="90" height="28" as="geometry" />
        </mxCell>
        <mxCell id="TpZhf29solArRKw6YtfV-14" value="九世之乱" style="text;html=1;strokeColor=none;fillColor=none;align=center;verticalAlign=middle;whiteSpace=wrap;rounded=0;shadow=1;fontSize=16;" parent="BBm1sS53cPZoSCzeiZzq-1" vertex="1">
          <mxGeometry x="-2340" y="306" width="90" height="28" as="geometry" />
        </mxCell>
        <mxCell id="TpZhf29solArRKw6YtfV-15" value="周平王姬宜臼" style="whiteSpace=wrap;html=1;rounded=1;shadow=1;fontSize=16;" parent="BBm1sS53cPZoSCzeiZzq-1" vertex="1">
          <mxGeometry x="260" y="-428.50000000000045" width="120" height="30" as="geometry" />
        </mxCell>
        <mxCell id="TpZhf29solArRKw6YtfV-16" value="周桓王姬林" style="whiteSpace=wrap;html=1;rounded=1;shadow=1;fontSize=16;" parent="BBm1sS53cPZoSCzeiZzq-1" vertex="1">
          <mxGeometry x="265" y="-348.5" width="110" height="30" as="geometry" />
        </mxCell>
        <mxCell id="TpZhf29solArRKw6YtfV-17" value="" style="fontSize=16;" parent="BBm1sS53cPZoSCzeiZzq-1" source="TpZhf29solArRKw6YtfV-15" target="TpZhf29solArRKw6YtfV-16" edge="1">
          <mxGeometry x="-761" y="-1398.5" as="geometry" />
        </mxCell>
        <mxCell id="TpZhf29solArRKw6YtfV-18" value="周庄王姬佗" style="whiteSpace=wrap;html=1;rounded=1;shadow=1;fontSize=16;" parent="BBm1sS53cPZoSCzeiZzq-1" vertex="1">
          <mxGeometry x="265" y="-238.5" width="110" height="30" as="geometry" />
        </mxCell>
        <mxCell id="TpZhf29solArRKw6YtfV-19" value="" style="fontSize=16;" parent="BBm1sS53cPZoSCzeiZzq-1" source="TpZhf29solArRKw6YtfV-16" target="TpZhf29solArRKw6YtfV-18" edge="1">
          <mxGeometry x="-761" y="-1398.5" as="geometry" />
        </mxCell>
        <mxCell id="TpZhf29solArRKw6YtfV-20" value="周僖王姬胡齐" style="whiteSpace=wrap;html=1;rounded=1;shadow=1;fontSize=16;" parent="BBm1sS53cPZoSCzeiZzq-1" vertex="1">
          <mxGeometry x="260" y="-148.5" width="120" height="30" as="geometry" />
        </mxCell>
        <mxCell id="TpZhf29solArRKw6YtfV-21" value="" style="fontSize=16;" parent="BBm1sS53cPZoSCzeiZzq-1" source="TpZhf29solArRKw6YtfV-18" target="TpZhf29solArRKw6YtfV-20" edge="1">
          <mxGeometry x="-761" y="-1398.5" as="geometry" />
        </mxCell>
        <mxCell id="TpZhf29solArRKw6YtfV-22" value="周惠王姬阆-周襄王姬郑" style="whiteSpace=wrap;html=1;rounded=1;shadow=1;fontSize=16;" parent="BBm1sS53cPZoSCzeiZzq-1" vertex="1">
          <mxGeometry x="220" y="-37.5" width="200" height="30" as="geometry" />
        </mxCell>
        <mxCell id="TpZhf29solArRKw6YtfV-23" value="" style="fontSize=16;" parent="BBm1sS53cPZoSCzeiZzq-1" source="TpZhf29solArRKw6YtfV-20" target="TpZhf29solArRKw6YtfV-22" edge="1">
          <mxGeometry x="-761" y="-1398.5" as="geometry" />
        </mxCell>
        <mxCell id="TpZhf29solArRKw6YtfV-24" value="周顷王姬壬臣" style="whiteSpace=wrap;html=1;rounded=1;shadow=1;fontSize=16;" parent="BBm1sS53cPZoSCzeiZzq-1" vertex="1">
          <mxGeometry x="557" y="-37.5" width="120" height="30" as="geometry" />
        </mxCell>
        <mxCell id="TpZhf29solArRKw6YtfV-25" value="" style="fontSize=16;" parent="BBm1sS53cPZoSCzeiZzq-1" source="TpZhf29solArRKw6YtfV-22" target="TpZhf29solArRKw6YtfV-24" edge="1">
          <mxGeometry x="-718" y="-1398.5" as="geometry" />
        </mxCell>
        <mxCell id="TpZhf29solArRKw6YtfV-26" value="周匡王姬班" style="whiteSpace=wrap;html=1;rounded=1;shadow=1;fontSize=16;" parent="BBm1sS53cPZoSCzeiZzq-1" vertex="1">
          <mxGeometry x="562" y="-148.5" width="110" height="30" as="geometry" />
        </mxCell>
        <mxCell id="TpZhf29solArRKw6YtfV-27" value="" style="fontSize=16;" parent="BBm1sS53cPZoSCzeiZzq-1" source="TpZhf29solArRKw6YtfV-24" target="TpZhf29solArRKw6YtfV-26" edge="1">
          <mxGeometry x="-718" y="-1398.5" as="geometry" />
        </mxCell>
        <mxCell id="TpZhf29solArRKw6YtfV-28" value="周定王姬瑜" style="whiteSpace=wrap;html=1;rounded=1;shadow=1;fontSize=16;fillColor=#ffe6cc;strokeColor=#d79b00;" parent="BBm1sS53cPZoSCzeiZzq-1" vertex="1">
          <mxGeometry x="562" y="-238.5" width="110" height="30" as="geometry" />
        </mxCell>
        <mxCell id="TpZhf29solArRKw6YtfV-29" value="" style="fontSize=16;" parent="BBm1sS53cPZoSCzeiZzq-1" source="TpZhf29solArRKw6YtfV-26" target="TpZhf29solArRKw6YtfV-28" edge="1">
          <mxGeometry x="-718" y="-1398.5" as="geometry" />
        </mxCell>
        <mxCell id="TpZhf29solArRKw6YtfV-30" value="周简王姬夷" style="whiteSpace=wrap;html=1;rounded=1;shadow=1;fontSize=16;" parent="BBm1sS53cPZoSCzeiZzq-1" vertex="1">
          <mxGeometry x="562" y="-348.5" width="110" height="30" as="geometry" />
        </mxCell>
        <mxCell id="TpZhf29solArRKw6YtfV-31" value="" style="fontSize=16;" parent="BBm1sS53cPZoSCzeiZzq-1" source="TpZhf29solArRKw6YtfV-28" target="TpZhf29solArRKw6YtfV-30" edge="1">
          <mxGeometry x="-718" y="-1398.5" as="geometry" />
        </mxCell>
        <mxCell id="TpZhf29solArRKw6YtfV-32" value="周灵王姬泄心" style="whiteSpace=wrap;html=1;rounded=1;shadow=1;fontSize=16;" parent="BBm1sS53cPZoSCzeiZzq-1" vertex="1">
          <mxGeometry x="557" y="-428.50000000000045" width="120" height="30" as="geometry" />
        </mxCell>
        <mxCell id="TpZhf29solArRKw6YtfV-33" value="" style="fontSize=16;" parent="BBm1sS53cPZoSCzeiZzq-1" source="TpZhf29solArRKw6YtfV-30" target="TpZhf29solArRKw6YtfV-32" edge="1">
          <mxGeometry x="-718" y="-1398.5" as="geometry" />
        </mxCell>
        <mxCell id="TpZhf29solArRKw6YtfV-34" value="周景王姬贵" style="whiteSpace=wrap;html=1;rounded=1;shadow=1;fontSize=16;" parent="BBm1sS53cPZoSCzeiZzq-1" vertex="1">
          <mxGeometry x="856.5" y="-431" width="110" height="30" as="geometry" />
        </mxCell>
        <mxCell id="TpZhf29solArRKw6YtfV-35" value="" style="fontSize=16;" parent="BBm1sS53cPZoSCzeiZzq-1" source="TpZhf29solArRKw6YtfV-32" target="TpZhf29solArRKw6YtfV-34" edge="1">
          <mxGeometry x="-1628" y="-1265" as="geometry" />
        </mxCell>
        <mxCell id="TpZhf29solArRKw6YtfV-36" value="周悼王姬猛" style="whiteSpace=wrap;html=1;rounded=1;shadow=1;fontSize=16;" parent="BBm1sS53cPZoSCzeiZzq-1" vertex="1">
          <mxGeometry x="856.5" y="-351" width="110" height="30" as="geometry" />
        </mxCell>
        <mxCell id="TpZhf29solArRKw6YtfV-37" value="" style="fontSize=16;" parent="BBm1sS53cPZoSCzeiZzq-1" source="TpZhf29solArRKw6YtfV-34" target="TpZhf29solArRKw6YtfV-36" edge="1">
          <mxGeometry x="830.5" y="-1187" as="geometry" />
        </mxCell>
        <mxCell id="TpZhf29solArRKw6YtfV-38" value="周敬王姬匄" style="whiteSpace=wrap;html=1;rounded=1;shadow=1;fontSize=16;fillColor=#ffe6cc;strokeColor=#d79b00;" parent="BBm1sS53cPZoSCzeiZzq-1" vertex="1">
          <mxGeometry x="856.5" y="-241" width="110" height="30" as="geometry" />
        </mxCell>
        <mxCell id="TpZhf29solArRKw6YtfV-39" value="" style="fontSize=16;" parent="BBm1sS53cPZoSCzeiZzq-1" source="TpZhf29solArRKw6YtfV-36" target="TpZhf29solArRKw6YtfV-38" edge="1">
          <mxGeometry x="830.5" y="-1187" as="geometry" />
        </mxCell>
        <mxCell id="TpZhf29solArRKw6YtfV-40" value="周元王姬仁" style="whiteSpace=wrap;html=1;rounded=1;shadow=1;fontSize=16;" parent="BBm1sS53cPZoSCzeiZzq-1" vertex="1">
          <mxGeometry x="856.5" y="-151" width="110" height="30" as="geometry" />
        </mxCell>
        <mxCell id="TpZhf29solArRKw6YtfV-41" value="" style="fontSize=16;" parent="BBm1sS53cPZoSCzeiZzq-1" source="TpZhf29solArRKw6YtfV-38" target="TpZhf29solArRKw6YtfV-40" edge="1">
          <mxGeometry x="830.5" y="-1187" as="geometry" />
        </mxCell>
        <mxCell id="TpZhf29solArRKw6YtfV-42" value="周贞定王姬介" style="whiteSpace=wrap;html=1;rounded=1;shadow=1;fontSize=16;" parent="BBm1sS53cPZoSCzeiZzq-1" vertex="1">
          <mxGeometry x="851.5" y="-40" width="120" height="30" as="geometry" />
        </mxCell>
        <mxCell id="TpZhf29solArRKw6YtfV-43" value="" style="fontSize=16;" parent="BBm1sS53cPZoSCzeiZzq-1" source="TpZhf29solArRKw6YtfV-40" target="TpZhf29solArRKw6YtfV-42" edge="1">
          <mxGeometry x="830.5" y="-1187" as="geometry" />
        </mxCell>
        <mxCell id="TpZhf29solArRKw6YtfV-44" value="周哀王姬去疾" style="whiteSpace=wrap;html=1;rounded=1;shadow=1;fontSize=16;" parent="BBm1sS53cPZoSCzeiZzq-1" vertex="1">
          <mxGeometry x="1168.5" y="-40" width="120" height="30" as="geometry" />
        </mxCell>
        <mxCell id="TpZhf29solArRKw6YtfV-45" value="" style="fontSize=16;" parent="BBm1sS53cPZoSCzeiZzq-1" source="TpZhf29solArRKw6YtfV-42" target="TpZhf29solArRKw6YtfV-44" edge="1">
          <mxGeometry x="-552.5" y="-1401" as="geometry" />
        </mxCell>
        <mxCell id="TpZhf29solArRKw6YtfV-46" value="周思王姬叔" style="whiteSpace=wrap;html=1;rounded=1;shadow=1;fontSize=16;" parent="BBm1sS53cPZoSCzeiZzq-1" vertex="1">
          <mxGeometry x="1173.5" y="-151" width="110" height="30" as="geometry" />
        </mxCell>
        <mxCell id="TpZhf29solArRKw6YtfV-47" value="" style="fontSize=16;" parent="BBm1sS53cPZoSCzeiZzq-1" source="TpZhf29solArRKw6YtfV-44" target="TpZhf29solArRKw6YtfV-46" edge="1">
          <mxGeometry x="937.5" y="-571" as="geometry" />
        </mxCell>
        <mxCell id="TpZhf29solArRKw6YtfV-48" value="周考王姬嵬" style="whiteSpace=wrap;html=1;rounded=1;shadow=1;fontSize=16;" parent="BBm1sS53cPZoSCzeiZzq-1" vertex="1">
          <mxGeometry x="1173.5" y="-241" width="110" height="30" as="geometry" />
        </mxCell>
        <mxCell id="TpZhf29solArRKw6YtfV-49" value="" style="fontSize=16;" parent="BBm1sS53cPZoSCzeiZzq-1" source="TpZhf29solArRKw6YtfV-46" target="TpZhf29solArRKw6YtfV-48" edge="1">
          <mxGeometry x="937.5" y="-571" as="geometry" />
        </mxCell>
        <mxCell id="TpZhf29solArRKw6YtfV-50" value="周威烈王姬午" style="whiteSpace=wrap;html=1;rounded=1;shadow=1;fontSize=16;" parent="BBm1sS53cPZoSCzeiZzq-1" vertex="1">
          <mxGeometry x="1168.5" y="-351.00000000000045" width="120" height="30" as="geometry" />
        </mxCell>
        <mxCell id="TpZhf29solArRKw6YtfV-51" value="" style="fontSize=16;" parent="BBm1sS53cPZoSCzeiZzq-1" source="TpZhf29solArRKw6YtfV-48" target="TpZhf29solArRKw6YtfV-50" edge="1">
          <mxGeometry x="937.5" y="-571" as="geometry" />
        </mxCell>
        <mxCell id="TpZhf29solArRKw6YtfV-52" value="周安王姬骄" style="whiteSpace=wrap;html=1;rounded=1;shadow=1;fontSize=16;" parent="BBm1sS53cPZoSCzeiZzq-1" vertex="1">
          <mxGeometry x="1173.5" y="-431" width="110" height="30" as="geometry" />
        </mxCell>
        <mxCell id="TpZhf29solArRKw6YtfV-53" value="" style="fontSize=16;" parent="BBm1sS53cPZoSCzeiZzq-1" source="TpZhf29solArRKw6YtfV-50" target="TpZhf29solArRKw6YtfV-52" edge="1">
          <mxGeometry x="-536.5" y="-1401" as="geometry" />
        </mxCell>
        <mxCell id="TpZhf29solArRKw6YtfV-54" value="周烈王姬喜" style="whiteSpace=wrap;html=1;rounded=1;shadow=1;fontSize=16;" parent="BBm1sS53cPZoSCzeiZzq-1" vertex="1">
          <mxGeometry x="1466.5" y="-431" width="110" height="30" as="geometry" />
        </mxCell>
        <mxCell id="TpZhf29solArRKw6YtfV-55" value="" style="fontSize=16;" parent="BBm1sS53cPZoSCzeiZzq-1" source="TpZhf29solArRKw6YtfV-52" target="TpZhf29solArRKw6YtfV-54" edge="1">
          <mxGeometry x="1082.5" y="-457" as="geometry" />
        </mxCell>
        <mxCell id="TpZhf29solArRKw6YtfV-56" value="周显王姬扁" style="whiteSpace=wrap;html=1;rounded=1;shadow=1;fontSize=16;" parent="BBm1sS53cPZoSCzeiZzq-1" vertex="1">
          <mxGeometry x="1466.5" y="-351" width="110" height="30" as="geometry" />
        </mxCell>
        <mxCell id="TpZhf29solArRKw6YtfV-57" value="" style="fontSize=16;" parent="BBm1sS53cPZoSCzeiZzq-1" source="TpZhf29solArRKw6YtfV-54" target="TpZhf29solArRKw6YtfV-56" edge="1">
          <mxGeometry x="1040.5" y="-437" as="geometry" />
        </mxCell>
        <mxCell id="TpZhf29solArRKw6YtfV-58" value="周慎靓王姬定" style="whiteSpace=wrap;html=1;rounded=1;shadow=1;fontSize=16;" parent="BBm1sS53cPZoSCzeiZzq-1" vertex="1">
          <mxGeometry x="1461.5" y="-241" width="120" height="30" as="geometry" />
        </mxCell>
        <mxCell id="TpZhf29solArRKw6YtfV-59" value="" style="fontSize=16;" parent="BBm1sS53cPZoSCzeiZzq-1" source="TpZhf29solArRKw6YtfV-56" target="TpZhf29solArRKw6YtfV-58" edge="1">
          <mxGeometry x="1040.5" y="-437" as="geometry" />
        </mxCell>
        <mxCell id="TpZhf29solArRKw6YtfV-60" value="周赧王姬延" style="whiteSpace=wrap;html=1;rounded=1;shadow=1;fontSize=16;" parent="BBm1sS53cPZoSCzeiZzq-1" vertex="1">
          <mxGeometry x="1466.5" y="-151" width="110" height="30" as="geometry" />
        </mxCell>
        <mxCell id="TpZhf29solArRKw6YtfV-61" value="" style="fontSize=16;" parent="BBm1sS53cPZoSCzeiZzq-1" source="TpZhf29solArRKw6YtfV-58" target="TpZhf29solArRKw6YtfV-60" edge="1">
          <mxGeometry x="1040.5" y="-437" as="geometry" />
        </mxCell>
        <mxCell id="TpZhf29solArRKw6YtfV-62" value="周顺王姬杰" style="whiteSpace=wrap;html=1;rounded=1;shadow=1;fontSize=16;" parent="BBm1sS53cPZoSCzeiZzq-1" vertex="1">
          <mxGeometry x="1466.5" y="-40" width="110" height="30" as="geometry" />
        </mxCell>
        <mxCell id="TpZhf29solArRKw6YtfV-63" value="" style="fontSize=16;" parent="BBm1sS53cPZoSCzeiZzq-1" source="TpZhf29solArRKw6YtfV-60" target="TpZhf29solArRKw6YtfV-62" edge="1">
          <mxGeometry x="1050.5" y="-392" as="geometry" />
        </mxCell>
        <mxCell id="TpZhf29solArRKw6YtfV-66" value="之后周天子失去权威" style="text;html=1;strokeColor=none;fillColor=none;align=center;verticalAlign=middle;whiteSpace=wrap;rounded=0;shadow=1;fontSize=16;" parent="BBm1sS53cPZoSCzeiZzq-1" vertex="1">
          <mxGeometry x="690" y="-236.5" width="90" height="21" as="geometry" />
        </mxCell>
        <mxCell id="TpZhf29solArRKw6YtfV-67" value="前606年—前586年" style="text;html=1;fontSize=16;" parent="BBm1sS53cPZoSCzeiZzq-1" vertex="1">
          <mxGeometry x="620" y="-210" width="180" height="30" as="geometry" />
        </mxCell>
        <UserObject label="东周" link="http://www.gs5000.cn/ldhd/26068.html" id="TpZhf29solArRKw6YtfV-68">
          <mxCell style="text;html=1;fontSize=16;" parent="BBm1sS53cPZoSCzeiZzq-1" vertex="1">
            <mxGeometry x="710" y="42" width="50" height="38" as="geometry" />
          </mxCell>
        </UserObject>
        <mxCell id="TpZhf29solArRKw6YtfV-70" value="前519年—前476年&lt;br&gt;春秋战国分界线&lt;br&gt;" style="text;html=1;fontSize=16;" parent="BBm1sS53cPZoSCzeiZzq-1" vertex="1">
          <mxGeometry x="970" y="-211" width="180" height="30" as="geometry" />
        </mxCell>
        <mxCell id="TpZhf29solArRKw6YtfV-74" value="" style="edgeStyle=orthogonalEdgeStyle;rounded=0;orthogonalLoop=1;jettySize=auto;html=1;fontSize=16;" parent="BBm1sS53cPZoSCzeiZzq-1" source="TpZhf29solArRKw6YtfV-72" target="TpZhf29solArRKw6YtfV-73" edge="1">
          <mxGeometry relative="1" as="geometry" />
        </mxCell>
        <mxCell id="TpZhf29solArRKw6YtfV-72" value="&lt;span&gt;秦始皇&lt;/span&gt;" style="rounded=1;whiteSpace=wrap;html=1;shadow=1;fontSize=16;" parent="BBm1sS53cPZoSCzeiZzq-1" vertex="1">
          <mxGeometry x="2380" y="250" width="90" height="40" as="geometry" />
        </mxCell>
        <mxCell id="TpZhf29solArRKw6YtfV-81" value="" style="edgeStyle=orthogonalEdgeStyle;rounded=0;orthogonalLoop=1;jettySize=auto;html=1;fontSize=16;dashed=1;" parent="BBm1sS53cPZoSCzeiZzq-1" source="TpZhf29solArRKw6YtfV-79" target="TpZhf29solArRKw6YtfV-72" edge="1">
          <mxGeometry relative="1" as="geometry" />
        </mxCell>
        <mxCell id="TpZhf29solArRKw6YtfV-79" value="&lt;span&gt;秦穆公&lt;/span&gt;&lt;br&gt;" style="rounded=1;whiteSpace=wrap;html=1;shadow=1;fontSize=16;" parent="BBm1sS53cPZoSCzeiZzq-1" vertex="1">
          <mxGeometry x="2210" y="250" width="90" height="40" as="geometry" />
        </mxCell>
        <mxCell id="TpZhf29solArRKw6YtfV-76" value="" style="edgeStyle=orthogonalEdgeStyle;rounded=0;orthogonalLoop=1;jettySize=auto;html=1;fontSize=16;" parent="BBm1sS53cPZoSCzeiZzq-1" source="TpZhf29solArRKw6YtfV-73" target="TpZhf29solArRKw6YtfV-75" edge="1">
          <mxGeometry relative="1" as="geometry" />
        </mxCell>
        <mxCell id="TpZhf29solArRKw6YtfV-73" value="&lt;span&gt;秦二世&lt;/span&gt;&lt;br&gt;" style="rounded=1;whiteSpace=wrap;html=1;shadow=1;fontSize=16;" parent="BBm1sS53cPZoSCzeiZzq-1" vertex="1">
          <mxGeometry x="2550" y="250" width="90" height="40" as="geometry" />
        </mxCell>
        <mxCell id="TpZhf29solArRKw6YtfV-75" value="&lt;span&gt;秦王子婴&lt;/span&gt;&lt;br&gt;" style="rounded=1;whiteSpace=wrap;html=1;shadow=1;fontSize=16;" parent="BBm1sS53cPZoSCzeiZzq-1" vertex="1">
          <mxGeometry x="2720" y="250" width="90" height="40" as="geometry" />
        </mxCell>
        <mxCell id="TpZhf29solArRKw6YtfV-82" value="&lt;span style=&quot;font-size: 12px;&quot;&gt;公元前659年—公元前621年&lt;/span&gt;" style="text;html=1;strokeColor=none;fillColor=none;align=center;verticalAlign=middle;whiteSpace=wrap;rounded=0;shadow=1;fontSize=12;" parent="BBm1sS53cPZoSCzeiZzq-1" vertex="1">
          <mxGeometry x="2150" y="212.5" width="160" height="29" as="geometry" />
        </mxCell>
        <mxCell id="TpZhf29solArRKw6YtfV-83" value="三监之乱" style="rounded=1;whiteSpace=wrap;html=1;shadow=1;fontSize=12;fillColor=#f8cecc;strokeColor=#b85450;" parent="BBm1sS53cPZoSCzeiZzq-1" vertex="1">
          <mxGeometry x="-1470" y="202" width="70" height="18" as="geometry" />
        </mxCell>
        <mxCell id="TpZhf29solArRKw6YtfV-84" value="周公东征" style="rounded=1;whiteSpace=wrap;html=1;shadow=1;fontSize=12;fillColor=#f8cecc;strokeColor=#b85450;" parent="BBm1sS53cPZoSCzeiZzq-1" vertex="1">
          <mxGeometry x="-1470" y="230" width="70" height="14" as="geometry" />
        </mxCell>
        <mxCell id="TpZhf29solArRKw6YtfV-85" value="成康之治" style="rounded=1;whiteSpace=wrap;html=1;shadow=1;fontSize=12;fillColor=#d5e8d4;strokeColor=#82b366;" parent="BBm1sS53cPZoSCzeiZzq-1" vertex="1">
          <mxGeometry x="-1460" y="262" width="70" height="18" as="geometry" />
        </mxCell>
        <mxCell id="TpZhf29solArRKw6YtfV-86" value="宣王中兴" style="rounded=1;whiteSpace=wrap;html=1;shadow=1;fontSize=12;fillColor=#d5e8d4;strokeColor=#82b366;" parent="BBm1sS53cPZoSCzeiZzq-1" vertex="1">
          <mxGeometry x="-990" y="497" width="70" height="18" as="geometry" />
        </mxCell>
        <mxCell id="TpZhf29solArRKw6YtfV-87" value="昭王南征" style="rounded=1;whiteSpace=wrap;html=1;shadow=1;fontSize=12;fillColor=#f8cecc;strokeColor=#b85450;" parent="BBm1sS53cPZoSCzeiZzq-1" vertex="1">
          <mxGeometry x="-1410" y="322" width="70" height="14" as="geometry" />
        </mxCell>
        <mxCell id="TpZhf29solArRKw6YtfV-88" value="穆王西征" style="rounded=1;whiteSpace=wrap;html=1;shadow=1;fontSize=12;fillColor=#f8cecc;strokeColor=#b85450;" parent="BBm1sS53cPZoSCzeiZzq-1" vertex="1">
          <mxGeometry x="-1365" y="368.5" width="70" height="14" as="geometry" />
        </mxCell>
        <mxCell id="TpZhf29solArRKw6YtfV-89" value="夷王伐戎" style="rounded=1;whiteSpace=wrap;html=1;shadow=1;fontSize=12;fillColor=#f8cecc;strokeColor=#b85450;" parent="BBm1sS53cPZoSCzeiZzq-1" vertex="1">
          <mxGeometry x="-1150" y="458" width="70" height="14" as="geometry" />
        </mxCell>
        <mxCell id="TpZhf29solArRKw6YtfV-90" value="国人暴动" style="rounded=1;whiteSpace=wrap;html=1;shadow=1;fontSize=12;fillColor=#f8cecc;strokeColor=#b85450;" parent="BBm1sS53cPZoSCzeiZzq-1" vertex="1">
          <mxGeometry x="-1080" y="506" width="70" height="14" as="geometry" />
        </mxCell>
        <mxCell id="TpZhf29solArRKw6YtfV-91" value="厉王专政" style="rounded=1;whiteSpace=wrap;html=1;shadow=1;fontSize=12;fillColor=#f8cecc;strokeColor=#b85450;" parent="BBm1sS53cPZoSCzeiZzq-1" vertex="1">
          <mxGeometry x="-1080" y="483" width="70" height="14" as="geometry" />
        </mxCell>
        <mxCell id="TpZhf29solArRKw6YtfV-97" value="烽火戏诸侯" style="rounded=1;whiteSpace=wrap;html=1;shadow=1;fontSize=12;fillColor=#f8cecc;strokeColor=#b85450;" parent="BBm1sS53cPZoSCzeiZzq-1" vertex="1">
          <mxGeometry x="-910" y="482" width="70" height="14" as="geometry" />
        </mxCell>
        <mxCell id="TpZhf29solArRKw6YtfV-98" value="犬戎之祸" style="rounded=1;whiteSpace=wrap;html=1;shadow=1;fontSize=12;fillColor=#f8cecc;strokeColor=#b85450;" parent="BBm1sS53cPZoSCzeiZzq-1" vertex="1">
          <mxGeometry x="-910" y="506" width="70" height="14" as="geometry" />
        </mxCell>
        <mxCell id="1" style="" parent="0" />
        <mxCell id="7VUQlQrSEYM7tF7wroQr-6" value="" style="edgeStyle=orthogonalEdgeStyle;rounded=0;orthogonalLoop=1;jettySize=auto;html=1;fontSize=16;" parent="1" source="aPUkME7y7yC4_XbtxQYm-2" target="aPUkME7y7yC4_XbtxQYm-11" edge="1">
          <mxGeometry relative="1" as="geometry" />
        </mxCell>
        <mxCell id="aPUkME7y7yC4_XbtxQYm-2" value="秦&lt;br&gt;（&lt;span&gt;前221—前207年)&lt;/span&gt;&lt;br&gt;" style="rounded=1;whiteSpace=wrap;html=1;fontSize=16;fillColor=#f8cecc;strokeColor=#b85450;" parent="1" vertex="1">
          <mxGeometry x="2490" y="580" width="450" height="50" as="geometry" />
        </mxCell>
        <mxCell id="aPUkME7y7yC4_XbtxQYm-3" value="李斯" style="rounded=1;whiteSpace=wrap;html=1;fontSize=16;" parent="1" vertex="1">
          <mxGeometry x="2620" y="438" width="65" height="40" as="geometry" />
        </mxCell>
        <mxCell id="aPUkME7y7yC4_XbtxQYm-4" value="战国&lt;br&gt;（&lt;span&gt;前475年—前221年&lt;/span&gt;&lt;span&gt;)&lt;/span&gt;&lt;br&gt;" style="rounded=1;whiteSpace=wrap;html=1;fontSize=16;fillColor=#f8cecc;strokeColor=#b85450;" parent="1" vertex="1">
          <mxGeometry x="980" y="575" width="1500" height="60" as="geometry" />
        </mxCell>
        <mxCell id="aPUkME7y7yC4_XbtxQYm-5" value="春秋&lt;br&gt;（&lt;span&gt;前770—前476年)&lt;/span&gt;&lt;br&gt;" style="rounded=1;whiteSpace=wrap;html=1;fontSize=16;fillColor=#f8cecc;strokeColor=#b85450;" parent="1" vertex="1">
          <mxGeometry x="-830" y="570" width="1800" height="60" as="geometry" />
        </mxCell>
        <mxCell id="7VUQlQrSEYM7tF7wroQr-5" value="" style="edgeStyle=orthogonalEdgeStyle;rounded=0;orthogonalLoop=1;jettySize=auto;html=1;fontSize=16;" parent="1" source="aPUkME7y7yC4_XbtxQYm-6" target="aPUkME7y7yC4_XbtxQYm-5" edge="1">
          <mxGeometry relative="1" as="geometry" />
        </mxCell>
        <mxCell id="aPUkME7y7yC4_XbtxQYm-6" value="西周&lt;br&gt;（&lt;span&gt;前1046—前771年)&lt;/span&gt;&lt;br&gt;" style="rounded=1;whiteSpace=wrap;html=1;fontSize=16;fillColor=#f8cecc;strokeColor=#b85450;" parent="1" vertex="1">
          <mxGeometry x="-1640" y="580" width="750" height="40" as="geometry" />
        </mxCell>
        <mxCell id="7VUQlQrSEYM7tF7wroQr-4" value="" style="edgeStyle=orthogonalEdgeStyle;rounded=0;orthogonalLoop=1;jettySize=auto;html=1;fontSize=16;" parent="1" source="aPUkME7y7yC4_XbtxQYm-7" target="aPUkME7y7yC4_XbtxQYm-6" edge="1">
          <mxGeometry relative="1" as="geometry" />
        </mxCell>
        <mxCell id="aPUkME7y7yC4_XbtxQYm-7" value="商&lt;br&gt;（&lt;span&gt;前1600—前1046年)&lt;/span&gt;&lt;br&gt;" style="rounded=1;whiteSpace=wrap;html=1;fontSize=16;fillColor=#f8cecc;strokeColor=#b85450;" parent="1" vertex="1">
          <mxGeometry x="-2600" y="580" width="930" height="40" as="geometry" />
        </mxCell>
        <mxCell id="7VUQlQrSEYM7tF7wroQr-3" value="" style="edgeStyle=orthogonalEdgeStyle;rounded=0;orthogonalLoop=1;jettySize=auto;html=1;fontSize=16;" parent="1" source="aPUkME7y7yC4_XbtxQYm-8" target="aPUkME7y7yC4_XbtxQYm-7" edge="1">
          <mxGeometry relative="1" as="geometry" />
        </mxCell>
        <mxCell id="aPUkME7y7yC4_XbtxQYm-8" value="夏&lt;br&gt;（&lt;span&gt;前2070—前1600年)&lt;/span&gt;&lt;br&gt;" style="rounded=1;whiteSpace=wrap;html=1;fontSize=16;fillColor=#f8cecc;strokeColor=#b85450;" parent="1" vertex="1">
          <mxGeometry x="-3320" y="580" width="690" height="40" as="geometry" />
        </mxCell>
        <mxCell id="aPUkME7y7yC4_XbtxQYm-9" value="齐桓公" style="rounded=1;whiteSpace=wrap;html=1;fontSize=12;" parent="1" vertex="1">
          <mxGeometry x="180" y="415" width="80" height="20" as="geometry" />
        </mxCell>
        <mxCell id="7VUQlQrSEYM7tF7wroQr-7" value="" style="edgeStyle=orthogonalEdgeStyle;rounded=0;orthogonalLoop=1;jettySize=auto;html=1;fontSize=16;" parent="1" source="aPUkME7y7yC4_XbtxQYm-11" target="aPUkME7y7yC4_XbtxQYm-40" edge="1">
          <mxGeometry relative="1" as="geometry" />
        </mxCell>
        <mxCell id="aPUkME7y7yC4_XbtxQYm-11" value="西汉&lt;br&gt;（前202年-8年）&lt;br&gt;" style="rounded=1;whiteSpace=wrap;html=1;fontSize=16;fillColor=#f8cecc;strokeColor=#b85450;" parent="1" vertex="1">
          <mxGeometry x="2960" y="580" width="1230" height="50" as="geometry" />
        </mxCell>
        <mxCell id="MpLFHPZ68rCktOpKLuaT-13" style="edgeStyle=orthogonalEdgeStyle;curved=1;rounded=0;orthogonalLoop=1;jettySize=auto;html=1;exitX=1;exitY=0.5;exitDx=0;exitDy=0;entryX=0.25;entryY=0;entryDx=0;entryDy=0;" parent="1" source="aPUkME7y7yC4_XbtxQYm-12" target="MpLFHPZ68rCktOpKLuaT-6" edge="1">
          <mxGeometry relative="1" as="geometry" />
        </mxCell>
        <mxCell id="aPUkME7y7yC4_XbtxQYm-12" value="刘邦" style="rounded=1;whiteSpace=wrap;html=1;fontSize=16;" parent="1" vertex="1">
          <mxGeometry x="2970" y="315" width="60" height="30" as="geometry" />
        </mxCell>
        <mxCell id="aPUkME7y7yC4_XbtxQYm-13" value="商山四诰" style="rounded=1;whiteSpace=wrap;html=1;fontSize=16;" parent="1" vertex="1">
          <mxGeometry x="2970" y="255" width="130" height="30" as="geometry" />
        </mxCell>
        <mxCell id="aPUkME7y7yC4_XbtxQYm-14" value="吕后" style="rounded=1;whiteSpace=wrap;html=1;fontSize=16;" parent="1" vertex="1">
          <mxGeometry x="2970" y="405" width="60" height="30" as="geometry" />
        </mxCell>
        <mxCell id="aPUkME7y7yC4_XbtxQYm-39" style="edgeStyle=orthogonalEdgeStyle;curved=1;rounded=0;orthogonalLoop=1;jettySize=auto;html=1;exitX=1;exitY=0.5;exitDx=0;exitDy=0;entryX=0;entryY=0.5;entryDx=0;entryDy=0;fontSize=12;" parent="1" source="aPUkME7y7yC4_XbtxQYm-15" target="aPUkME7y7yC4_XbtxQYm-16" edge="1">
          <mxGeometry relative="1" as="geometry" />
        </mxCell>
        <mxCell id="r9mWfL_eA96lx4Y-Phn7-4" style="edgeStyle=orthogonalEdgeStyle;rounded=0;orthogonalLoop=1;jettySize=auto;html=1;exitX=0.75;exitY=1;exitDx=0;exitDy=0;entryX=0.016;entryY=0.413;entryDx=0;entryDy=0;entryPerimeter=0;curved=1;" parent="1" source="aPUkME7y7yC4_XbtxQYm-15" target="r9mWfL_eA96lx4Y-Phn7-3" edge="1">
          <mxGeometry relative="1" as="geometry" />
        </mxCell>
        <mxCell id="aPUkME7y7yC4_XbtxQYm-15" value="老子&amp;nbsp;&lt;br style=&quot;font-size: 12px;&quot;&gt;（前571年-前471年）&lt;br style=&quot;font-size: 12px;&quot;&gt;" style="rounded=1;whiteSpace=wrap;html=1;fontSize=12;" parent="1" vertex="1">
          <mxGeometry x="320" y="350" width="630" height="40" as="geometry" />
        </mxCell>
        <mxCell id="aPUkME7y7yC4_XbtxQYm-16" value="鬼谷子&amp;nbsp;&lt;br style=&quot;font-size: 12px;&quot;&gt;（约前400年-前270年）&lt;br style=&quot;font-size: 12px;&quot;&gt;" style="rounded=1;whiteSpace=wrap;html=1;fontSize=12;" parent="1" vertex="1">
          <mxGeometry x="1110" y="350" width="730" height="30" as="geometry" />
        </mxCell>
        <mxCell id="aPUkME7y7yC4_XbtxQYm-17" value="孔子&amp;nbsp;&lt;br style=&quot;font-size: 12px&quot;&gt;（前551年-前479年）&lt;br style=&quot;font-size: 12px&quot;&gt;" style="rounded=1;whiteSpace=wrap;html=1;fontSize=12;" parent="1" vertex="1">
          <mxGeometry x="810" y="102" width="130" height="35" as="geometry" />
        </mxCell>
        <mxCell id="aPUkME7y7yC4_XbtxQYm-21" value="孟子&amp;nbsp;&lt;br style=&quot;font-size: 12px&quot;&gt;（&lt;span&gt;前372年—前289年&lt;/span&gt;）&lt;br&gt;" style="rounded=1;whiteSpace=wrap;html=1;fontSize=12;" parent="1" vertex="1">
          <mxGeometry x="1120" y="98" width="130" height="35" as="geometry" />
        </mxCell>
        <mxCell id="aPUkME7y7yC4_XbtxQYm-25" value="&lt;div style=&quot;text-align: center&quot;&gt;韩非子&lt;br&gt;&lt;/div&gt;" style="text;html=1;fontSize=12;" parent="1" vertex="1">
          <mxGeometry x="2170" y="441" width="90" height="30" as="geometry" />
        </mxCell>
        <mxCell id="aPUkME7y7yC4_XbtxQYm-26" value="杨朱一派" style="text;html=1;fontSize=12;" parent="1" vertex="1">
          <mxGeometry x="1370" y="530" width="70" height="30" as="geometry" />
        </mxCell>
        <mxCell id="aPUkME7y7yC4_XbtxQYm-27" value="&lt;div style=&quot;text-align: center&quot;&gt;&lt;span&gt;庄子&lt;/span&gt;&lt;/div&gt;&lt;div style=&quot;text-align: center&quot;&gt;&lt;span&gt;（前369-前286年）&lt;/span&gt;&lt;/div&gt;" style="text;html=1;fontSize=12;" parent="1" vertex="1">
          <mxGeometry x="1468" y="414" width="233" height="41" as="geometry" />
        </mxCell>
        <mxCell id="aPUkME7y7yC4_XbtxQYm-28" value="尹文一派" style="text;html=1;fontSize=12;" parent="1" vertex="1">
          <mxGeometry x="1468" y="534.5" width="70" height="30" as="geometry" />
        </mxCell>
        <mxCell id="aPUkME7y7yC4_XbtxQYm-32" value="庞涓" style="text;html=1;fontSize=12;" parent="1" vertex="1">
          <mxGeometry x="1900" y="394" width="50" height="30" as="geometry" />
        </mxCell>
        <mxCell id="aPUkME7y7yC4_XbtxQYm-33" value="孙膑" style="text;html=1;fontSize=12;" parent="1" vertex="1">
          <mxGeometry x="1900" y="365" width="60" height="30" as="geometry" />
        </mxCell>
        <mxCell id="aPUkME7y7yC4_XbtxQYm-34" value="商鞅" style="text;html=1;fontSize=12;" parent="1" vertex="1">
          <mxGeometry x="1900" y="435" width="50" height="30" as="geometry" />
        </mxCell>
        <mxCell id="aPUkME7y7yC4_XbtxQYm-37" value="张仪" style="text;html=1;fontSize=12;" parent="1" vertex="1">
          <mxGeometry x="1900" y="330" width="50" height="30" as="geometry" />
        </mxCell>
        <mxCell id="aPUkME7y7yC4_XbtxQYm-38" value="苏秦" style="text;html=1;fontSize=12;" parent="1" vertex="1">
          <mxGeometry x="1900" y="288.5" width="50" height="30" as="geometry" />
        </mxCell>
        <mxCell id="7VUQlQrSEYM7tF7wroQr-9" value="" style="edgeStyle=orthogonalEdgeStyle;rounded=0;orthogonalLoop=1;jettySize=auto;html=1;fontSize=16;" parent="1" source="aPUkME7y7yC4_XbtxQYm-40" target="zDtLxDJx-mtVt5FpkuiB-6" edge="1">
          <mxGeometry relative="1" as="geometry" />
        </mxCell>
        <mxCell id="aPUkME7y7yC4_XbtxQYm-40" value="东汉&lt;br&gt;（&amp;nbsp;&lt;span&gt;25年—220年&lt;/span&gt;）&lt;br&gt;" style="rounded=1;whiteSpace=wrap;html=1;fontSize=16;fillColor=#f8cecc;strokeColor=#b85450;" parent="1" vertex="1">
          <mxGeometry x="4220" y="582" width="1180" height="46" as="geometry" />
        </mxCell>
        <mxCell id="aPUkME7y7yC4_XbtxQYm-42" value="唐&lt;br&gt;（&amp;nbsp;&lt;span&gt;618年—907年&lt;/span&gt;）&lt;br&gt;" style="rounded=1;whiteSpace=wrap;html=1;fontSize=16;fillColor=#f8cecc;strokeColor=#b85450;" parent="1" vertex="1">
          <mxGeometry x="7200" y="590" width="1210" height="40" as="geometry" />
        </mxCell>
        <mxCell id="aPUkME7y7yC4_XbtxQYm-43" value="宋&lt;br&gt;（ 960年- 1279年）&lt;br&gt;" style="rounded=1;whiteSpace=wrap;html=1;fontSize=16;fillColor=#f8cecc;strokeColor=#b85450;" parent="1" vertex="1">
          <mxGeometry x="8760" y="586" width="1125" height="48" as="geometry" />
        </mxCell>
        <mxCell id="aPUkME7y7yC4_XbtxQYm-44" value="元&lt;br&gt;（&amp;nbsp;&lt;span&gt;1271年—1368年&lt;/span&gt;）&lt;br&gt;" style="rounded=1;whiteSpace=wrap;html=1;fontSize=16;fillColor=#f8cecc;strokeColor=#b85450;" parent="1" vertex="1">
          <mxGeometry x="9940" y="590" width="440" height="50" as="geometry" />
        </mxCell>
        <mxCell id="aPUkME7y7yC4_XbtxQYm-45" value="明&lt;br&gt;（&amp;nbsp;&lt;span&gt;1368年―1644&lt;/span&gt;&lt;span&gt;年&lt;/span&gt;）&lt;br&gt;" style="rounded=1;whiteSpace=wrap;html=1;fontSize=16;fillColor=#f8cecc;strokeColor=#b85450;" parent="1" vertex="1">
          <mxGeometry x="10460" y="590" width="1510" height="50" as="geometry" />
        </mxCell>
        <mxCell id="aPUkME7y7yC4_XbtxQYm-46" value="清&lt;br&gt;（ 年- 年）&lt;br&gt;" style="rounded=1;whiteSpace=wrap;html=1;fontSize=16;fillColor=#f8cecc;strokeColor=#b85450;" parent="1" vertex="1">
          <mxGeometry x="11990" y="590" width="1490" height="50" as="geometry" />
        </mxCell>
        <mxCell id="aPUkME7y7yC4_XbtxQYm-47" value="王阳明" style="rounded=1;whiteSpace=wrap;html=1;glass=0;fontSize=16;arcSize=0;fillColor=#dae8fc;strokeColor=#6c8ebf;" parent="1" vertex="1">
          <mxGeometry x="11250" y="266" width="110" height="44" as="geometry" />
        </mxCell>
        <mxCell id="XmjEOH4qvzH-M5LciXww-1" value="古公亶父" style="rounded=1;whiteSpace=wrap;html=1;" parent="1" vertex="1">
          <mxGeometry x="-1744" y="244" width="90" height="25" as="geometry" />
        </mxCell>
        <mxCell id="MpLFHPZ68rCktOpKLuaT-1" value="萧何" style="text;html=1;strokeColor=none;fillColor=none;align=center;verticalAlign=middle;whiteSpace=wrap;rounded=0;" parent="1" vertex="1">
          <mxGeometry x="3100" y="294" width="40" height="20" as="geometry" />
        </mxCell>
        <mxCell id="MpLFHPZ68rCktOpKLuaT-2" value="韩信" style="text;html=1;strokeColor=none;fillColor=none;align=center;verticalAlign=middle;whiteSpace=wrap;rounded=0;" parent="1" vertex="1">
          <mxGeometry x="3150" y="304" width="40" height="20" as="geometry" />
        </mxCell>
        <mxCell id="MpLFHPZ68rCktOpKLuaT-3" value="张良" style="text;html=1;strokeColor=none;fillColor=none;align=center;verticalAlign=middle;whiteSpace=wrap;rounded=0;" parent="1" vertex="1">
          <mxGeometry x="3140" y="335" width="40" height="20" as="geometry" />
        </mxCell>
        <mxCell id="MpLFHPZ68rCktOpKLuaT-4" value="彭越" style="text;html=1;strokeColor=none;fillColor=none;align=center;verticalAlign=middle;whiteSpace=wrap;rounded=0;" parent="1" vertex="1">
          <mxGeometry x="3130" y="260" width="40" height="20" as="geometry" />
        </mxCell>
        <mxCell id="MpLFHPZ68rCktOpKLuaT-5" value="英布" style="text;html=1;strokeColor=none;fillColor=none;align=center;verticalAlign=middle;whiteSpace=wrap;rounded=0;" parent="1" vertex="1">
          <mxGeometry x="3170" y="260" width="40" height="20" as="geometry" />
        </mxCell>
        <mxCell id="MpLFHPZ68rCktOpKLuaT-18" style="edgeStyle=orthogonalEdgeStyle;curved=1;rounded=0;orthogonalLoop=1;jettySize=auto;html=1;exitX=1;exitY=0.5;exitDx=0;exitDy=0;entryX=0;entryY=0.75;entryDx=0;entryDy=0;" parent="1" source="MpLFHPZ68rCktOpKLuaT-6" target="MpLFHPZ68rCktOpKLuaT-17" edge="1">
          <mxGeometry relative="1" as="geometry" />
        </mxCell>
        <mxCell id="MpLFHPZ68rCktOpKLuaT-6" value="汉惠帝（刘盈）" style="text;html=1;strokeColor=none;fillColor=none;align=center;verticalAlign=middle;whiteSpace=wrap;rounded=0;" parent="1" vertex="1">
          <mxGeometry x="3050" y="355" width="60" height="25" as="geometry" />
        </mxCell>
        <mxCell id="MpLFHPZ68rCktOpKLuaT-7" value="戚夫人" style="text;html=1;strokeColor=none;fillColor=none;align=center;verticalAlign=middle;whiteSpace=wrap;rounded=0;" parent="1" vertex="1">
          <mxGeometry x="3060" y="387.5" width="60" height="27" as="geometry" />
        </mxCell>
        <mxCell id="MpLFHPZ68rCktOpKLuaT-23" style="edgeStyle=orthogonalEdgeStyle;curved=1;rounded=0;orthogonalLoop=1;jettySize=auto;html=1;exitX=1;exitY=0.5;exitDx=0;exitDy=0;" parent="1" source="MpLFHPZ68rCktOpKLuaT-10" target="MpLFHPZ68rCktOpKLuaT-22" edge="1">
          <mxGeometry relative="1" as="geometry" />
        </mxCell>
        <mxCell id="MpLFHPZ68rCktOpKLuaT-10" value="汉文帝&lt;br&gt;（刘恒）&lt;br&gt;" style="text;html=1;strokeColor=none;fillColor=none;align=center;verticalAlign=middle;whiteSpace=wrap;rounded=0;" parent="1" vertex="1">
          <mxGeometry x="3300" y="340" width="60" height="25" as="geometry" />
        </mxCell>
        <mxCell id="MpLFHPZ68rCktOpKLuaT-40" style="edgeStyle=orthogonalEdgeStyle;curved=1;rounded=0;orthogonalLoop=1;jettySize=auto;html=1;exitX=0.5;exitY=0;exitDx=0;exitDy=0;entryX=0.5;entryY=1;entryDx=0;entryDy=0;" parent="1" source="MpLFHPZ68rCktOpKLuaT-11" target="MpLFHPZ68rCktOpKLuaT-10" edge="1">
          <mxGeometry relative="1" as="geometry" />
        </mxCell>
        <mxCell id="MpLFHPZ68rCktOpKLuaT-11" value="代王" style="text;html=1;strokeColor=none;fillColor=none;align=center;verticalAlign=middle;whiteSpace=wrap;rounded=0;" parent="1" vertex="1">
          <mxGeometry x="3310" y="428.5" width="60" height="25" as="geometry" />
        </mxCell>
        <mxCell id="MpLFHPZ68rCktOpKLuaT-25" style="edgeStyle=orthogonalEdgeStyle;curved=1;rounded=0;orthogonalLoop=1;jettySize=auto;html=1;exitX=0.5;exitY=0;exitDx=0;exitDy=0;entryX=0;entryY=0.5;entryDx=0;entryDy=0;" parent="1" source="MpLFHPZ68rCktOpKLuaT-17" target="MpLFHPZ68rCktOpKLuaT-24" edge="1">
          <mxGeometry relative="1" as="geometry" />
        </mxCell>
        <mxCell id="MpLFHPZ68rCktOpKLuaT-17" value="前少帝（刘恭）" style="text;html=1;strokeColor=none;fillColor=none;align=center;verticalAlign=middle;whiteSpace=wrap;rounded=0;" parent="1" vertex="1">
          <mxGeometry x="3190" y="362.5" width="60" height="25" as="geometry" />
        </mxCell>
        <mxCell id="MpLFHPZ68rCktOpKLuaT-34" style="edgeStyle=orthogonalEdgeStyle;curved=1;rounded=0;orthogonalLoop=1;jettySize=auto;html=1;exitX=0;exitY=0.75;exitDx=0;exitDy=0;entryX=1;entryY=0.5;entryDx=0;entryDy=0;" parent="1" source="MpLFHPZ68rCktOpKLuaT-20" target="MpLFHPZ68rCktOpKLuaT-27" edge="1">
          <mxGeometry relative="1" as="geometry" />
        </mxCell>
        <mxCell id="MpLFHPZ68rCktOpKLuaT-20" value="周勃" style="text;html=1;strokeColor=none;fillColor=none;align=center;verticalAlign=middle;whiteSpace=wrap;rounded=0;" parent="1" vertex="1">
          <mxGeometry x="3280" y="377.5" width="40" height="20" as="geometry" />
        </mxCell>
        <mxCell id="MpLFHPZ68rCktOpKLuaT-35" style="edgeStyle=orthogonalEdgeStyle;curved=1;rounded=0;orthogonalLoop=1;jettySize=auto;html=1;exitX=0;exitY=0.75;exitDx=0;exitDy=0;entryX=1;entryY=0.5;entryDx=0;entryDy=0;" parent="1" source="MpLFHPZ68rCktOpKLuaT-21" target="MpLFHPZ68rCktOpKLuaT-27" edge="1">
          <mxGeometry relative="1" as="geometry" />
        </mxCell>
        <mxCell id="MpLFHPZ68rCktOpKLuaT-21" value="陈平" style="text;html=1;strokeColor=none;fillColor=none;align=center;verticalAlign=middle;whiteSpace=wrap;rounded=0;" parent="1" vertex="1">
          <mxGeometry x="3280" y="400" width="40" height="20" as="geometry" />
        </mxCell>
        <mxCell id="MpLFHPZ68rCktOpKLuaT-42" value="" style="edgeStyle=orthogonalEdgeStyle;curved=1;rounded=0;orthogonalLoop=1;jettySize=auto;html=1;" parent="1" source="MpLFHPZ68rCktOpKLuaT-22" target="MpLFHPZ68rCktOpKLuaT-41" edge="1">
          <mxGeometry relative="1" as="geometry" />
        </mxCell>
        <mxCell id="MpLFHPZ68rCktOpKLuaT-22" value="汉景帝（刘启）" style="text;html=1;strokeColor=none;fillColor=none;align=center;verticalAlign=middle;whiteSpace=wrap;rounded=0;" parent="1" vertex="1">
          <mxGeometry x="3390" y="335" width="60" height="25" as="geometry" />
        </mxCell>
        <mxCell id="MpLFHPZ68rCktOpKLuaT-45" value="" style="edgeStyle=orthogonalEdgeStyle;curved=1;rounded=0;orthogonalLoop=1;jettySize=auto;html=1;" parent="1" source="MpLFHPZ68rCktOpKLuaT-41" target="MpLFHPZ68rCktOpKLuaT-44" edge="1">
          <mxGeometry relative="1" as="geometry" />
        </mxCell>
        <mxCell id="MpLFHPZ68rCktOpKLuaT-41" value="汉武帝&lt;br&gt;（刘彻）&lt;br&gt;" style="text;html=1;strokeColor=none;fillColor=none;align=center;verticalAlign=middle;whiteSpace=wrap;rounded=0;" parent="1" vertex="1">
          <mxGeometry x="3490" y="337.5" width="60" height="25" as="geometry" />
        </mxCell>
        <mxCell id="MpLFHPZ68rCktOpKLuaT-47" value="" style="edgeStyle=orthogonalEdgeStyle;curved=1;rounded=0;orthogonalLoop=1;jettySize=auto;html=1;" parent="1" source="MpLFHPZ68rCktOpKLuaT-44" target="MpLFHPZ68rCktOpKLuaT-46" edge="1">
          <mxGeometry relative="1" as="geometry" />
        </mxCell>
        <mxCell id="MpLFHPZ68rCktOpKLuaT-44" value="汉昭帝&lt;br&gt;（刘弗）&lt;br&gt;" style="text;html=1;strokeColor=none;fillColor=none;align=center;verticalAlign=middle;whiteSpace=wrap;rounded=0;" parent="1" vertex="1">
          <mxGeometry x="3580" y="340" width="60" height="25" as="geometry" />
        </mxCell>
        <mxCell id="MpLFHPZ68rCktOpKLuaT-49" value="" style="edgeStyle=orthogonalEdgeStyle;curved=1;rounded=0;orthogonalLoop=1;jettySize=auto;html=1;" parent="1" source="MpLFHPZ68rCktOpKLuaT-46" target="MpLFHPZ68rCktOpKLuaT-48" edge="1">
          <mxGeometry relative="1" as="geometry" />
        </mxCell>
        <mxCell id="MpLFHPZ68rCktOpKLuaT-46" value="9.汉废帝&lt;br&gt;（刘贺）&lt;br&gt;" style="text;html=1;strokeColor=none;fillColor=none;align=center;verticalAlign=middle;whiteSpace=wrap;rounded=0;" parent="1" vertex="1">
          <mxGeometry x="3670" y="340" width="60" height="25" as="geometry" />
        </mxCell>
        <mxCell id="MpLFHPZ68rCktOpKLuaT-51" value="" style="edgeStyle=orthogonalEdgeStyle;curved=1;rounded=0;orthogonalLoop=1;jettySize=auto;html=1;" parent="1" source="MpLFHPZ68rCktOpKLuaT-48" target="MpLFHPZ68rCktOpKLuaT-50" edge="1">
          <mxGeometry relative="1" as="geometry" />
        </mxCell>
        <mxCell id="MpLFHPZ68rCktOpKLuaT-48" value="汉宣帝&lt;br&gt;（刘询）&lt;br&gt;" style="text;html=1;strokeColor=none;fillColor=none;align=center;verticalAlign=middle;whiteSpace=wrap;rounded=0;" parent="1" vertex="1">
          <mxGeometry x="3770" y="345" width="60" height="25" as="geometry" />
        </mxCell>
        <mxCell id="MpLFHPZ68rCktOpKLuaT-55" value="" style="edgeStyle=orthogonalEdgeStyle;curved=1;rounded=0;orthogonalLoop=1;jettySize=auto;html=1;" parent="1" source="MpLFHPZ68rCktOpKLuaT-50" target="MpLFHPZ68rCktOpKLuaT-54" edge="1">
          <mxGeometry relative="1" as="geometry" />
        </mxCell>
        <mxCell id="MpLFHPZ68rCktOpKLuaT-50" value="汉元帝&lt;br&gt;（刘奭）&lt;br&gt;" style="text;html=1;strokeColor=none;fillColor=none;align=center;verticalAlign=middle;whiteSpace=wrap;rounded=0;" parent="1" vertex="1">
          <mxGeometry x="3862" y="347.5" width="60" height="25" as="geometry" />
        </mxCell>
        <mxCell id="MpLFHPZ68rCktOpKLuaT-54" value="汉成帝&lt;br&gt;（刘骜）&lt;br&gt;" style="text;html=1;strokeColor=none;fillColor=none;align=center;verticalAlign=middle;whiteSpace=wrap;rounded=0;" parent="1" vertex="1">
          <mxGeometry x="3945" y="342.5" width="60" height="25" as="geometry" />
        </mxCell>
        <mxCell id="MpLFHPZ68rCktOpKLuaT-26" style="edgeStyle=orthogonalEdgeStyle;curved=1;rounded=0;orthogonalLoop=1;jettySize=auto;html=1;exitX=1;exitY=0.5;exitDx=0;exitDy=0;entryX=0;entryY=0.75;entryDx=0;entryDy=0;" parent="1" source="MpLFHPZ68rCktOpKLuaT-24" target="MpLFHPZ68rCktOpKLuaT-10" edge="1">
          <mxGeometry relative="1" as="geometry" />
        </mxCell>
        <mxCell id="MpLFHPZ68rCktOpKLuaT-24" value="后少帝&lt;br&gt;（刘弘）&lt;br&gt;" style="text;html=1;strokeColor=none;fillColor=none;align=center;verticalAlign=middle;whiteSpace=wrap;rounded=0;" parent="1" vertex="1">
          <mxGeometry x="3220" y="305" width="60" height="25" as="geometry" />
        </mxCell>
        <mxCell id="MpLFHPZ68rCktOpKLuaT-27" value="赵王&lt;br&gt;（吕禄）&lt;br&gt;" style="text;html=1;strokeColor=none;fillColor=none;align=center;verticalAlign=middle;whiteSpace=wrap;rounded=0;" parent="1" vertex="1">
          <mxGeometry x="3080" y="414" width="60" height="27" as="geometry" />
        </mxCell>
        <mxCell id="MpLFHPZ68rCktOpKLuaT-30" value="" style="edgeStyle=orthogonalEdgeStyle;curved=1;rounded=0;orthogonalLoop=1;jettySize=auto;html=1;" parent="1" source="MpLFHPZ68rCktOpKLuaT-28" target="MpLFHPZ68rCktOpKLuaT-29" edge="1">
          <mxGeometry relative="1" as="geometry" />
        </mxCell>
        <mxCell id="MpLFHPZ68rCktOpKLuaT-28" value="梁王&lt;br&gt;（吕产）&lt;br&gt;" style="text;html=1;strokeColor=none;fillColor=none;align=center;verticalAlign=middle;whiteSpace=wrap;rounded=0;" parent="1" vertex="1">
          <mxGeometry x="3100" y="448" width="60" height="27" as="geometry" />
        </mxCell>
        <mxCell id="MpLFHPZ68rCktOpKLuaT-33" style="edgeStyle=orthogonalEdgeStyle;curved=1;rounded=0;orthogonalLoop=1;jettySize=auto;html=1;exitX=0.5;exitY=1;exitDx=0;exitDy=0;entryX=0.5;entryY=1;entryDx=0;entryDy=0;" parent="1" source="MpLFHPZ68rCktOpKLuaT-29" target="MpLFHPZ68rCktOpKLuaT-31" edge="1">
          <mxGeometry relative="1" as="geometry" />
        </mxCell>
        <mxCell id="MpLFHPZ68rCktOpKLuaT-29" value="灌婴&lt;br&gt;" style="text;html=1;strokeColor=#d79b00;fillColor=#ffe6cc;align=center;verticalAlign=middle;whiteSpace=wrap;rounded=0;" parent="1" vertex="1">
          <mxGeometry x="3180" y="448" width="60" height="27" as="geometry" />
        </mxCell>
        <mxCell id="MpLFHPZ68rCktOpKLuaT-31" value="齐王&lt;br&gt;" style="text;html=1;strokeColor=none;fillColor=none;align=center;verticalAlign=middle;whiteSpace=wrap;rounded=0;" parent="1" vertex="1">
          <mxGeometry x="3230" y="441" width="60" height="27" as="geometry" />
        </mxCell>
        <mxCell id="MpLFHPZ68rCktOpKLuaT-39" style="edgeStyle=orthogonalEdgeStyle;curved=1;rounded=0;orthogonalLoop=1;jettySize=auto;html=1;exitX=0.5;exitY=0;exitDx=0;exitDy=0;entryX=0.5;entryY=1;entryDx=0;entryDy=0;" parent="1" source="MpLFHPZ68rCktOpKLuaT-36" target="MpLFHPZ68rCktOpKLuaT-28" edge="1">
          <mxGeometry relative="1" as="geometry" />
        </mxCell>
        <mxCell id="MpLFHPZ68rCktOpKLuaT-36" value="朱虚侯&lt;br&gt;（刘章）&lt;br&gt;" style="text;html=1;strokeColor=none;fillColor=none;align=center;verticalAlign=middle;whiteSpace=wrap;rounded=0;" parent="1" vertex="1">
          <mxGeometry x="3125" y="500" width="50" height="30" as="geometry" />
        </mxCell>
        <mxCell id="MpLFHPZ68rCktOpKLuaT-56" value="汉武帝&lt;br&gt;（刘彻）&lt;br&gt;" style="text;html=1;strokeColor=none;fillColor=none;align=center;verticalAlign=middle;whiteSpace=wrap;rounded=0;" parent="1" vertex="1">
          <mxGeometry x="3490" y="337.5" width="60" height="25" as="geometry" />
        </mxCell>
        <mxCell id="MpLFHPZ68rCktOpKLuaT-57" value="董仲舒&lt;br&gt;" style="text;html=1;strokeColor=none;fillColor=none;align=center;verticalAlign=middle;whiteSpace=wrap;rounded=0;" parent="1" vertex="1">
          <mxGeometry x="3480" y="265" width="60" height="25" as="geometry" />
        </mxCell>
        <mxCell id="MpLFHPZ68rCktOpKLuaT-60" value="" style="edgeStyle=orthogonalEdgeStyle;curved=1;rounded=0;orthogonalLoop=1;jettySize=auto;html=1;" parent="1" source="MpLFHPZ68rCktOpKLuaT-58" target="MpLFHPZ68rCktOpKLuaT-59" edge="1">
          <mxGeometry relative="1" as="geometry" />
        </mxCell>
        <mxCell id="MpLFHPZ68rCktOpKLuaT-58" value="张骞&lt;br&gt;&lt;br&gt;" style="text;html=1;strokeColor=none;fillColor=none;align=center;verticalAlign=middle;whiteSpace=wrap;rounded=0;" parent="1" vertex="1">
          <mxGeometry x="3480" y="230" width="60" height="25" as="geometry" />
        </mxCell>
        <mxCell id="MpLFHPZ68rCktOpKLuaT-59" value="大月氏" style="text;html=1;strokeColor=none;fillColor=none;align=center;verticalAlign=middle;whiteSpace=wrap;rounded=0;" parent="1" vertex="1">
          <mxGeometry x="3620" y="230" width="60" height="25" as="geometry" />
        </mxCell>
        <mxCell id="r9mWfL_eA96lx4Y-Phn7-6" style="edgeStyle=orthogonalEdgeStyle;curved=1;rounded=0;orthogonalLoop=1;jettySize=auto;html=1;dashed=1;" parent="1" source="r9mWfL_eA96lx4Y-Phn7-2" target="aPUkME7y7yC4_XbtxQYm-27" edge="1">
          <mxGeometry relative="1" as="geometry">
            <mxPoint x="1332.6470588235297" y="433.97058823529414" as="sourcePoint" />
          </mxGeometry>
        </mxCell>
        <mxCell id="r9mWfL_eA96lx4Y-Phn7-2" value="&lt;div style=&quot;text-align: center&quot;&gt;列子&lt;/div&gt;&lt;div style=&quot;text-align: center&quot;&gt;&lt;span&gt;（前&lt;/span&gt;&lt;span&gt;450年—前375年&lt;/span&gt;&lt;span&gt;）&lt;/span&gt;&lt;/div&gt;" style="text;html=1;fontSize=12;" parent="1" vertex="1">
          <mxGeometry x="990" y="419" width="100" height="37" as="geometry" />
        </mxCell>
        <mxCell id="r9mWfL_eA96lx4Y-Phn7-5" style="edgeStyle=orthogonalEdgeStyle;curved=1;rounded=0;orthogonalLoop=1;jettySize=auto;html=1;exitX=0.25;exitY=1;exitDx=0;exitDy=0;entryX=0;entryY=0.5;entryDx=0;entryDy=0;" parent="1" source="r9mWfL_eA96lx4Y-Phn7-3" target="r9mWfL_eA96lx4Y-Phn7-2" edge="1">
          <mxGeometry relative="1" as="geometry" />
        </mxCell>
        <mxCell id="r9mWfL_eA96lx4Y-Phn7-3" value="&lt;div style=&quot;text-align: center&quot;&gt;关尹&lt;/div&gt;" style="text;html=1;fontSize=12;" parent="1" vertex="1">
          <mxGeometry x="980" y="390" width="40" height="25" as="geometry" />
        </mxCell>
        <mxCell id="r9mWfL_eA96lx4Y-Phn7-7" value="&lt;div style=&quot;text-align: center&quot;&gt;&lt;span&gt;荀子&lt;/span&gt;&lt;/div&gt;&lt;div style=&quot;text-align: center&quot;&gt;&lt;span&gt;（约前313年－前238年）&lt;/span&gt;&lt;/div&gt;" style="text;html=1;align=center;" parent="1" vertex="1">
          <mxGeometry x="1960" y="493" width="380" height="37" as="geometry" />
        </mxCell>
        <mxCell id="r9mWfL_eA96lx4Y-Phn7-8" value="晋文公" style="rounded=1;whiteSpace=wrap;html=1;fontSize=12;" parent="1" vertex="1">
          <mxGeometry x="230" y="460" width="80" height="20" as="geometry" />
        </mxCell>
        <mxCell id="r9mWfL_eA96lx4Y-Phn7-11" value="二世胡亥" style="text;html=1;" parent="1" vertex="1">
          <mxGeometry x="2734" y="435.5" width="70" height="30" as="geometry" />
        </mxCell>
        <mxCell id="r9mWfL_eA96lx4Y-Phn7-12" value="赵高" style="text;html=1;" parent="1" vertex="1">
          <mxGeometry x="2709" y="489" width="50" height="30" as="geometry" />
        </mxCell>
        <mxCell id="r9mWfL_eA96lx4Y-Phn7-13" value="扶苏" style="text;html=1;" parent="1" vertex="1">
          <mxGeometry x="2719" y="400" width="50" height="30" as="geometry" />
        </mxCell>
        <mxCell id="r9mWfL_eA96lx4Y-Phn7-14" value="&lt;div style=&quot;text-align: center&quot;&gt;&lt;span&gt;申不害&lt;/span&gt;&lt;/div&gt;&lt;div style=&quot;text-align: center&quot;&gt;&lt;span&gt;前385年－前337年&lt;/span&gt;&lt;/div&gt;" style="text;html=1;" parent="1" vertex="1">
          <mxGeometry x="1370" y="465" width="170" height="30" as="geometry" />
        </mxCell>
        <mxCell id="zDtLxDJx-mtVt5FpkuiB-1" value="周孝王&lt;br&gt;（前960-前896）&lt;br&gt;" style="rounded=1;whiteSpace=wrap;html=1;verticalAlign=top;" parent="1" vertex="1">
          <mxGeometry x="-1256" y="672" width="100" height="80" as="geometry" />
        </mxCell>
        <mxCell id="zDtLxDJx-mtVt5FpkuiB-2" value="大克鼎&lt;br&gt;" style="rounded=1;whiteSpace=wrap;html=1;fillColor=#6d8764;strokeColor=#3A5431;fontColor=#ffffff;" parent="1" vertex="1">
          <mxGeometry x="-1231" y="719.5" width="50" height="20" as="geometry" />
        </mxCell>
        <mxCell id="zDtLxDJx-mtVt5FpkuiB-6" value="三国&lt;br&gt;（&lt;span&gt;220年－280年)&lt;/span&gt;&lt;br&gt;" style="rounded=1;whiteSpace=wrap;html=1;fontSize=16;fillColor=#f8cecc;strokeColor=#b85450;" parent="1" vertex="1">
          <mxGeometry x="5430" y="584" width="230" height="36" as="geometry" />
        </mxCell>
        <mxCell id="zDtLxDJx-mtVt5FpkuiB-7" value="南北朝&lt;br&gt;（&lt;span&gt;420年—589年)&lt;/span&gt;&lt;br&gt;" style="rounded=1;whiteSpace=wrap;html=1;fontSize=16;fillColor=#f8cecc;strokeColor=#b85450;" parent="1" vertex="1">
          <mxGeometry x="6400" y="590" width="481" height="39" as="geometry" />
        </mxCell>
        <mxCell id="zDtLxDJx-mtVt5FpkuiB-9" value="宋 齐 梁 陈" style="text;html=1;strokeColor=none;fillColor=none;align=center;verticalAlign=middle;whiteSpace=wrap;rounded=0;" parent="1" vertex="1">
          <mxGeometry x="6513" y="690" width="218" height="20" as="geometry" />
        </mxCell>
        <mxCell id="zDtLxDJx-mtVt5FpkuiB-10" value="北魏" style="text;html=1;strokeColor=none;fillColor=none;align=center;verticalAlign=middle;whiteSpace=wrap;rounded=0;" parent="1" vertex="1">
          <mxGeometry x="6441" y="395" width="70" height="20" as="geometry" />
        </mxCell>
        <mxCell id="zDtLxDJx-mtVt5FpkuiB-16" style="edgeStyle=orthogonalEdgeStyle;rounded=0;orthogonalLoop=1;jettySize=auto;html=1;entryX=0;entryY=0.25;entryDx=0;entryDy=0;" parent="1" source="zDtLxDJx-mtVt5FpkuiB-11" target="zDtLxDJx-mtVt5FpkuiB-14" edge="1">
          <mxGeometry relative="1" as="geometry" />
        </mxCell>
        <mxCell id="zDtLxDJx-mtVt5FpkuiB-11" value="东魏" style="text;html=1;strokeColor=none;fillColor=none;align=center;verticalAlign=middle;whiteSpace=wrap;rounded=0;" parent="1" vertex="1">
          <mxGeometry x="6552" y="380" width="70" height="15" as="geometry" />
        </mxCell>
        <mxCell id="zDtLxDJx-mtVt5FpkuiB-17" style="edgeStyle=orthogonalEdgeStyle;rounded=0;orthogonalLoop=1;jettySize=auto;html=1;exitX=1;exitY=0.5;exitDx=0;exitDy=0;entryX=0;entryY=0.5;entryDx=0;entryDy=0;" parent="1" source="zDtLxDJx-mtVt5FpkuiB-12" target="zDtLxDJx-mtVt5FpkuiB-15" edge="1">
          <mxGeometry relative="1" as="geometry" />
        </mxCell>
        <mxCell id="zDtLxDJx-mtVt5FpkuiB-12" value="西魏" style="text;html=1;strokeColor=none;fillColor=none;align=center;verticalAlign=middle;whiteSpace=wrap;rounded=0;" parent="1" vertex="1">
          <mxGeometry x="6556.5" y="442" width="70" height="15" as="geometry" />
        </mxCell>
        <mxCell id="zDtLxDJx-mtVt5FpkuiB-14" value="北周" style="text;html=1;strokeColor=none;fillColor=none;align=center;verticalAlign=middle;whiteSpace=wrap;rounded=0;" parent="1" vertex="1">
          <mxGeometry x="6721" y="380" width="70" height="15" as="geometry" />
        </mxCell>
        <mxCell id="zDtLxDJx-mtVt5FpkuiB-15" value="北齐" style="text;html=1;strokeColor=none;fillColor=none;align=center;verticalAlign=middle;whiteSpace=wrap;rounded=0;" parent="1" vertex="1">
          <mxGeometry x="6721" y="436.5" width="70" height="15" as="geometry" />
        </mxCell>
        <mxCell id="zDtLxDJx-mtVt5FpkuiB-18" value="五代&lt;br&gt;（&amp;nbsp;&lt;span&gt;907年—979年&lt;/span&gt;）&lt;br&gt;" style="rounded=1;whiteSpace=wrap;html=1;fontSize=16;fillColor=#f8cecc;strokeColor=#b85450;" parent="1" vertex="1">
          <mxGeometry x="8430.5" y="582.5" width="280" height="50" as="geometry" />
        </mxCell>
        <mxCell id="zDtLxDJx-mtVt5FpkuiB-19" value="后唐" style="text;html=1;strokeColor=none;fillColor=none;align=center;verticalAlign=middle;whiteSpace=wrap;rounded=0;" parent="1" vertex="1">
          <mxGeometry x="8485" y="462.4999999999999" width="40" height="20" as="geometry" />
        </mxCell>
        <mxCell id="zDtLxDJx-mtVt5FpkuiB-20" value="后梁" style="text;html=1;strokeColor=none;fillColor=none;align=center;verticalAlign=middle;whiteSpace=wrap;rounded=0;" parent="1" vertex="1">
          <mxGeometry x="8430" y="462.5" width="40" height="20" as="geometry" />
        </mxCell>
        <mxCell id="zDtLxDJx-mtVt5FpkuiB-21" value="后晋" style="text;html=1;strokeColor=none;fillColor=none;align=center;verticalAlign=middle;whiteSpace=wrap;rounded=0;" parent="1" vertex="1">
          <mxGeometry x="8540" y="462.5" width="40" height="20" as="geometry" />
        </mxCell>
        <mxCell id="zDtLxDJx-mtVt5FpkuiB-22" value="后汉" style="text;html=1;strokeColor=none;fillColor=none;align=center;verticalAlign=middle;whiteSpace=wrap;rounded=0;" parent="1" vertex="1">
          <mxGeometry x="8590" y="462.5" width="40" height="20" as="geometry" />
        </mxCell>
        <mxCell id="zDtLxDJx-mtVt5FpkuiB-23" value="后周" style="text;html=1;strokeColor=none;fillColor=none;align=center;verticalAlign=middle;whiteSpace=wrap;rounded=0;" parent="1" vertex="1">
          <mxGeometry x="8660" y="462.5" width="40" height="20" as="geometry" />
        </mxCell>
        <mxCell id="zDtLxDJx-mtVt5FpkuiB-24" value="南平&lt;br&gt;马楚&lt;br&gt;" style="text;html=1;strokeColor=none;fillColor=none;align=center;verticalAlign=middle;whiteSpace=wrap;rounded=0;" parent="1" vertex="1">
          <mxGeometry x="8485" y="684.9999999999999" width="40" height="20" as="geometry" />
        </mxCell>
        <mxCell id="zDtLxDJx-mtVt5FpkuiB-25" value="前蜀&lt;br&gt;后蜀&lt;br&gt;" style="text;html=1;strokeColor=none;fillColor=none;align=center;verticalAlign=middle;whiteSpace=wrap;rounded=0;" parent="1" vertex="1">
          <mxGeometry x="8430" y="685" width="40" height="20" as="geometry" />
        </mxCell>
        <mxCell id="zDtLxDJx-mtVt5FpkuiB-26" value="北汉&lt;br&gt;南汉&lt;br&gt;" style="text;html=1;strokeColor=none;fillColor=none;align=center;verticalAlign=middle;whiteSpace=wrap;rounded=0;" parent="1" vertex="1">
          <mxGeometry x="8540" y="685" width="40" height="20" as="geometry" />
        </mxCell>
        <mxCell id="zDtLxDJx-mtVt5FpkuiB-27" value="南唐&lt;br&gt;闽&lt;br&gt;" style="text;html=1;strokeColor=none;fillColor=none;align=center;verticalAlign=middle;whiteSpace=wrap;rounded=0;" parent="1" vertex="1">
          <mxGeometry x="8590" y="685" width="40" height="20" as="geometry" />
        </mxCell>
        <mxCell id="zDtLxDJx-mtVt5FpkuiB-28" value="吴&lt;br&gt;吴越&lt;br&gt;" style="text;html=1;strokeColor=none;fillColor=none;align=center;verticalAlign=middle;whiteSpace=wrap;rounded=0;" parent="1" vertex="1">
          <mxGeometry x="8660" y="685" width="40" height="20" as="geometry" />
        </mxCell>
        <mxCell id="zDtLxDJx-mtVt5FpkuiB-29" value="东晋&lt;br&gt;（&lt;span&gt;317年－420年&lt;/span&gt;&lt;span&gt;)&lt;/span&gt;&lt;br&gt;" style="rounded=1;whiteSpace=wrap;html=1;fontSize=16;fillColor=#f8cecc;strokeColor=#b85450;" parent="1" vertex="1">
          <mxGeometry x="5950" y="577" width="420" height="43" as="geometry" />
        </mxCell>
        <mxCell id="zDtLxDJx-mtVt5FpkuiB-31" value="0年" style="text;html=1;strokeColor=none;fillColor=none;align=center;verticalAlign=middle;whiteSpace=wrap;rounded=0;fontSize=150;" parent="1" vertex="1">
          <mxGeometry x="3910" y="41" width="560" height="114" as="geometry" />
        </mxCell>
        <mxCell id="zDtLxDJx-mtVt5FpkuiB-32" value="2000年" style="text;html=1;strokeColor=none;fillColor=none;align=center;verticalAlign=middle;whiteSpace=wrap;rounded=0;fontSize=150;" parent="1" vertex="1">
          <mxGeometry x="13800" y="46.5" width="560" height="114" as="geometry" />
        </mxCell>
        <mxCell id="Xr7n47hqScDC3cydzjwK-1" style="edgeStyle=orthogonalEdgeStyle;curved=1;rounded=0;orthogonalLoop=1;jettySize=auto;html=1;exitX=0.25;exitY=1;exitDx=0;exitDy=0;strokeWidth=2;fontSize=18;" parent="1" source="Xr7n47hqScDC3cydzjwK-5" target="Xr7n47hqScDC3cydzjwK-14" edge="1">
          <mxGeometry relative="1" as="geometry" />
        </mxCell>
        <mxCell id="Xr7n47hqScDC3cydzjwK-2" style="edgeStyle=orthogonalEdgeStyle;curved=1;rounded=0;orthogonalLoop=1;jettySize=auto;html=1;exitX=0.75;exitY=1;exitDx=0;exitDy=0;entryX=0.25;entryY=0;entryDx=0;entryDy=0;strokeWidth=2;fontSize=18;" parent="1" source="Xr7n47hqScDC3cydzjwK-5" target="Xr7n47hqScDC3cydzjwK-15" edge="1">
          <mxGeometry relative="1" as="geometry" />
        </mxCell>
        <mxCell id="Xr7n47hqScDC3cydzjwK-3" style="edgeStyle=orthogonalEdgeStyle;curved=1;rounded=0;orthogonalLoop=1;jettySize=auto;html=1;exitX=1;exitY=0.75;exitDx=0;exitDy=0;entryX=0;entryY=0.5;entryDx=0;entryDy=0;strokeWidth=2;fontSize=18;" parent="1" source="Xr7n47hqScDC3cydzjwK-5" target="Xr7n47hqScDC3cydzjwK-16" edge="1">
          <mxGeometry relative="1" as="geometry" />
        </mxCell>
        <mxCell id="Xr7n47hqScDC3cydzjwK-4" style="edgeStyle=orthogonalEdgeStyle;curved=1;rounded=0;orthogonalLoop=1;jettySize=auto;html=1;exitX=1;exitY=0.5;exitDx=0;exitDy=0;entryX=0;entryY=0.5;entryDx=0;entryDy=0;strokeWidth=2;fontSize=18;" parent="1" source="Xr7n47hqScDC3cydzjwK-5" target="Xr7n47hqScDC3cydzjwK-13" edge="1">
          <mxGeometry relative="1" as="geometry" />
        </mxCell>
        <mxCell id="Xr7n47hqScDC3cydzjwK-5" value="齐宣王" style="rounded=1;whiteSpace=wrap;html=1;strokeWidth=2;fontSize=18;" parent="1" vertex="1">
          <mxGeometry x="2094.5" y="-840" width="120" height="60" as="geometry" />
        </mxCell>
        <mxCell id="Xr7n47hqScDC3cydzjwK-6" style="edgeStyle=orthogonalEdgeStyle;curved=1;rounded=0;orthogonalLoop=1;jettySize=auto;html=1;exitX=0.5;exitY=1;exitDx=0;exitDy=0;entryX=0.25;entryY=0;entryDx=0;entryDy=0;strokeWidth=2;fontSize=18;" parent="1" source="Xr7n47hqScDC3cydzjwK-7" target="Xr7n47hqScDC3cydzjwK-5" edge="1">
          <mxGeometry relative="1" as="geometry" />
        </mxCell>
        <mxCell id="Xr7n47hqScDC3cydzjwK-7" value="孟子" style="rounded=1;whiteSpace=wrap;html=1;strokeWidth=2;fontSize=18;" parent="1" vertex="1">
          <mxGeometry x="2064.5" y="-980" width="120" height="60" as="geometry" />
        </mxCell>
        <mxCell id="Xr7n47hqScDC3cydzjwK-8" style="edgeStyle=orthogonalEdgeStyle;curved=1;rounded=0;orthogonalLoop=1;jettySize=auto;html=1;exitX=0.25;exitY=1;exitDx=0;exitDy=0;entryX=0.75;entryY=0;entryDx=0;entryDy=0;strokeWidth=2;fontSize=18;" parent="1" source="Xr7n47hqScDC3cydzjwK-9" target="Xr7n47hqScDC3cydzjwK-5" edge="1">
          <mxGeometry relative="1" as="geometry" />
        </mxCell>
        <mxCell id="Xr7n47hqScDC3cydzjwK-9" value="齐威王" style="rounded=1;whiteSpace=wrap;html=1;strokeWidth=2;fontSize=18;" parent="1" vertex="1">
          <mxGeometry x="2254.5" y="-950" width="120" height="60" as="geometry" />
        </mxCell>
        <mxCell id="Xr7n47hqScDC3cydzjwK-10" style="edgeStyle=orthogonalEdgeStyle;rounded=0;orthogonalLoop=1;jettySize=auto;html=1;exitX=0.25;exitY=1;exitDx=0;exitDy=0;strokeWidth=2;curved=1;dashed=1;fontSize=18;" parent="1" source="Xr7n47hqScDC3cydzjwK-12" target="Xr7n47hqScDC3cydzjwK-9" edge="1">
          <mxGeometry relative="1" as="geometry" />
        </mxCell>
        <mxCell id="Xr7n47hqScDC3cydzjwK-11" style="edgeStyle=orthogonalEdgeStyle;curved=1;rounded=0;orthogonalLoop=1;jettySize=auto;html=1;exitX=0.5;exitY=1;exitDx=0;exitDy=0;strokeWidth=2;entryX=0.6;entryY=-0.05;entryDx=0;entryDy=0;entryPerimeter=0;fontSize=18;" parent="1" source="Xr7n47hqScDC3cydzjwK-12" target="Xr7n47hqScDC3cydzjwK-13" edge="1">
          <mxGeometry relative="1" as="geometry">
            <mxPoint x="2424.5" y="-840" as="targetPoint" />
          </mxGeometry>
        </mxCell>
        <mxCell id="Xr7n47hqScDC3cydzjwK-12" value="齐桓公" style="rounded=1;whiteSpace=wrap;html=1;strokeWidth=2;fontSize=18;" parent="1" vertex="1">
          <mxGeometry x="2394.5" y="-1050" width="120" height="60" as="geometry" />
        </mxCell>
        <mxCell id="Xr7n47hqScDC3cydzjwK-13" value="稷下学宫" style="rounded=1;whiteSpace=wrap;html=1;strokeWidth=2;fontSize=18;" parent="1" vertex="1">
          <mxGeometry x="2354.5" y="-840" width="120" height="60" as="geometry" />
        </mxCell>
        <mxCell id="Xr7n47hqScDC3cydzjwK-14" value="&lt;span style=&quot;font-size: 18px;&quot;&gt;淳于髡&lt;/span&gt;" style="rounded=1;whiteSpace=wrap;html=1;strokeWidth=2;fontSize=18;" parent="1" vertex="1">
          <mxGeometry x="1994.5" y="-680" width="120" height="60" as="geometry" />
        </mxCell>
        <mxCell id="Xr7n47hqScDC3cydzjwK-15" value="&lt;span style=&quot;font-size: 18px;&quot;&gt;南郭先生&lt;/span&gt;&lt;br style=&quot;font-size: 18px;&quot;&gt;" style="rounded=1;whiteSpace=wrap;html=1;strokeWidth=2;fontSize=18;" parent="1" vertex="1">
          <mxGeometry x="2154.5" y="-660" width="120" height="60" as="geometry" />
        </mxCell>
        <mxCell id="Xr7n47hqScDC3cydzjwK-16" value="&lt;span style=&quot;font-size: 18px;&quot;&gt;齐愍王&lt;/span&gt;&lt;br style=&quot;font-size: 18px;&quot;&gt;" style="rounded=1;whiteSpace=wrap;html=1;strokeWidth=2;fontSize=18;" parent="1" vertex="1">
          <mxGeometry x="2344.5" y="-720" width="120" height="60" as="geometry" />
        </mxCell>
      </root>
    </mxGraphModel>
  </diagram>
  <diagram name="history2" id="2SAzTIJdvY0mE2SYjNv9">
    <mxGraphModel dx="4730" dy="715" grid="1" gridSize="10" guides="1" tooltips="1" connect="1" arrows="1" fold="1" page="1" pageScale="1" pageWidth="827" pageHeight="1169" math="0" shadow="0">
      <root>
        <mxCell id="4trryhOtO0X4aLTo_cYt-0" />
        <mxCell id="4trryhOtO0X4aLTo_cYt-1" parent="4trryhOtO0X4aLTo_cYt-0" />
        <mxCell id="4trryhOtO0X4aLTo_cYt-2" value="秦&lt;br&gt;（&lt;span&gt;前221—前207年)&lt;/span&gt;&lt;br&gt;" style="rounded=1;whiteSpace=wrap;html=1;fontSize=16;fillColor=#f8cecc;strokeColor=#b85450;" parent="4trryhOtO0X4aLTo_cYt-1" vertex="1">
          <mxGeometry x="2966" y="570" width="150" height="60" as="geometry" />
        </mxCell>
        <mxCell id="4trryhOtO0X4aLTo_cYt-3" value="李斯" style="rounded=1;whiteSpace=wrap;html=1;fontSize=16;" parent="4trryhOtO0X4aLTo_cYt-1" vertex="1">
          <mxGeometry x="3006" y="430" width="65" height="40" as="geometry" />
        </mxCell>
        <mxCell id="4trryhOtO0X4aLTo_cYt-4" value="战国&lt;br&gt;（&lt;span&gt;前475年—前221年&lt;/span&gt;&lt;span&gt;)&lt;/span&gt;&lt;br&gt;" style="rounded=1;whiteSpace=wrap;html=1;fontSize=16;fillColor=#f8cecc;strokeColor=#b85450;" parent="4trryhOtO0X4aLTo_cYt-1" vertex="1">
          <mxGeometry x="980" y="575" width="1500" height="60" as="geometry" />
        </mxCell>
        <mxCell id="4trryhOtO0X4aLTo_cYt-5" value="春秋&lt;br&gt;（&lt;span&gt;前770—前476年)&lt;/span&gt;&lt;br&gt;" style="rounded=1;whiteSpace=wrap;html=1;fontSize=16;fillColor=#f8cecc;strokeColor=#b85450;" parent="4trryhOtO0X4aLTo_cYt-1" vertex="1">
          <mxGeometry x="-830" y="570" width="1800" height="60" as="geometry" />
        </mxCell>
        <mxCell id="4trryhOtO0X4aLTo_cYt-6" value="西周&lt;br&gt;（&lt;span&gt;前1046—前771年)&lt;/span&gt;&lt;br&gt;" style="rounded=1;whiteSpace=wrap;html=1;fontSize=16;fillColor=#f8cecc;strokeColor=#b85450;" parent="4trryhOtO0X4aLTo_cYt-1" vertex="1">
          <mxGeometry x="-1360" y="570" width="280" height="70" as="geometry" />
        </mxCell>
        <mxCell id="4trryhOtO0X4aLTo_cYt-7" value="商&lt;br&gt;（&lt;span&gt;前1600—前1046年)&lt;/span&gt;&lt;br&gt;" style="rounded=1;whiteSpace=wrap;html=1;fontSize=16;fillColor=#f8cecc;strokeColor=#b85450;" parent="4trryhOtO0X4aLTo_cYt-1" vertex="1">
          <mxGeometry x="-1940" y="570" width="280" height="70" as="geometry" />
        </mxCell>
        <mxCell id="4trryhOtO0X4aLTo_cYt-8" value="夏&lt;br&gt;（&lt;span&gt;前2070—前1600年)&lt;/span&gt;&lt;br&gt;" style="rounded=1;whiteSpace=wrap;html=1;fontSize=16;fillColor=#f8cecc;strokeColor=#b85450;" parent="4trryhOtO0X4aLTo_cYt-1" vertex="1">
          <mxGeometry x="-2599.833455403646" y="570" width="280" height="70" as="geometry" />
        </mxCell>
        <mxCell id="4trryhOtO0X4aLTo_cYt-9" value="齐桓公" style="rounded=1;whiteSpace=wrap;html=1;fontSize=12;" parent="4trryhOtO0X4aLTo_cYt-1" vertex="1">
          <mxGeometry x="1620" y="510" width="80" height="20" as="geometry" />
        </mxCell>
        <mxCell id="4trryhOtO0X4aLTo_cYt-10" value="晋文公" style="rounded=1;whiteSpace=wrap;html=1;fontSize=12;" parent="4trryhOtO0X4aLTo_cYt-1" vertex="1">
          <mxGeometry x="1750" y="510" width="80" height="20" as="geometry" />
        </mxCell>
        <mxCell id="4trryhOtO0X4aLTo_cYt-11" value="西汉&lt;br&gt;（前202年-8年）&lt;br&gt;" style="rounded=1;whiteSpace=wrap;html=1;fontSize=16;fillColor=#f8cecc;strokeColor=#b85450;" parent="4trryhOtO0X4aLTo_cYt-1" vertex="1">
          <mxGeometry x="4040" y="570" width="150" height="60" as="geometry" />
        </mxCell>
        <mxCell id="4trryhOtO0X4aLTo_cYt-12" value="刘邦" style="rounded=1;whiteSpace=wrap;html=1;fontSize=16;" parent="4trryhOtO0X4aLTo_cYt-1" vertex="1">
          <mxGeometry x="4070" y="410" width="60" height="30" as="geometry" />
        </mxCell>
        <mxCell id="4trryhOtO0X4aLTo_cYt-13" value="商山四诰" style="rounded=1;whiteSpace=wrap;html=1;fontSize=16;" parent="4trryhOtO0X4aLTo_cYt-1" vertex="1">
          <mxGeometry x="4070" y="350" width="130" height="30" as="geometry" />
        </mxCell>
        <mxCell id="4trryhOtO0X4aLTo_cYt-14" value="吕后" style="rounded=1;whiteSpace=wrap;html=1;fontSize=16;" parent="4trryhOtO0X4aLTo_cYt-1" vertex="1">
          <mxGeometry x="4100" y="470" width="60" height="30" as="geometry" />
        </mxCell>
        <mxCell id="4trryhOtO0X4aLTo_cYt-15" style="edgeStyle=orthogonalEdgeStyle;curved=1;rounded=0;orthogonalLoop=1;jettySize=auto;html=1;exitX=1;exitY=0.5;exitDx=0;exitDy=0;entryX=0;entryY=0.5;entryDx=0;entryDy=0;fontSize=12;" parent="4trryhOtO0X4aLTo_cYt-1" source="4trryhOtO0X4aLTo_cYt-16" target="4trryhOtO0X4aLTo_cYt-17" edge="1">
          <mxGeometry relative="1" as="geometry" />
        </mxCell>
        <mxCell id="4trryhOtO0X4aLTo_cYt-16" value="老子&amp;nbsp;&lt;br style=&quot;font-size: 12px;&quot;&gt;（前571年-前471年）&lt;br style=&quot;font-size: 12px;&quot;&gt;" style="rounded=1;whiteSpace=wrap;html=1;fontSize=12;" parent="4trryhOtO0X4aLTo_cYt-1" vertex="1">
          <mxGeometry x="770" y="350" width="180" height="40" as="geometry" />
        </mxCell>
        <mxCell id="4trryhOtO0X4aLTo_cYt-17" value="鬼谷子&amp;nbsp;&lt;br style=&quot;font-size: 12px;&quot;&gt;（约前400年-前270年）&lt;br style=&quot;font-size: 12px;&quot;&gt;" style="rounded=1;whiteSpace=wrap;html=1;fontSize=12;" parent="4trryhOtO0X4aLTo_cYt-1" vertex="1">
          <mxGeometry x="1110" y="350" width="140" height="40" as="geometry" />
        </mxCell>
        <mxCell id="4trryhOtO0X4aLTo_cYt-18" value="孔子&amp;nbsp;&lt;br style=&quot;font-size: 12px&quot;&gt;（前551年-前479年）&lt;br style=&quot;font-size: 12px&quot;&gt;" style="rounded=1;whiteSpace=wrap;html=1;fontSize=12;" parent="4trryhOtO0X4aLTo_cYt-1" vertex="1">
          <mxGeometry x="810" y="102" width="130" height="35" as="geometry" />
        </mxCell>
        <mxCell id="4trryhOtO0X4aLTo_cYt-19" value="孟子&amp;nbsp;&lt;br style=&quot;font-size: 12px&quot;&gt;（&lt;span&gt;前372年—前289年&lt;/span&gt;）&lt;br&gt;" style="rounded=1;whiteSpace=wrap;html=1;fontSize=12;" parent="4trryhOtO0X4aLTo_cYt-1" vertex="1">
          <mxGeometry x="1120" y="98" width="130" height="35" as="geometry" />
        </mxCell>
        <mxCell id="4trryhOtO0X4aLTo_cYt-20" value="申、韩一派" style="text;html=1;fontSize=12;" parent="4trryhOtO0X4aLTo_cYt-1" vertex="1">
          <mxGeometry x="1140" y="410" width="90" height="30" as="geometry" />
        </mxCell>
        <mxCell id="4trryhOtO0X4aLTo_cYt-21" value="杨朱一派" style="text;html=1;fontSize=12;" parent="4trryhOtO0X4aLTo_cYt-1" vertex="1">
          <mxGeometry x="1140" y="440" width="70" height="30" as="geometry" />
        </mxCell>
        <mxCell id="4trryhOtO0X4aLTo_cYt-22" value="庄、列一派" style="text;html=1;fontSize=12;" parent="4trryhOtO0X4aLTo_cYt-1" vertex="1">
          <mxGeometry x="1140" y="470" width="90" height="30" as="geometry" />
        </mxCell>
        <mxCell id="4trryhOtO0X4aLTo_cYt-23" value="尹文一派" style="text;html=1;fontSize=12;" parent="4trryhOtO0X4aLTo_cYt-1" vertex="1">
          <mxGeometry x="1140" y="500" width="70" height="30" as="geometry" />
        </mxCell>
        <mxCell id="4trryhOtO0X4aLTo_cYt-24" value="庞涓" style="text;html=1;fontSize=12;" parent="4trryhOtO0X4aLTo_cYt-1" vertex="1">
          <mxGeometry x="1370" y="394" width="50" height="30" as="geometry" />
        </mxCell>
        <mxCell id="4trryhOtO0X4aLTo_cYt-25" value="孙膑" style="text;html=1;fontSize=12;" parent="4trryhOtO0X4aLTo_cYt-1" vertex="1">
          <mxGeometry x="1365" y="365" width="60" height="30" as="geometry" />
        </mxCell>
        <mxCell id="4trryhOtO0X4aLTo_cYt-26" value="商鞅" style="text;html=1;fontSize=12;" parent="4trryhOtO0X4aLTo_cYt-1" vertex="1">
          <mxGeometry x="1370" y="435" width="50" height="30" as="geometry" />
        </mxCell>
        <mxCell id="4trryhOtO0X4aLTo_cYt-27" value="张仪" style="text;html=1;fontSize=12;" parent="4trryhOtO0X4aLTo_cYt-1" vertex="1">
          <mxGeometry x="1370" y="330" width="50" height="30" as="geometry" />
        </mxCell>
        <mxCell id="4trryhOtO0X4aLTo_cYt-28" value="苏秦" style="text;html=1;fontSize=12;" parent="4trryhOtO0X4aLTo_cYt-1" vertex="1">
          <mxGeometry x="1365" y="300" width="50" height="30" as="geometry" />
        </mxCell>
        <mxCell id="4trryhOtO0X4aLTo_cYt-29" value="东汉&lt;br&gt;（ 年- 年）&lt;br&gt;" style="rounded=1;whiteSpace=wrap;html=1;fontSize=16;fillColor=#f8cecc;strokeColor=#b85450;" parent="4trryhOtO0X4aLTo_cYt-1" vertex="1">
          <mxGeometry x="4430" y="580" width="150" height="60" as="geometry" />
        </mxCell>
        <mxCell id="4trryhOtO0X4aLTo_cYt-30" value="六朝&lt;br&gt;（ 年- 年）&lt;br&gt;" style="rounded=1;whiteSpace=wrap;html=1;fontSize=16;fillColor=#f8cecc;strokeColor=#b85450;" parent="4trryhOtO0X4aLTo_cYt-1" vertex="1">
          <mxGeometry x="4760" y="583.5" width="150" height="60" as="geometry" />
        </mxCell>
        <mxCell id="4trryhOtO0X4aLTo_cYt-31" value="隋唐&lt;br&gt;（ 年- 年）&lt;br&gt;" style="rounded=1;whiteSpace=wrap;html=1;fontSize=16;fillColor=#f8cecc;strokeColor=#b85450;" parent="4trryhOtO0X4aLTo_cYt-1" vertex="1">
          <mxGeometry x="5170" y="580" width="150" height="60" as="geometry" />
        </mxCell>
        <mxCell id="4trryhOtO0X4aLTo_cYt-32" value="宋五代&lt;br&gt;（ 年- 年）&lt;br&gt;" style="rounded=1;whiteSpace=wrap;html=1;fontSize=16;fillColor=#f8cecc;strokeColor=#b85450;" parent="4trryhOtO0X4aLTo_cYt-1" vertex="1">
          <mxGeometry x="5470" y="580" width="150" height="60" as="geometry" />
        </mxCell>
        <mxCell id="4trryhOtO0X4aLTo_cYt-33" value="元&lt;br&gt;（ 年- 年）&lt;br&gt;" style="rounded=1;whiteSpace=wrap;html=1;fontSize=16;fillColor=#f8cecc;strokeColor=#b85450;" parent="4trryhOtO0X4aLTo_cYt-1" vertex="1">
          <mxGeometry x="5830" y="580" width="150" height="60" as="geometry" />
        </mxCell>
        <mxCell id="4trryhOtO0X4aLTo_cYt-34" value="明&lt;br&gt;（ 年- 年）&lt;br&gt;" style="rounded=1;whiteSpace=wrap;html=1;fontSize=16;fillColor=#f8cecc;strokeColor=#b85450;" parent="4trryhOtO0X4aLTo_cYt-1" vertex="1">
          <mxGeometry x="6310" y="583.5" width="150" height="60" as="geometry" />
        </mxCell>
        <mxCell id="4trryhOtO0X4aLTo_cYt-35" value="清&lt;br&gt;（ 年- 年）&lt;br&gt;" style="rounded=1;whiteSpace=wrap;html=1;fontSize=16;fillColor=#f8cecc;strokeColor=#b85450;" parent="4trryhOtO0X4aLTo_cYt-1" vertex="1">
          <mxGeometry x="6680" y="580" width="150" height="60" as="geometry" />
        </mxCell>
        <mxCell id="4trryhOtO0X4aLTo_cYt-36" value="王阳明" style="rounded=1;whiteSpace=wrap;html=1;glass=0;fontSize=16;" parent="4trryhOtO0X4aLTo_cYt-1" vertex="1">
          <mxGeometry x="6310" y="430" width="120" height="60" as="geometry" />
        </mxCell>
      </root>
    </mxGraphModel>
  </diagram>
  <diagram id="RzzwAbozjq116GFoHgES" name="bianju">
    <mxGraphModel dx="2370" dy="1192" grid="1" gridSize="10" guides="1" tooltips="1" connect="1" arrows="1" fold="1" page="1" pageScale="1" pageWidth="827" pageHeight="1169" math="0" shadow="0">
      <root>
        <mxCell id="_TwRBatC5KEt483XlIn2-0" />
        <mxCell id="_TwRBatC5KEt483XlIn2-1" parent="_TwRBatC5KEt483XlIn2-0" />
        <mxCell id="8XnakYdfWWMEFpCcsJOU-2" value="" style="edgeStyle=orthogonalEdgeStyle;rounded=0;orthogonalLoop=1;jettySize=auto;html=1;fontSize=36;fillColor=#d5e8d4;strokeColor=#82b366;shadow=1;" edge="1" parent="_TwRBatC5KEt483XlIn2-1" source="8XnakYdfWWMEFpCcsJOU-0" target="8XnakYdfWWMEFpCcsJOU-1">
          <mxGeometry relative="1" as="geometry" />
        </mxCell>
        <mxCell id="8XnakYdfWWMEFpCcsJOU-0" value="北京" style="text;html=1;strokeColor=#82b366;fillColor=#d5e8d4;align=center;verticalAlign=middle;whiteSpace=wrap;rounded=1;fontSize=36;shadow=1;" vertex="1" parent="_TwRBatC5KEt483XlIn2-1">
          <mxGeometry x="240" y="200" width="120" height="50" as="geometry" />
        </mxCell>
        <mxCell id="8XnakYdfWWMEFpCcsJOU-1" value="华盛顿" style="text;html=1;strokeColor=#82b366;fillColor=#d5e8d4;align=center;verticalAlign=middle;whiteSpace=wrap;rounded=1;fontSize=36;shadow=1;" vertex="1" parent="_TwRBatC5KEt483XlIn2-1">
          <mxGeometry x="430" y="200" width="180" height="50" as="geometry" />
        </mxCell>
        <mxCell id="8XnakYdfWWMEFpCcsJOU-3" value="" style="edgeStyle=orthogonalEdgeStyle;rounded=0;orthogonalLoop=1;jettySize=auto;html=1;fontSize=36;fillColor=#d5e8d4;strokeColor=#82b366;shadow=1;" edge="1" source="8XnakYdfWWMEFpCcsJOU-4" target="8XnakYdfWWMEFpCcsJOU-5" parent="_TwRBatC5KEt483XlIn2-1">
          <mxGeometry relative="1" as="geometry" />
        </mxCell>
        <mxCell id="8XnakYdfWWMEFpCcsJOU-4" value="上海" style="text;html=1;strokeColor=#82b366;fillColor=#d5e8d4;align=center;verticalAlign=middle;whiteSpace=wrap;rounded=1;fontSize=36;shadow=1;" vertex="1" parent="_TwRBatC5KEt483XlIn2-1">
          <mxGeometry x="245" y="320" width="120" height="50" as="geometry" />
        </mxCell>
        <mxCell id="8XnakYdfWWMEFpCcsJOU-5" value="东京" style="text;html=1;strokeColor=#82b366;fillColor=#d5e8d4;align=center;verticalAlign=middle;whiteSpace=wrap;rounded=1;fontSize=36;shadow=1;" vertex="1" parent="_TwRBatC5KEt483XlIn2-1">
          <mxGeometry x="435" y="320" width="180" height="50" as="geometry" />
        </mxCell>
        <mxCell id="8XnakYdfWWMEFpCcsJOU-6" value="" style="edgeStyle=orthogonalEdgeStyle;rounded=0;orthogonalLoop=1;jettySize=auto;html=1;fontSize=36;fillColor=#d5e8d4;strokeColor=#82b366;shadow=1;" edge="1" source="8XnakYdfWWMEFpCcsJOU-7" target="8XnakYdfWWMEFpCcsJOU-8" parent="_TwRBatC5KEt483XlIn2-1">
          <mxGeometry relative="1" as="geometry" />
        </mxCell>
        <mxCell id="8XnakYdfWWMEFpCcsJOU-7" value="广深" style="text;html=1;strokeColor=#82b366;fillColor=#d5e8d4;align=center;verticalAlign=middle;whiteSpace=wrap;rounded=1;fontSize=36;shadow=1;" vertex="1" parent="_TwRBatC5KEt483XlIn2-1">
          <mxGeometry x="228" y="460" width="120" height="50" as="geometry" />
        </mxCell>
        <mxCell id="8XnakYdfWWMEFpCcsJOU-8" value="旧金山" style="text;html=1;strokeColor=#82b366;fillColor=#d5e8d4;align=center;verticalAlign=middle;whiteSpace=wrap;rounded=1;fontSize=36;shadow=1;" vertex="1" parent="_TwRBatC5KEt483XlIn2-1">
          <mxGeometry x="418" y="460" width="180" height="50" as="geometry" />
        </mxCell>
      </root>
    </mxGraphModel>
  </diagram>
</mxfile>
